<svg width="14" height="14" viewBox="0 0 14 14" fill="none" xmlns="http://www.w3.org/2000/svg">
<g clip-path="url(#clip0_160_335)">
<path d="M1.23047 5.76953H5.76953V1.23047C5.76953 0.550894 6.32043 0 7 0C7.67957 0 8.23047 0.550894 8.23047 1.23047V5.76953H12.7695C13.4491 5.76953 14 6.32043 14 7C14 7.67957 13.4491 8.23047 12.7695 8.23047H8.23047V12.7695C8.23047 13.4491 7.67957 14 7 14C6.32043 14 5.76953 13.4491 5.76953 12.7695V8.23047H1.23047C0.550895 8.23047 0 7.67957 0 7C0 6.32043 0.550895 5.76953 1.23047 5.76953Z" fill="white"/>
</g>
<defs>
<clipPath id="clip0_160_335">
<rect width="14" height="14" fill="white" transform="matrix(-1 0 0 1 14 0)"/>
</clipPath>
</defs>
</svg>
