<?xml version="1.0" encoding="utf-8"?>
<!-- Created by UniConvertor 2.0rc5 (https://sk1project.net/) -->
<svg xmlns="http://www.w3.org/2000/svg" height="37.0px" width="37.0px" version="1.1" xmlns:xlink="http://www.w3.org/1999/xlink" id="7ecb4e68-f402-11ed-a42e-0242ac130005">

<g>
	<path style="fill-rule:evenodd;fill:#000000;" d="M 10.7913,11.9479 C 10.2802,11.9479 9.7901,12.1509 9.4287,12.5123 9.0673,12.8737 8.8643,13.3639 8.8643,13.875 8.8643,14.3861 9.0673,14.8762 9.4287,15.2376 9.7901,15.599 10.2802,15.8021 10.7913,15.8021 11.3024,15.8021 11.7926,15.599 12.154,15.2376 12.5154,14.8762 12.7184,14.3861 12.7184,13.875 12.7184,13.3639 12.5154,12.8737 12.154,12.5123 11.7926,12.1509 11.3024,11.9479 10.7913,11.9479 Z M 6.5518,13.875 C 6.5518,12.7506 6.9984,11.6722 7.7935,10.8772 8.5886,10.0821 9.6669,9.6354 10.7913,9.6354 11.9157,9.6354 12.9941,10.0821 13.7892,10.8772 14.5843,11.6722 15.0309,12.7506 15.0309,13.875 15.0309,14.9994 14.5843,16.0778 13.7892,16.8728 12.9941,17.6679 11.9157,18.1146 10.7913,18.1146 9.6669,18.1146 8.5886,17.6679 7.7935,16.8728 6.9984,16.0778 6.5518,14.9994 6.5518,13.875 Z M 15.6414,24.0577 C 13.7143,26.216 11.704,29.1652 9.5796,32.9423 9.4283,33.2079 9.178,33.4028 8.8834,33.4844 8.5888,33.5659 8.2739,33.5275 8.0076,33.3775 7.7412,33.2275 7.5451,32.9782 7.4621,32.684 7.3791,32.3898 7.416,32.0747 7.5646,31.8077 9.7338,27.9535 11.8366,24.8455 13.9163,22.5176 15.9898,20.1943 18.0973,18.5832 20.2865,17.8263 22.5188,17.0524 24.7465,17.1973 26.9449,18.2209 29.1033,19.2277 31.1953,21.0638 33.2719,23.6122 33.4657,23.8499 33.5572,24.1549 33.5261,24.4601 33.495,24.7653 33.344,25.0456 33.1062,25.2394 32.8684,25.4332 32.5634,25.5246 32.2583,25.4935 31.9531,25.4625 31.6728,25.3114 31.479,25.0737 29.518,22.6656 27.6865,21.1193 25.9675,20.3176 24.2871,19.5344 22.6791,19.445 21.0434,20.0093 19.3661,20.592 17.5731,21.8947 15.6414,24.0577 Z" />
	<path style="fill-rule:evenodd;fill:#000000;" d="M 2.5297,5.6132 C 3.2098,4.9332 4.0171,4.3939 4.9056,4.0259 5.7942,3.658 6.7465,3.4686 7.7082,3.4688 L 18.9315,3.4688 C 19.2382,3.4688 19.5323,3.5906 19.7491,3.8074 19.9659,4.0243 20.0878,4.3183 20.0878,4.625 20.0878,4.9317 19.9659,5.2257 19.7491,5.4426 19.5323,5.6594 19.2382,5.7813 18.9315,5.7813 L 7.7082,5.7813 C 6.3793,5.7813 5.1049,6.3091 4.1653,7.2488 3.2256,8.1884 2.6978,9.4628 2.6978,10.7917 L 2.6978,26.2083 C 2.6978,27.5372 3.2256,28.8116 4.1653,29.7512 5.1049,30.6909 6.3793,31.2188 7.7082,31.2188 L 26.2082,31.2188 C 27.537,31.2188 28.8114,30.6909 29.7511,29.7512 30.6907,28.8116 31.2186,27.5372 31.2186,26.2083 L 31.2186,18.5 C 31.2186,18.1933 31.3404,17.8992 31.5572,17.6824 31.7741,17.4656 32.0682,17.3438 32.3748,17.3438 32.6815,17.3438 32.9756,17.4656 33.1924,17.6824 33.4093,17.8992 33.5311,18.1933 33.5311,18.5 L 33.5311,26.2083 C 33.5311,28.1505 32.7596,30.0131 31.3863,31.3864 30.0129,32.7597 28.1503,33.5312 26.2082,33.5312 L 7.7082,33.5312 C 5.766,33.5312 3.9034,32.7597 2.5301,31.3864 1.1568,30.0131 0.3853,28.1505 0.3853,26.2083 L 0.3853,10.7917 C 0.3853,8.8492 1.1561,6.9868 2.5297,5.6132 Z" />
	<path style="fill-rule:evenodd;fill:#000000;" d="M 28.9062,0.1233 C 29.2129,0.1233 29.507,0.2451 29.7238,0.462 29.9407,0.6788 30.0625,0.9729 30.0625,1.2796 L 30.0625,13.6129 C 30.0625,13.9196 29.9407,14.2137 29.7238,14.4305 29.507,14.6473 29.2129,14.7692 28.9062,14.7692 28.5996,14.7692 28.3055,14.6473 28.0887,14.4305 27.8718,14.2137 27.75,13.9196 27.75,13.6129 L 27.75,1.2796 C 27.75,0.9729 27.8718,0.6788 28.0887,0.462 28.3055,0.2451 28.5996,0.1233 28.9062,0.1233 Z" />
	<path style="fill-rule:evenodd;fill:#000000;" d="M 28.0889,0.4625 C 28.1962,0.355 28.3237,0.2698 28.4641,0.2117 28.6044,0.1535 28.7548,0.1236 28.9067,0.1236 29.0586,0.1236 29.209,0.1535 29.3494,0.2117 29.4897,0.2698 29.6172,0.355 29.7246,0.4625 L 34.6579,5.3958 C 34.8621,5.615 34.9733,5.9049 34.968,6.2045 34.9628,6.504 34.8414,6.7898 34.6296,7.0016 34.4177,7.2135 34.1319,7.3349 33.8324,7.3401 33.5328,7.3454 33.2429,7.2342 33.0237,7.03 L 28.9075,2.9137 24.7912,7.03 C 24.6854,7.1436 24.5577,7.2347 24.4159,7.2979 24.2741,7.3611 24.121,7.3951 23.9657,7.3978 23.8105,7.4005 23.6562,7.372 23.5123,7.3138 23.3683,7.2557 23.2375,7.1691 23.1277,7.0593 23.0179,6.9495 22.9314,6.8188 22.8732,6.6748 22.8151,6.5308 22.7865,6.3766 22.7892,6.2214 22.792,6.0661 22.826,5.913 22.8892,5.7712 22.9524,5.6293 23.0435,5.5017 23.1571,5.3958 L 28.0889,0.4625 Z" />
</g>
</svg>