<svg width="22" height="22" viewBox="0 0 22 22" fill="none" xmlns="http://www.w3.org/2000/svg">
<g clip-path="url(#clip0_173_1210)">
<path d="M13.5861 3.69513L1.48148 15.8007C1.42053 15.8618 1.37708 15.9382 1.35569 16.0218L0.0139577 21.4071C-0.00577574 21.487 -0.00456641 21.5706 0.0174689 21.65C0.0395042 21.7293 0.0816207 21.8016 0.13975 21.8598C0.229037 21.9488 0.349927 21.9988 0.475987 21.9989C0.514874 21.9989 0.553613 21.9941 0.591326 21.9847L5.9766 20.6427C6.06034 20.6217 6.13677 20.5783 6.19772 20.5171L18.3035 8.4124L13.5861 3.69513ZM21.3023 2.04455L19.9549 0.69715C19.0543 -0.203411 17.4847 -0.202518 16.5852 0.69715L14.9346 2.34773L19.6518 7.06482L21.3023 5.41429C21.7521 4.96463 21.9999 4.36609 21.9999 3.72953C21.9999 3.09297 21.7521 2.49443 21.3023 2.04455Z" fill="white"/>
</g>
<defs>
<clipPath id="clip0_173_1210">
<rect width="22" height="22" fill="white"/>
</clipPath>
</defs>
</svg>
