<svg width="24" height="24" viewBox="0 0 24 24" fill="none" xmlns="http://www.w3.org/2000/svg">
<path d="M0.66675 14.6667H3.33325C3.70138 14.6667 4 14.9651 4 15.3333V22C4 22.3681 3.70144 22.6667 3.33325 22.6667H0.66675C0.298625 22.6667 0 22.3682 0 22V15.3333C0 14.9651 0.298563 14.6667 0.66675 14.6667ZM7.33325 9.33325H10C10.3681 9.33325 10.6667 9.63181 10.6667 10V22C10.6667 22.3681 10.3682 22.6667 10 22.6667H7.33325C6.96513 22.6667 6.66675 22.3682 6.66675 22V10C6.66675 9.63188 6.96506 9.33325 7.33325 9.33325ZM14 12H16.6667C17.0349 12 17.3333 12.2986 17.3333 12.6667V22C17.3333 22.3681 17.0349 22.6667 16.6667 22.6667H14C13.6319 22.6667 13.3333 22.3682 13.3333 22V12.6667C13.3333 12.2986 13.6318 12 14 12ZM20.6667 8H23.3333C23.7014 8 24 8.29856 24 8.66675V22C24 22.3681 23.7014 22.6667 23.3333 22.6667H20.6667C20.2986 22.6667 20 22.3682 20 22V8.66675C20 8.29862 20.2986 8 20.6667 8Z" fill="black"/>
<path d="M22 0C20.896 0.00125 20.0012 0.896 20 2C20.0027 2.21775 20.0413 2.43363 20.1143 2.63869L16.7769 4.6225C16.5609 4.3935 16.2936 4.21918 15.997 4.11397C15.7003 4.00876 15.3829 3.97567 15.0709 4.01745C14.759 4.05922 14.4614 4.17465 14.2029 4.3542C13.9444 4.53375 13.7323 4.77226 13.5843 5.05L10.6406 3.59206C10.655 3.50638 10.6636 3.41994 10.6667 3.33325C10.6675 2.93741 10.5508 2.55025 10.3314 2.22079C10.1119 1.89133 9.79969 1.63439 9.43415 1.48251C9.0686 1.33062 8.66621 1.29063 8.27792 1.36758C7.88964 1.44454 7.53292 1.63499 7.25294 1.91481C6.97289 2.19457 6.78219 2.55117 6.70499 2.93941C6.62779 3.32766 6.66758 3.73008 6.81931 4.09569L3.001 6.94531C2.69814 6.76486 2.35254 6.66869 2 6.66675C0.8955 6.66675 0 7.562 0 8.66675C0 9.77125 0.8955 10.6668 2 10.6668C3.1045 10.6668 4 9.77125 4 8.66675C3.9983 8.42619 3.95287 8.18794 3.86594 7.96363L7.72244 5.0855C8.47681 5.50613 9.41775 5.38281 10.0381 4.78175L13.3855 6.43969C13.6086 7.43363 14.5439 8.10056 15.5564 7.98781C16.5689 7.875 17.3345 7.01881 17.3333 6C17.3333 5.94919 17.322 5.90138 17.3184 5.85156L20.9482 3.69363C21.263 3.89263 21.6276 3.99882 22 4C23.1045 4 24 3.1045 24 2C24 0.8955 23.1045 0 22 0Z" fill="black"/>
</svg>
