<svg width="14" height="14" viewBox="0 0 14 14" fill="none" xmlns="http://www.w3.org/2000/svg">
<path d="M12.6729 13.9123C13.0161 13.9323 13.3537 13.8182 13.6144 13.5941C14.1285 13.0768 14.1285 12.2415 13.6144 11.7243L2.3559 0.465737C1.82112 -0.0346705 0.981971 -0.00685316 0.481564 0.527922C0.0290623 1.01152 0.00268555 1.75481 0.419815 2.26924L11.7446 13.5941C12.002 13.8149 12.3341 13.9288 12.6729 13.9123Z" fill="#ED7D2B"/>
<path d="M1.42756 13.9123C1.77544 13.9108 2.10882 13.7727 2.35584 13.5278L13.6144 2.26919C14.0907 1.71293 14.0259 0.875791 13.4697 0.399402C12.9732 -0.0257629 12.241 -0.0257629 11.7446 0.399402L0.419757 11.6579C-0.114887 12.1585 -0.142529 12.9977 0.358008 13.5323C0.377922 13.5536 0.39849 13.5741 0.419757 13.5941C0.556952 13.7134 0.717213 13.8032 0.890583 13.8579C1.06395 13.9127 1.24673 13.9312 1.42756 13.9123Z" fill="#ED7D2B"/>
</svg>
