<svg width="22" height="22" viewBox="0 0 22 22" fill="none" xmlns="http://www.w3.org/2000/svg">
<g clip-path="url(#clip0_160_313)">
<path d="M11.0016 11.4241C14.1445 11.4241 16.7137 8.8549 16.7137 5.71203C16.7137 2.56915 14.1445 0 11.0016 0C7.85876 0 5.28966 2.56915 5.28966 5.71203C5.28966 8.8549 7.85881 11.4241 11.0016 11.4241ZM20.8044 15.9887C20.6547 15.6145 20.4552 15.2653 20.2307 14.941C19.0833 13.2449 17.3124 12.1224 15.3169 11.8481C15.0675 11.8231 14.7931 11.873 14.5935 12.0227C13.5459 12.7959 12.2988 13.195 11.0017 13.195C9.7046 13.195 8.45746 12.7959 7.40983 12.0227C7.21027 11.873 6.93589 11.7982 6.68648 11.8481C4.69101 12.1224 2.89511 13.2449 1.77267 14.941C1.54818 15.2653 1.34861 15.6395 1.19899 15.9887C1.12417 16.1383 1.1491 16.3129 1.22391 16.4626C1.42347 16.8118 1.67288 17.1611 1.89737 17.4604C2.24656 17.9343 2.62073 18.3583 3.04478 18.7574C3.39397 19.1066 3.79306 19.4309 4.19219 19.7551C6.16269 21.2268 8.53232 22 10.9768 22C13.4212 22 15.7908 21.2268 17.7613 19.7551C18.1604 19.4558 18.5595 19.1066 18.9087 18.7574C19.3078 18.3583 19.7069 17.9342 20.0562 17.4604C20.3056 17.1361 20.5301 16.8118 20.7296 16.4626C20.8543 16.3129 20.8792 16.1383 20.8044 15.9887Z" fill="#ED7D2B"/>
</g>
<defs>
<clipPath id="clip0_160_313">
<rect width="22" height="22" fill="white"/>
</clipPath>
</defs>
</svg>
