<svg width="350" height="302" viewBox="0 0 350 302" fill="none" xmlns="http://www.w3.org/2000/svg">
<g clip-path="url(#clip0_63_834)">
<rect width="350" height="461.173" rx="6" fill="#D8D8D8"/>
<mask id="mask0_63_834" style="mask-type:luminance" maskUnits="userSpaceOnUse" x="0" y="0" width="350" height="462">
<rect width="350" height="461.173" rx="6" fill="white"/>
</mask>
<g mask="url(#mask0_63_834)">
<rect width="350" height="302"/>
<path d="M156.864 108.143V218.968H61.6572L60.7505 270.805" stroke="#ED7D2B" stroke-width="4"/>
<path d="M67.725 271.699C67.725 275.924 64.2376 279.424 59.8442 279.424C55.4508 279.424 51.9634 275.924 51.9634 271.699C51.9634 267.473 55.4508 263.974 59.8442 263.974C64.2376 263.974 67.725 267.473 67.725 271.699Z" fill="white" stroke="#14B25C" stroke-width="6"/>
<path d="M164.746 111.718C164.746 115.944 161.259 119.443 156.865 119.443C152.472 119.443 148.984 115.944 148.984 111.718C148.984 107.492 152.472 103.993 156.865 103.993C161.259 103.993 164.746 107.492 164.746 111.718Z" fill="white" stroke="#ED7D2B" stroke-width="6"/>
<g clip-path="url(#clip1_63_834)">
<path fill-rule="evenodd" clip-rule="evenodd" d="M184.627 98.312C181.313 98.312 178.627 100.998 178.627 104.312V109.037L173.187 111.718L178.627 114.399V119.124C178.627 122.438 181.313 125.124 184.627 125.124H235.192C238.505 125.124 241.192 122.438 241.192 119.124V104.312C241.192 100.998 238.505 98.312 235.192 98.312H184.627Z" fill="#ED7D2B"/>
<path d="M184.325 109.306H185.567C185.567 108.369 186.194 107.736 187.149 107.736C188.087 107.736 188.643 108.363 188.643 109.183C188.643 109.869 188.362 110.29 187.29 111.41L184.395 114.421V115.312H190.091V114.193H186.188V114.093L188.052 112.218C189.534 110.73 189.962 110.033 189.962 109.054C189.962 107.665 188.819 106.652 187.231 106.652C185.526 106.652 184.325 107.753 184.325 109.306ZM196.552 115.312H197.817V113.63H198.983V112.517H197.817V106.857H195.948C194.782 108.609 193.54 110.607 192.427 112.517V113.63H196.552V115.312ZM193.686 112.458C194.554 110.976 195.585 109.33 196.493 107.964H196.569V112.54H193.686V112.458ZM205.864 115.312H207.124V111.404C207.124 110.572 207.704 109.921 208.472 109.921C209.222 109.921 209.702 110.373 209.702 111.099V115.312H210.938V111.287C210.938 110.519 211.472 109.921 212.286 109.921C213.112 109.921 213.522 110.349 213.522 111.228V115.312H214.782V110.923C214.782 109.599 214.032 108.826 212.743 108.826C211.858 108.826 211.126 109.277 210.804 109.962H210.704C210.423 109.277 209.819 108.826 208.946 108.826C208.097 108.826 207.452 109.248 207.171 109.962H207.077V108.949H205.864V115.312ZM218.202 107.812C218.642 107.812 218.999 107.455 218.999 107.021C218.999 106.582 218.642 106.224 218.202 106.224C217.763 106.224 217.405 106.582 217.405 107.021C217.405 107.455 217.763 107.812 218.202 107.812ZM217.575 115.312H218.829V108.949H217.575V115.312ZM221.681 115.312H222.94V111.58C222.94 110.554 223.532 109.921 224.464 109.921C225.395 109.921 225.841 110.437 225.841 111.492V115.312H227.101V111.193C227.101 109.675 226.315 108.826 224.892 108.826C223.931 108.826 223.298 109.253 222.987 109.957H222.893V108.949H221.681V115.312ZM229.729 110.73C229.729 111.673 230.292 112.212 231.505 112.494L232.618 112.757C233.257 112.91 233.556 113.167 233.556 113.566C233.556 114.087 232.999 114.451 232.214 114.451C231.452 114.451 230.983 114.14 230.825 113.642H229.565C229.677 114.749 230.667 115.435 232.185 115.435C233.708 115.435 234.827 114.632 234.827 113.449C234.827 112.523 234.259 112.001 233.046 111.72L231.985 111.474C231.294 111.31 230.972 111.064 230.972 110.671C230.972 110.156 231.505 109.81 232.208 109.81C232.923 109.81 233.38 110.121 233.497 110.595H234.704C234.581 109.494 233.643 108.826 232.208 108.826C230.767 108.826 229.729 109.623 229.729 110.73Z" fill="white"/>
</g>
</g>
</g>
<defs>
<clipPath id="clip0_63_834">
<rect width="350" height="302" rx="10" fill="white"/>
</clipPath>
<clipPath id="clip1_63_834">
<rect width="68.0052" height="26.8124" fill="white" transform="translate(173.187 98.312)"/>
</clipPath>
</defs>
</svg>
