<svg width="350" height="302" viewBox="0 0 350 302" fill="none" xmlns="http://www.w3.org/2000/svg">
<g clip-path="url(#clip0_138_298)">
<rect width="350" height="461.173" rx="6" fill="#D8D8D8"/>
<mask id="mask0_138_298" style="mask-type:luminance" maskUnits="userSpaceOnUse" x="0" y="0" width="350" height="462">
<rect width="350" height="461.173" rx="6" fill="white"/>
</mask>
<g mask="url(#mask0_138_298)">
<rect width="350" height="302"/>
<rect x="231" y="258" width="109" height="34" rx="17" fill="#ED7D2B"/>
<path d="M260.436 270.27L256.782 280H254.934L251.266 270.27H252.974L255.858 278.362L258.756 270.27H260.436ZM262.583 271.264C262.293 271.264 262.051 271.166 261.855 270.97C261.659 270.774 261.561 270.531 261.561 270.242C261.561 269.953 261.659 269.71 261.855 269.514C262.051 269.318 262.293 269.22 262.583 269.22C262.863 269.22 263.101 269.318 263.297 269.514C263.493 269.71 263.591 269.953 263.591 270.242C263.591 270.531 263.493 270.774 263.297 270.97C263.101 271.166 262.863 271.264 262.583 271.264ZM263.367 272.286V280H261.771V272.286H263.367ZM272.532 275.954C272.532 276.243 272.513 276.505 272.476 276.738H266.582C266.629 277.354 266.857 277.849 267.268 278.222C267.679 278.595 268.183 278.782 268.78 278.782C269.639 278.782 270.245 278.423 270.6 277.704H272.322C272.089 278.413 271.664 278.997 271.048 279.454C270.441 279.902 269.685 280.126 268.78 280.126C268.043 280.126 267.38 279.963 266.792 279.636C266.213 279.3 265.756 278.833 265.42 278.236C265.093 277.629 264.93 276.929 264.93 276.136C264.93 275.343 265.089 274.647 265.406 274.05C265.733 273.443 266.185 272.977 266.764 272.65C267.352 272.323 268.024 272.16 268.78 272.16C269.508 272.16 270.157 272.319 270.726 272.636C271.295 272.953 271.739 273.401 272.056 273.98C272.373 274.549 272.532 275.207 272.532 275.954ZM270.866 275.45C270.857 274.862 270.647 274.391 270.236 274.036C269.825 273.681 269.317 273.504 268.71 273.504C268.159 273.504 267.688 273.681 267.296 274.036C266.904 274.381 266.671 274.853 266.596 275.45H270.866ZM284.463 272.286L282.069 280H280.389L278.835 274.302L277.281 280H275.601L273.193 272.286H274.817L276.427 278.488L278.065 272.286H279.731L281.299 278.46L282.895 272.286H284.463ZM299.54 270.27V280H297.944V273.336L294.976 280H293.87L290.888 273.336V280H289.292V270.27H291.014L294.43 277.9L297.832 270.27H299.54ZM301.106 276.108C301.106 275.333 301.265 274.647 301.582 274.05C301.909 273.453 302.347 272.991 302.898 272.664C303.458 272.328 304.074 272.16 304.746 272.16C305.353 272.16 305.88 272.281 306.328 272.524C306.785 272.757 307.149 273.051 307.42 273.406V272.286H309.03V280H307.42V278.852C307.149 279.216 306.781 279.519 306.314 279.762C305.847 280.005 305.315 280.126 304.718 280.126C304.055 280.126 303.449 279.958 302.898 279.622C302.347 279.277 301.909 278.801 301.582 278.194C301.265 277.578 301.106 276.883 301.106 276.108ZM307.42 276.136C307.42 275.604 307.308 275.142 307.084 274.75C306.869 274.358 306.585 274.059 306.23 273.854C305.875 273.649 305.493 273.546 305.082 273.546C304.671 273.546 304.289 273.649 303.934 273.854C303.579 274.05 303.29 274.344 303.066 274.736C302.851 275.119 302.744 275.576 302.744 276.108C302.744 276.64 302.851 277.107 303.066 277.508C303.29 277.909 303.579 278.217 303.934 278.432C304.298 278.637 304.681 278.74 305.082 278.74C305.493 278.74 305.875 278.637 306.23 278.432C306.585 278.227 306.869 277.928 307.084 277.536C307.308 277.135 307.42 276.668 307.42 276.136ZM312.722 273.42C312.993 273.065 313.362 272.767 313.828 272.524C314.295 272.281 314.822 272.16 315.41 272.16C316.082 272.16 316.694 272.328 317.244 272.664C317.804 272.991 318.243 273.453 318.56 274.05C318.878 274.647 319.036 275.333 319.036 276.108C319.036 276.883 318.878 277.578 318.56 278.194C318.243 278.801 317.804 279.277 317.244 279.622C316.694 279.958 316.082 280.126 315.41 280.126C314.822 280.126 314.3 280.009 313.842 279.776C313.385 279.533 313.012 279.235 312.722 278.88V283.668H311.126V272.286H312.722V273.42ZM317.412 276.108C317.412 275.576 317.3 275.119 317.076 274.736C316.862 274.344 316.572 274.05 316.208 273.854C315.854 273.649 315.471 273.546 315.06 273.546C314.659 273.546 314.276 273.649 313.912 273.854C313.558 274.059 313.268 274.358 313.044 274.75C312.83 275.142 312.722 275.604 312.722 276.136C312.722 276.668 312.83 277.135 313.044 277.536C313.268 277.928 313.558 278.227 313.912 278.432C314.276 278.637 314.659 278.74 315.06 278.74C315.471 278.74 315.854 278.637 316.208 278.432C316.572 278.217 316.862 277.909 317.076 277.508C317.3 277.107 317.412 276.64 317.412 276.108Z" fill="white"/>
<path d="M156.866 108.143V218.968H61.6587L60.752 270.805" stroke="#ED7D2B" stroke-width="4"/>
<path d="M67.7265 271.699C67.7265 275.924 64.2391 279.424 59.8457 279.424C55.4523 279.424 51.9648 275.924 51.9648 271.699C51.9648 267.473 55.4523 263.974 59.8457 263.974C64.2391 263.974 67.7265 267.473 67.7265 271.699Z" fill="white" stroke="#14B25C" stroke-width="6"/>
<path d="M164.748 111.718C164.748 115.944 161.261 119.443 156.867 119.443C152.474 119.443 148.986 115.944 148.986 111.718C148.986 107.492 152.474 103.993 156.867 103.993C161.261 103.993 164.748 107.492 164.748 111.718Z" fill="white" stroke="#ED7D2B" stroke-width="6"/>
<g clip-path="url(#clip1_138_298)">
<path fill-rule="evenodd" clip-rule="evenodd" d="M184.627 98.312C181.313 98.312 178.627 100.998 178.627 104.312V109.037L173.188 111.718L178.627 114.399V119.124C178.627 122.438 181.313 125.124 184.627 125.124H235.192C238.505 125.124 241.192 122.438 241.192 119.124V104.312C241.192 100.998 238.505 98.312 235.192 98.312H184.627Z" fill="#ED7D2B"/>
<path d="M184.325 109.306H185.567C185.567 108.369 186.194 107.736 187.149 107.736C188.087 107.736 188.643 108.363 188.643 109.183C188.643 109.869 188.362 110.29 187.29 111.41L184.395 114.421V115.312H190.091V114.193H186.188V114.093L188.052 112.218C189.534 110.73 189.962 110.033 189.962 109.054C189.962 107.665 188.819 106.652 187.231 106.652C185.526 106.652 184.325 107.753 184.325 109.306ZM196.552 115.312H197.817V113.63H198.983V112.517H197.817V106.857H195.948C194.782 108.609 193.54 110.607 192.427 112.517V113.63H196.552V115.312ZM193.686 112.458C194.554 110.976 195.585 109.33 196.493 107.964H196.569V112.54H193.686V112.458ZM205.864 115.312H207.124V111.404C207.124 110.572 207.704 109.921 208.472 109.921C209.222 109.921 209.702 110.373 209.702 111.099V115.312H210.938V111.287C210.938 110.519 211.472 109.921 212.286 109.921C213.112 109.921 213.522 110.349 213.522 111.228V115.312H214.782V110.923C214.782 109.599 214.032 108.826 212.743 108.826C211.858 108.826 211.126 109.277 210.804 109.962H210.704C210.423 109.277 209.819 108.826 208.946 108.826C208.097 108.826 207.452 109.248 207.171 109.962H207.077V108.949H205.864V115.312ZM218.202 107.812C218.642 107.812 218.999 107.455 218.999 107.021C218.999 106.582 218.642 106.224 218.202 106.224C217.763 106.224 217.405 106.582 217.405 107.021C217.405 107.455 217.763 107.812 218.202 107.812ZM217.575 115.312H218.829V108.949H217.575V115.312ZM221.681 115.312H222.94V111.58C222.94 110.554 223.532 109.921 224.464 109.921C225.395 109.921 225.841 110.437 225.841 111.492V115.312H227.101V111.193C227.101 109.675 226.315 108.826 224.892 108.826C223.931 108.826 223.298 109.253 222.987 109.957H222.893V108.949H221.681V115.312ZM229.729 110.73C229.729 111.673 230.292 112.212 231.505 112.494L232.618 112.757C233.257 112.91 233.556 113.167 233.556 113.566C233.556 114.087 232.999 114.451 232.214 114.451C231.452 114.451 230.983 114.14 230.825 113.642H229.565C229.677 114.749 230.667 115.435 232.185 115.435C233.708 115.435 234.827 114.632 234.827 113.449C234.827 112.523 234.259 112.001 233.046 111.72L231.985 111.474C231.294 111.31 230.972 111.064 230.972 110.671C230.972 110.156 231.505 109.81 232.208 109.81C232.923 109.81 233.38 110.121 233.497 110.595H234.704C234.581 109.494 233.643 108.826 232.208 108.826C230.767 108.826 229.729 109.623 229.729 110.73Z" fill="white"/>
</g>
</g>
</g>
<defs>
<clipPath id="clip0_138_298">
<rect width="350" height="302" rx="10" fill="white"/>
</clipPath>
<clipPath id="clip1_138_298">
<rect width="68.0052" height="26.8124" fill="white" transform="translate(173.188 98.312)"/>
</clipPath>
</defs>
</svg>
