<svg width="21" height="21" viewBox="0 0 21 21" fill="none" xmlns="http://www.w3.org/2000/svg">
<g clip-path="url(#clip0_67_1526)">
<path d="M19.9959 8.93825L19.9945 8.93684L11.6118 0.554408C11.2544 0.196871 10.7794 0 10.2741 0C9.76877 0 9.29371 0.19675 8.93625 0.554248L0.557832 8.93243C0.555022 8.93524 0.552212 8.93821 0.549403 8.94106C-0.184377 9.67901 -0.183092 10.8764 0.553015 11.6125C0.889281 11.9489 1.33347 12.1438 1.80837 12.1642C1.82764 12.1661 1.8471 12.167 1.86669 12.167H2.20079V18.336C2.20079 19.5568 3.19401 20.55 4.41505 20.55H7.69462C8.02703 20.55 8.29667 20.2805 8.29667 19.9479V15.1115C8.29667 14.5544 8.74982 14.1013 9.30687 14.1013H11.2413C11.7984 14.1013 12.2514 14.5545 12.2514 15.1115V19.9479C12.2514 20.2805 12.5209 20.55 12.8535 20.55H16.1331C17.3541 20.55 18.3473 19.5568 18.3473 18.3361V12.167H18.6572C19.1623 12.167 19.6374 11.9703 19.995 11.6128C20.7319 10.8755 20.7322 9.67608 19.9959 8.93825Z" fill="#ED7D2B"/>
</g>
<defs>
<clipPath id="clip0_67_1526">
<rect width="20.55" height="20.55" fill="white"/>
</clipPath>
</defs>
</svg>
