<svg width="21" height="21" viewBox="0 0 21 21" fill="none" xmlns="http://www.w3.org/2000/svg">
<g clip-path="url(#clip0_67_1595)">
<path d="M20.5501 3.05794V10.8307C20.5501 11.1644 20.2795 11.435 19.9456 11.435H19.0107V5.30479C19.0107 4.58012 18.4234 3.9928 17.6988 3.9928H9.74794C9.7086 3.9928 9.67268 3.97056 9.6553 3.93512L8.83495 2.27134C8.61199 1.81964 8.16125 1.53964 7.65798 1.53964H5.49609V0.604379C5.49613 0.270602 5.76674 0 6.10051 0H10.406C10.446 0 10.4814 0.0220752 10.4986 0.0576765L11.3191 1.72178C11.5418 2.17304 11.9928 2.45348 12.4961 2.45348H19.9456C20.2794 2.45348 20.55 2.72412 20.55 3.05794H20.5501Z" fill="#ED7D2B"/>
<path d="M17.8018 5.30479V13.5787C17.8018 13.9126 17.5312 14.1832 17.1975 14.1832H16.2627V8.05271C16.2627 7.32825 15.6752 6.74076 14.9507 6.74076H6.99989C6.96039 6.74076 6.92447 6.71869 6.90725 6.68325L6.08678 5.01946C5.86041 4.56086 5.40542 4.28777 4.90981 4.28777H2.74805V3.35278C2.74805 3.01901 3.01869 2.74841 3.35251 2.74841H7.65793C7.69775 2.74841 7.73319 2.7702 7.75057 2.8056L8.57088 4.46971C8.79384 4.92109 9.24458 5.2016 9.74785 5.2016H17.6987C17.726 5.20168 17.7522 5.21257 17.7716 5.2319C17.7909 5.25122 17.8018 5.27746 17.8018 5.30479Z" fill="#ED7D2B"/>
<path d="M14.9508 7.9496H6.99992C6.49665 7.9496 6.04575 7.66925 5.82295 7.21787C5.40955 6.37893 5.59157 6.74891 5.00252 5.55408C4.99413 5.53668 4.98096 5.52202 4.96455 5.51183C4.94814 5.50163 4.92916 5.49633 4.90984 5.49653H0.604379C0.270642 5.49653 0 5.76717 0 6.10094V16.3272C0 16.661 0.270602 16.9316 0.604419 16.9316H14.4495C14.7833 16.9316 15.0539 16.661 15.0539 16.3272V8.05275C15.0538 8.02542 15.043 7.99922 15.0236 7.9799C15.0043 7.96057 14.9781 7.94968 14.9508 7.9496ZM11.4032 14.9725C11.4032 15.3077 11.1302 15.5769 10.7989 15.5769C10.4681 15.5769 10.1944 15.308 10.1944 14.9725V14.5792C10.1944 14.2471 10.464 13.9747 10.7989 13.9747C11.1333 13.9747 11.4032 14.2471 11.4032 14.5792V14.9725ZM13.385 14.9725C13.385 15.3077 13.1117 15.5769 12.7806 15.5769C12.4478 15.5769 12.176 15.3069 12.176 14.9725V14.5792C12.176 14.2468 12.4457 13.9747 12.7806 13.9747C13.115 13.9747 13.385 14.2471 13.385 14.5792V14.9725Z" fill="#ED7D2B"/>
</g>
<defs>
<clipPath id="clip0_67_1595">
<rect width="20.55" height="20.55" fill="white"/>
</clipPath>
</defs>
</svg>
