<svg width="21" height="21" viewBox="0 0 21 21" fill="none" xmlns="http://www.w3.org/2000/svg">
<g clip-path="url(#clip0_67_1604)">
<path d="M0.570905 12.5584H2.8541C3.1693 12.5584 3.425 12.8138 3.425 13.1291V18.8375C3.425 19.1527 3.16936 19.4084 2.8541 19.4084H0.570905C0.255698 19.4084 0 19.1528 0 18.8375V13.1291C0 12.8139 0.255644 12.5584 0.570905 12.5584ZM6.2791 7.99159H8.5625C8.87771 7.99159 9.1334 8.24724 9.1334 8.5625V18.8375C9.1334 19.1527 8.87776 19.4084 8.5625 19.4084H6.2791C5.96389 19.4084 5.7084 19.1528 5.7084 18.8375V8.5625C5.7084 8.24729 5.96383 7.99159 6.2791 7.99159ZM11.9875 10.275H14.2709C14.5861 10.275 14.8416 10.5306 14.8416 10.8459V18.8375C14.8416 19.1527 14.5862 19.4084 14.2709 19.4084H11.9875C11.6723 19.4084 11.4166 19.1528 11.4166 18.8375V10.8459C11.4166 10.5307 11.6722 10.275 11.9875 10.275ZM17.6959 6.85H19.9791C20.2943 6.85 20.55 7.10564 20.55 7.4209V18.8375C20.55 19.1527 20.2944 19.4084 19.9791 19.4084H17.6959C17.3807 19.4084 17.125 19.1528 17.125 18.8375V7.4209C17.125 7.1057 17.3806 6.85 17.6959 6.85Z" fill="#ED7D2B"/>
<path d="M18.8375 0C17.8922 0.00107031 17.1261 0.7672 17.125 1.7125C17.1273 1.89895 17.1603 2.08379 17.2228 2.25938L14.3652 3.95802C14.1803 3.76193 13.9514 3.61268 13.6974 3.52259C13.4434 3.4325 13.1716 3.40417 12.9045 3.43994C12.6374 3.4757 12.3826 3.57454 12.1612 3.72828C11.9399 3.88202 11.7583 4.08624 11.6315 4.32406L9.11104 3.0757C9.12334 3.00233 9.13068 2.92832 9.1334 2.8541C9.13405 2.51516 9.03411 2.18365 8.84623 1.90155C8.65835 1.61945 8.39098 1.39944 8.07799 1.26939C7.76499 1.13935 7.42044 1.1051 7.08797 1.17099C6.7555 1.23689 6.45006 1.39996 6.21033 1.63956C5.97054 1.8791 5.80725 2.18444 5.74115 2.51687C5.67505 2.8493 5.70912 3.19388 5.83904 3.50693L2.56961 5.94692C2.31028 5.79241 2.01436 5.71006 1.7125 5.7084C0.766772 5.7084 0 6.47496 0 7.4209C0 8.36663 0.766772 9.1334 1.7125 9.1334C2.65823 9.1334 3.425 8.36663 3.425 7.4209C3.42354 7.21492 3.38464 7.01092 3.31021 6.81885L6.61234 4.35446C7.25827 4.71462 8.06395 4.60903 8.59509 4.09437L11.4613 5.51398C11.6524 6.36504 12.4532 6.93611 13.3201 6.83956C14.1871 6.74297 14.8427 6.00986 14.8416 5.1375C14.8416 5.09399 14.832 5.05305 14.8289 5.0104L17.9369 3.16267C18.2065 3.33306 18.5186 3.42399 18.8375 3.425C19.7832 3.425 20.55 2.65823 20.55 1.7125C20.55 0.766772 19.7832 0 18.8375 0Z" fill="#ED7D2B"/>
</g>
<defs>
<clipPath id="clip0_67_1604">
<rect width="20.55" height="20.55" fill="white"/>
</clipPath>
</defs>
</svg>
