<svg width="21" height="21" viewBox="0 0 21 21" fill="none" xmlns="http://www.w3.org/2000/svg">
<g clip-path="url(#clip0_67_1586)">
<path d="M20.3736 13.7586L18.4265 11.8113L14.3986 15.8393C13.6796 16.5583 12.7771 17.0271 11.7969 17.2025L14.3633 19.7689C14.5983 20.0041 14.9796 20.0041 15.2146 19.7689L20.3736 14.6101C20.6088 14.3749 20.6088 13.9936 20.3736 13.7586ZM17.6333 10.9017C18.3121 10.2231 18.3122 9.11886 17.6343 8.43983L17.6319 8.4375C17.4672 8.27237 17.2709 8.14205 17.0548 8.05431C17.2398 7.58632 17.2789 6.79486 16.666 6.18186C16.6644 6.18025 16.6628 6.17852 16.6612 6.17696C16.4971 6.01349 16.302 5.88441 16.0874 5.79727C16.2725 5.32955 16.3116 4.53794 15.6991 3.92525L15.698 3.92417C15.5301 3.75623 15.334 3.62675 15.1203 3.54034C15.3053 3.07234 15.3443 2.28073 14.7314 1.66772C14.7313 1.66772 14.7313 1.66756 14.7311 1.66756L14.7307 1.66708C14.0516 0.988044 12.9469 0.988044 12.2679 1.66708L11.1263 2.80849L11.71 3.39219C12.6827 4.36487 12.6827 5.94746 11.7102 6.92013C11.3829 7.24733 10.9807 7.47217 10.5423 7.57926C10.4343 8.02078 10.2069 8.42409 9.88507 8.74511C9.5582 9.07198 9.15667 9.29667 8.71878 9.40391C8.61169 9.84164 8.38685 10.2433 8.06013 10.5701C7.73322 10.897 7.33169 11.1216 6.89376 11.2289C6.78672 11.6666 6.56187 12.0683 6.23512 12.3952C5.76399 12.8662 5.1375 13.1258 4.47115 13.1258C3.80484 13.1258 3.17835 12.8663 2.70718 12.395L2.12347 11.8113L0.176401 13.7586C-0.0588003 13.9938 -0.0588003 14.3749 0.176401 14.6101L5.33517 19.7689C5.57037 20.0041 5.95151 20.0039 6.18671 19.7689L9.87957 16.0762H10.92C11.9125 16.0762 12.8455 15.6895 13.5472 14.9879L17.6333 10.9017Z" fill="#ED7D2B"/>
<path d="M3.55874 11.5437C4.06265 12.0478 4.8798 12.0478 5.38371 11.5437C5.88775 11.0398 5.88775 10.2228 5.38371 9.71871C5.88775 10.2228 6.70477 10.2228 7.20881 9.71871C7.71273 9.21483 7.71273 8.39769 7.20881 7.89377C7.71273 8.39769 8.52991 8.39769 9.03383 7.89377C9.5377 7.38985 9.5377 6.57271 9.03383 6.06879C9.5377 6.57271 10.3548 6.57271 10.8588 6.06879C11.3628 5.56476 11.3628 4.74773 10.8588 4.24366L8.2856 1.67053C7.78172 1.16661 6.96458 1.16661 6.46066 1.67053C5.95675 2.17445 5.95675 2.99159 6.46066 3.49551L6.783 3.81801C6.27908 3.31393 5.46194 3.31393 4.95802 3.81801C4.45415 4.32192 4.45415 5.13906 4.95802 5.64298L5.6029 6.28782C5.09898 5.7839 4.28184 5.7839 3.77792 6.28782C3.27385 6.79173 3.27385 7.60888 3.77792 8.11279L4.42276 8.75779C3.91872 8.25375 3.1017 8.25375 2.59766 8.75779C2.09375 9.26171 2.09375 10.0787 2.59766 10.5828L3.55874 11.5437ZM11.4165 0.815578C11.5049 0.727463 11.5989 0.644994 11.6977 0.568657L11.3456 0.216537C11.2562 0.127198 11.1411 0.0682227 11.0164 0.04796C10.8916 0.0276974 10.7637 0.047174 10.6507 0.103633L9.16471 0.846644L10.2751 1.95715L11.4165 0.815578Z" fill="#ED7D2B"/>
</g>
<defs>
<clipPath id="clip0_67_1586">
<rect width="20.55" height="20.55" fill="white"/>
</clipPath>
</defs>
</svg>
