<svg width="17" height="17" viewBox="0 0 17 17" fill="none" xmlns="http://www.w3.org/2000/svg">
<g clip-path="url(#clip0_67_1516)">
<path d="M1.61152 16.8935C1.19474 16.9177 0.784846 16.7792 0.468255 16.5071C-0.156085 15.879 -0.156085 14.8646 0.468255 14.2366L14.1393 0.565525C14.7886 -0.0421124 15.8076 -0.00833423 16.4152 0.641035C16.9647 1.22826 16.9967 2.13083 16.4902 2.75549L2.73866 16.5071C2.42619 16.7753 2.02283 16.9136 1.61152 16.8935Z" fill="black"/>
<path d="M15.2665 16.8935C14.8441 16.8917 14.4393 16.724 14.1393 16.4266L0.468248 2.75544C-0.110172 2.07998 -0.0315325 1.06345 0.643926 0.484982C1.24679 -0.0312896 2.1359 -0.0312896 2.73871 0.484982L16.4903 14.1561C17.1395 14.7638 17.173 15.7829 16.5652 16.4321C16.5411 16.4579 16.5161 16.4829 16.4903 16.5071C16.3237 16.6519 16.1291 16.761 15.9186 16.8275C15.708 16.8939 15.4861 16.9164 15.2665 16.8935Z" fill="black"/>
</g>
<defs>
<clipPath id="clip0_67_1516">
<rect width="17" height="17" fill="white"/>
</clipPath>
</defs>
</svg>
