<svg width="21" height="21" viewBox="0 0 21 21" fill="none" xmlns="http://www.w3.org/2000/svg">
<g clip-path="url(#clip0_67_1553)">
<path d="M7.70618 11.1313C8.17967 11.1313 8.56237 11.515 8.56237 11.9875V15.4126C8.56237 15.8844 8.94603 16.2688 9.41872 16.2688H11.9874V3.42517C11.9874 2.69392 12.4532 2.04062 13.1536 1.79744L13.4071 1.71263H9.41872C8.94603 1.71263 8.56237 2.09706 8.56237 2.56898V5.1377C8.56237 5.61023 8.17967 5.99389 7.70618 5.99389C7.23269 5.99389 6.84999 5.61023 6.84999 5.1377V2.56898C6.84999 1.15277 8.00251 0.000253759 9.41872 0.000253759H18.6233C18.6559 0.000253759 18.6831 0.0148232 18.7148 0.0190777C18.7561 0.015626 18.7954 0.000213623 18.8373 0.000213623C19.7817 0.000253759 20.5498 0.768222 20.5498 1.71267V17.125C20.5498 17.8563 20.084 18.5096 19.3836 18.7527L14.2307 20.4704C14.0561 20.5243 13.8824 20.5501 13.6999 20.5501C12.7554 20.5501 11.9875 19.782 11.9875 18.8375V17.9813H9.41876C8.00255 17.9813 6.85003 16.8288 6.85003 15.4126V11.9875C6.85003 11.515 7.23273 11.1313 7.70622 11.1313H7.70618Z" fill="#ED7D2B"/>
<path d="M0.251086 7.95729L3.67616 4.53238C3.79586 4.41255 3.94842 4.33092 4.11453 4.29782C4.28064 4.26472 4.45284 4.28163 4.60933 4.34643C4.92869 4.47924 5.13768 4.7917 5.13768 5.13771V7.70644H8.5626C9.03528 7.70644 9.41895 8.08994 9.41895 8.56263C9.41895 9.03531 9.03528 9.41881 8.5626 9.41881H5.13768V11.9875C5.13768 12.3336 4.92869 12.646 4.60933 12.7788C4.45284 12.8436 4.28066 12.8605 4.11456 12.8275C3.94845 12.7944 3.79589 12.7128 3.67616 12.593L0.251086 9.16796C-0.0836506 8.83323 -0.0836506 8.29203 0.251086 7.95729Z" fill="#ED7D2B"/>
</g>
<defs>
<clipPath id="clip0_67_1553">
<rect width="20.55" height="20.55" fill="white" transform="matrix(-1 0 0 1 20.5498 0)"/>
</clipPath>
</defs>
</svg>
