<svg width="21" height="22" viewBox="0 0 21 22" fill="none" xmlns="http://www.w3.org/2000/svg">
<g clip-path="url(#clip0_67_1531)">
<path d="M5.15271 11.4899H4.23113C4.11293 11.4899 3.99731 11.5246 3.89857 11.5895C3.79982 11.6545 3.72227 11.747 3.67548 11.8555L1.12431 17.7959L7.18307 14.7015C6.4578 13.6979 5.74015 12.591 5.15271 11.4899ZM16.8744 11.8555C16.8276 11.747 16.7501 11.6545 16.6514 11.5895C16.5526 11.5246 16.4371 11.4899 16.3189 11.4899H15.3973C14.2879 13.5689 12.6716 15.7173 11.6434 16.8993C10.9203 17.7287 9.62872 17.7277 8.90674 16.8993C8.83289 16.8145 8.44737 16.3681 7.91633 15.6817L6.82405 16.2398L10.9559 20.3637L18.7851 16.3049L16.8744 11.8555ZM0.378931 19.532L0.049409 20.2994C-0.121212 20.6966 0.170983 21.1401 0.604861 21.1401H9.47708C9.53259 21.0989 9.53323 21.1014 9.83109 20.947L5.69315 16.8176L0.378931 19.532ZM20.5006 20.2995L19.2627 17.4168L12.0807 21.1401H19.9451C20.378 21.1401 20.6715 20.6974 20.5006 20.2995ZM10.8794 6.02159C10.8794 5.6889 10.6082 5.41846 10.275 5.41846C9.94167 5.41846 9.67058 5.6889 9.67058 6.02159C9.67058 6.35412 9.94167 6.62477 10.275 6.62477C10.6081 6.62477 10.8794 6.35412 10.8794 6.02159Z" fill="#ED7D2B"/>
<path d="M10.731 16.0675C10.9345 15.8339 15.7143 10.3048 15.7143 6.50404C15.7143 -1.33329 4.83545 -1.42894 4.83545 6.50404C4.83545 10.3048 9.61533 15.8339 9.81882 16.0675C10.0598 16.344 10.4905 16.3437 10.731 16.0675ZM8.46168 6.0216C8.46168 5.0238 9.27509 4.21216 10.2749 4.21216C11.2745 4.21216 12.088 5.02384 12.088 6.0216C12.088 7.01924 11.2745 7.83088 10.2749 7.83088C9.27509 7.83088 8.46168 7.01924 8.46168 6.0216Z" fill="#ED7D2B"/>
</g>
<defs>
<clipPath id="clip0_67_1531">
<rect width="20.55" height="20.55" fill="white" transform="translate(0 0.550003)"/>
</clipPath>
</defs>
</svg>
