<svg width="21" height="21" viewBox="0 0 21 21" fill="none" xmlns="http://www.w3.org/2000/svg">
<g clip-path="url(#clip0_67_1537)">
<path d="M13.7765 2.39445C12.9457 2.39445 12.2698 3.07036 12.2698 3.90115V13.829C12.2698 14.6598 12.9457 15.3357 13.7765 15.3357C14.6074 15.3357 15.2832 14.6598 15.2832 13.829V3.90115C15.2832 3.07036 14.6073 2.39445 13.7765 2.39445ZM2.40226 5.90642V6.594H0.602051C0.269558 6.594 0 6.86356 0 7.19605V10.3769C0 10.7094 0.269558 10.979 0.602051 10.979H2.40226V11.8237C2.40226 11.9619 2.44982 12.0959 2.53693 12.2032C2.62405 12.3105 2.74543 12.3846 2.88069 12.4129L4.1287 12.6748V16.9411C4.1287 17.601 4.57743 18.1671 5.21994 18.3177C5.32811 18.3431 5.43724 18.3555 5.54541 18.3555C5.86036 18.3555 6.16761 18.25 6.42095 18.0491C6.76131 17.7793 6.95654 17.3754 6.95654 16.9411V16.1571H6.9766C8.37184 16.1571 9.54303 15.1793 9.84096 13.873L11.0657 14.1299V3.60016L2.88069 5.31717C2.74543 5.34556 2.62405 5.41961 2.53693 5.52691C2.44982 5.63421 2.40226 5.76821 2.40226 5.90642ZM6.95658 13.268L8.66211 13.6258C8.47876 14.3863 7.79266 14.953 6.97664 14.953H6.95658V13.268ZM17.9128 4.87422C18.0478 4.87422 18.1837 4.82903 18.2959 4.73631L19.5061 3.73659C19.7624 3.52483 19.7986 3.14533 19.5868 2.88898C19.375 2.63263 18.9955 2.59646 18.7392 2.80826L17.529 3.80799C17.2726 4.01975 17.2365 4.39924 17.4483 4.6556C17.5047 4.72409 17.5757 4.77921 17.656 4.81701C17.7363 4.85481 17.824 4.87435 17.9128 4.87422ZM19.5061 13.9936L18.2959 12.9938C18.0396 12.7821 17.6601 12.8182 17.4483 13.0746C17.2365 13.3309 17.2727 13.7104 17.529 13.9222L18.7392 14.9219C18.8469 15.0111 18.9824 15.0599 19.1223 15.0598C19.2956 15.0598 19.4678 14.9853 19.5868 14.8412C19.7986 14.5848 19.7624 14.2053 19.5061 13.9936ZM19.9479 8.26301H17.3934C17.0609 8.26301 16.7913 8.53256 16.7913 8.86506C16.7913 9.19755 17.0609 9.46711 17.3934 9.46711H19.9479C20.2804 9.46711 20.55 9.19755 20.55 8.86506C20.55 8.53256 20.2804 8.26301 19.9479 8.26301Z" fill="#ED7D2B"/>
</g>
<defs>
<clipPath id="clip0_67_1537">
<rect width="20.55" height="20.55" fill="white" transform="translate(0 0.100006)"/>
</clipPath>
</defs>
</svg>
