<svg width="21" height="21" viewBox="0 0 21 21" fill="none" xmlns="http://www.w3.org/2000/svg">
<path d="M18.7582 7.6035C18.3835 7.54907 18.0259 7.4108 17.712 7.199C17.3981 6.98719 17.136 6.70731 16.9453 6.38019C16.7546 6.05306 16.6401 5.68713 16.6105 5.30964C16.5808 4.93215 16.6366 4.55282 16.7739 4.1999C16.8611 3.96918 16.8739 3.71694 16.8106 3.47855C16.7473 3.24016 16.6109 3.02756 16.4206 2.87057C15.5807 2.16524 14.6246 1.61114 13.595 1.233C13.3606 1.1459 13.1046 1.13502 12.8636 1.2019C12.6226 1.26878 12.4089 1.41001 12.2529 1.60547C12.018 1.90579 11.7178 2.14868 11.3751 2.31573C11.0324 2.48278 10.6562 2.5696 10.2749 2.5696C9.89366 2.5696 9.51742 2.48278 9.17471 2.31573C8.83201 2.14868 8.53184 1.90579 8.29698 1.60547C8.14094 1.41001 7.9272 1.26878 7.6862 1.2019C7.44521 1.13502 7.18926 1.1459 6.95481 1.233C6.00415 1.58212 5.11532 2.08073 4.32184 2.71003C4.12182 2.86837 3.97776 3.08659 3.91073 3.33273C3.84371 3.57887 3.85725 3.84 3.94937 4.07789C4.09756 4.44014 4.15878 4.83208 4.12814 5.22226C4.09749 5.61245 3.97582 5.99003 3.7729 6.3247C3.56997 6.65937 3.29143 6.94183 2.95963 7.14941C2.62782 7.35699 2.25198 7.48392 1.86226 7.52001C1.60924 7.54706 1.3716 7.65464 1.18431 7.8269C0.997022 7.99916 0.86999 8.22699 0.821916 8.47687C0.702339 9.06878 0.642104 9.67113 0.642104 10.275C0.641225 10.7805 0.682035 11.2853 0.764119 11.7841C0.804972 12.042 0.929641 12.2793 1.11885 12.4592C1.30806 12.6391 1.55127 12.7517 1.81088 12.7795C2.20917 12.8169 2.5927 12.9491 2.92939 13.1652C3.26607 13.3812 3.54611 13.6747 3.74607 14.0212C3.94603 14.3677 4.06009 14.757 4.0787 15.1566C4.09731 15.5562 4.01993 15.9544 3.85304 16.318C3.74382 16.5545 3.71673 16.8206 3.77607 17.0743C3.8354 17.3279 3.97777 17.5545 4.18056 17.7179C5.01547 18.4105 5.96235 18.9556 6.98049 19.3298C7.11069 19.3749 7.2473 19.3988 7.38507 19.4005C7.57398 19.4001 7.76005 19.3544 7.92765 19.2672C8.09526 19.1801 8.23952 19.054 8.34835 18.8996C8.57724 18.5661 8.88406 18.2935 9.24217 18.1055C9.60029 17.9175 9.99889 17.8197 10.4034 17.8207C10.7953 17.8212 11.1816 17.9132 11.5317 18.0893C11.8818 18.2655 12.1859 18.5209 12.4198 18.8354C12.5754 19.0445 12.7958 19.1964 13.0467 19.2672C13.2976 19.3381 13.5649 19.324 13.8069 19.2271C14.7379 18.8524 15.6046 18.3346 16.3757 17.6923C16.5694 17.5321 16.7073 17.3147 16.7696 17.0712C16.8319 16.8277 16.8154 16.5708 16.7225 16.3372C16.5714 15.9797 16.5056 15.5919 16.5301 15.2045C16.5546 14.8171 16.6689 14.4407 16.8638 14.105C17.0587 13.7693 17.329 13.4835 17.6533 13.2702C17.9776 13.0569 18.3471 12.9219 18.7325 12.8759C18.9825 12.8413 19.2149 12.7281 19.3962 12.5526C19.5774 12.3771 19.6981 12.1484 19.7408 11.8997C19.8439 11.3641 19.8998 10.8204 19.9077 10.275C19.9079 9.69969 19.8541 9.12564 19.7472 8.56036C19.7038 8.31716 19.5849 8.09381 19.4074 7.92204C19.2299 7.75027 19.0027 7.63881 18.7582 7.6035ZM13.4859 10.275C13.4859 10.9101 13.2975 11.5309 12.9447 12.0589C12.5919 12.5869 12.0904 12.9985 11.5037 13.2415C10.917 13.4845 10.2714 13.5481 9.64849 13.4242C9.02563 13.3003 8.4535 12.9945 8.00444 12.5455C7.55538 12.0964 7.24957 11.5243 7.12568 10.9014C7.00178 10.2786 7.06537 9.63295 7.3084 9.04622C7.55142 8.4595 7.96298 7.95802 8.49101 7.6052C9.01905 7.25238 9.63985 7.06406 10.2749 7.06406C11.1265 7.06406 11.9432 7.40235 12.5454 8.00452C13.1476 8.60669 13.4859 9.4234 13.4859 10.275Z" fill="#ED7D2B"/>
</svg>
