<svg width="21" height="22" viewBox="0 0 21 22" fill="none" xmlns="http://www.w3.org/2000/svg">
<g clip-path="url(#clip0_67_1542)">
<path d="M9.97731 16.9002C9.97762 15.8845 10.2517 14.8876 10.7706 14.0145C11.2896 13.1413 12.0343 12.4242 12.9264 11.9385C13.8184 11.4529 14.8249 11.2166 15.8399 11.2546C16.8549 11.2926 17.8409 11.6034 18.6942 12.1544C18.7002 11.7358 18.7034 11.2891 18.7034 10.807C18.7034 8.32858 18.6191 6.78171 18.4526 5.17945H18.4763C18.3842 4.28662 18.0432 3.4376 17.4922 2.72906C16.9412 2.02053 16.2023 1.48096 15.3596 1.1718C15.3151 1.15494 15.2705 1.13889 15.2256 1.12364C14.8926 1.0117 14.5483 0.93673 14.1989 0.900076L14.1656 0.896464C12.8326 0.759598 12.6187 0.650024 9.80793 0.650024C6.99716 0.650024 6.54241 0.759598 5.21067 0.898471L5.17736 0.902083C4.81059 0.940601 4.4495 1.02141 4.10129 1.1429V1.12484C3.23307 1.42004 2.46769 1.95798 1.89589 2.67491C1.32408 3.39184 0.96982 4.25769 0.875105 5.16982C0.708137 6.77529 0.623047 8.32376 0.623047 10.807C0.623047 13.2903 0.708137 14.8388 0.875105 16.4442C0.989119 17.5398 1.47646 18.5628 2.25535 19.3416C3.03425 20.1204 4.05731 20.6077 5.15288 20.7216L5.18619 20.7252C6.51913 20.8641 6.73266 20.9737 9.54343 20.9737C10.4746 20.9737 11.1489 20.9616 11.6783 20.9403C11.1392 20.4147 10.7109 19.7864 10.4187 19.0925C10.1266 18.3986 9.97647 17.6531 9.97731 16.9002ZM5.28131 5.99423H14.0436C14.2971 5.99423 14.5403 6.09496 14.7196 6.27425C14.8989 6.45355 14.9996 6.69672 14.9996 6.95028C14.9996 7.20385 14.8989 7.44702 14.7196 7.62632C14.5403 7.80561 14.2971 7.90634 14.0436 7.90634H5.28332C5.02976 7.90634 4.78658 7.80561 4.60729 7.62632C4.42799 7.44702 4.32726 7.20385 4.32726 6.95028C4.32726 6.69672 4.42799 6.45355 4.60729 6.27425C4.78658 6.09496 5.02976 5.99423 5.28332 5.99423H5.28131ZM5.28131 11.9975C5.03109 11.9924 4.79285 11.8893 4.6177 11.7106C4.44255 11.5318 4.34445 11.2915 4.34445 11.0412C4.34445 10.7909 4.44255 10.5506 4.6177 10.3719C4.79285 10.1931 5.03109 10.0901 5.28131 10.085H10.2787C10.406 10.0824 10.5324 10.1052 10.6507 10.152C10.769 10.1989 10.8768 10.269 10.9677 10.358C11.0586 10.4471 11.1308 10.5534 11.1801 10.6707C11.2294 10.788 11.2548 10.914 11.2548 11.0412C11.2548 11.1685 11.2294 11.2944 11.1801 11.4118C11.1308 11.5291 11.0586 11.6354 10.9677 11.7244C10.8768 11.8135 10.769 11.8835 10.6507 11.9304C10.5324 11.9773 10.406 12.0001 10.2787 11.9975H5.28131Z" fill="#ED7D2B"/>
<path d="M15.6275 12.6003C14.7771 12.6003 13.9457 12.8525 13.2386 13.325C12.5315 13.7975 11.9804 14.469 11.6549 15.2547C11.3295 16.0404 11.2443 16.9049 11.4103 17.739C11.5762 18.5731 11.9857 19.3393 12.587 19.9406C13.1884 20.542 13.9545 20.9515 14.7886 21.1174C15.6227 21.2833 16.4873 21.1982 17.273 20.8727C18.0587 20.5473 18.7302 19.9961 19.2027 19.289C19.6752 18.5819 19.9273 17.7506 19.9273 16.9002C19.9273 15.7598 19.4743 14.6661 18.6679 13.8597C17.8616 13.0533 16.7679 12.6003 15.6275 12.6003ZM17.3317 17.5295H15.542C15.4063 17.5295 15.2761 17.4756 15.1801 17.3796C15.0842 17.2837 15.0303 17.1535 15.0303 17.0178V14.2684C15.0303 14.1327 15.0842 14.0025 15.1801 13.9066C15.2761 13.8106 15.4063 13.7567 15.542 13.7567C15.6777 13.7567 15.8079 13.8106 15.9039 13.9066C15.9998 14.0025 16.0537 14.1327 16.0537 14.2684V16.506H17.3317C17.4674 16.506 17.5976 16.5599 17.6935 16.6559C17.7895 16.7519 17.8434 16.8821 17.8434 17.0178C17.8434 17.1535 17.7895 17.2837 17.6935 17.3796C17.5976 17.4756 17.4674 17.5295 17.3317 17.5295Z" fill="#ED7D2B"/>
</g>
<defs>
<clipPath id="clip0_67_1542">
<rect width="20.55" height="20.55" fill="white" transform="translate(0 0.650024)"/>
</clipPath>
</defs>
</svg>
