<svg width="30" height="30" viewBox="0 0 30 30" fill="none" xmlns="http://www.w3.org/2000/svg">
<g clip-path="url(#clip0_13_704)">
<path d="M25.9573 0H4.04268C1.81008 0 0.00012207 1.80989 0.00012207 4.04256V25.9573C0.00012207 28.19 1.81001 29.9999 4.04268 29.9999H14.8509L14.8693 19.2795H12.0841C11.9103 19.2795 11.7435 19.2106 11.6204 19.0879C11.4972 18.9653 11.4277 18.7988 11.427 18.6249L11.4137 15.1693C11.4133 15.0828 11.4301 14.9971 11.463 14.917C11.4959 14.837 11.5442 14.7643 11.6053 14.703C11.6663 14.6417 11.7389 14.5931 11.8188 14.5599C11.8987 14.5267 11.9843 14.5096 12.0709 14.5096H14.8509V11.1706C14.8509 7.29576 17.2175 5.18587 20.6741 5.18587H23.5105C23.6848 5.18587 23.852 5.25511 23.9752 5.37835C24.0985 5.5016 24.1677 5.66876 24.1677 5.84305V8.75684C24.1677 8.93107 24.0985 9.09817 23.9754 9.22141C23.8522 9.34464 23.6851 9.41393 23.5109 9.41402L21.7702 9.41483C19.8904 9.41483 19.5264 10.3081 19.5264 11.619V14.5097H23.657C24.0506 14.5097 24.3559 14.8534 24.3096 15.2442L23.9 18.6998C23.8811 18.8596 23.8042 19.0069 23.6839 19.1138C23.5636 19.2206 23.4083 19.2797 23.2474 19.2797H19.5448L19.5264 30H25.9574C28.19 30 29.9999 28.1901 29.9999 25.9575V4.04256C29.9998 1.80989 28.1899 0 25.9573 0Z" fill="#475993"/>
</g>
<defs>
<clipPath id="clip0_13_704">
<rect width="30" height="30" fill="white"/>
</clipPath>
</defs>
</svg>
