<svg width="24" height="20" viewBox="0 0 24 20" fill="none" xmlns="http://www.w3.org/2000/svg">
<path d="M23.6164 9.06752L14.9491 0.400077C14.7017 0.152665 14.372 0.016861 14.0204 0.016861C13.6684 0.016861 13.3388 0.15286 13.0914 0.400077L12.3045 1.18719C12.0573 1.43422 11.9211 1.76416 11.9211 2.11597C11.9211 2.46757 12.0573 2.80864 12.3045 3.05567L17.3608 8.12314H1.29657C0.572288 8.12314 0 8.69016 0 9.41464V10.5274C0 11.2519 0.572288 11.8761 1.29657 11.8761H17.4182L12.3047 16.9718C12.0575 17.2193 11.9213 17.5402 11.9213 17.892C11.9213 18.2434 12.0575 18.5691 12.3047 18.8163L13.0916 19.6009C13.339 19.8483 13.6686 19.9831 14.0206 19.9831C14.3722 19.9831 14.7019 19.8466 14.9493 19.5991L23.6166 10.9319C23.8646 10.6837 24.001 10.3524 24 10.0002C24.0008 9.64683 23.8646 9.31532 23.6164 9.06752Z" fill="white"/>
</svg>
