<svg width="24" height="24" viewBox="0 0 24 24" fill="none" xmlns="http://www.w3.org/2000/svg">
<g clip-path="url(#clip0_20_109)">
<path d="M12 4.84689C7.41454 4.84689 3.25621 7.35563 0.187788 11.4305C-0.0625959 11.7643 -0.0625959 12.2307 0.187788 12.5646C3.25621 16.6444 7.41454 19.1531 12 19.1531C16.5855 19.1531 20.7438 16.6444 23.8122 12.5695C24.0626 12.2357 24.0626 11.7693 23.8122 11.4354C20.7438 7.35563 16.5855 4.84689 12 4.84689ZM12.3289 17.0371C9.28506 17.2286 6.7714 14.7199 6.96287 11.6711C7.11998 9.15741 9.15741 7.11998 11.6711 6.96287C14.7149 6.7714 17.2286 9.28015 17.0371 12.3289C16.8751 14.8377 14.8377 16.8751 12.3289 17.0371ZM12.1767 14.71C10.537 14.8131 9.18196 13.463 9.28997 11.8233C9.37343 10.4682 10.4732 9.37343 11.8282 9.28506C13.4679 9.18196 14.823 10.5321 14.7149 12.1718C14.6266 13.5318 13.5268 14.6266 12.1767 14.71Z" fill="black" fill-opacity="0.2"/>
</g>
<defs>
<clipPath id="clip0_20_109">
<rect width="24" height="24" fill="white"/>
</clipPath>
</defs>
</svg>
