<svg width="22" height="22" viewBox="0 0 22 22" fill="none" xmlns="http://www.w3.org/2000/svg">
<path d="M19.1529 1.29413H17.2117V3.2353C17.2117 3.62354 16.8881 3.88236 16.5646 3.88236C16.2411 3.88236 15.9176 3.62354 15.9176 3.2353V1.29413H5.56462V3.2353C5.56462 3.62354 5.24109 3.88236 4.91756 3.88236C4.59403 3.88236 4.2705 3.62354 4.2705 3.2353V1.29413H2.32933C1.35874 1.29413 0.646973 2.1353 0.646973 3.2353V5.56472H21.3529V3.2353C21.3529 2.1353 20.1882 1.29413 19.1529 1.29413ZM0.646973 6.92354V18.7647C0.646973 19.9294 1.35874 20.7059 2.39403 20.7059H19.2176C20.2529 20.7059 21.4176 19.8647 21.4176 18.7647V6.92354H0.646973ZM6.4058 17.7941H4.85286C4.59403 17.7941 4.33521 17.6 4.33521 17.2765V15.6588C4.33521 15.4 4.52933 15.1412 4.85286 15.1412H6.4705C6.72933 15.1412 6.98815 15.3353 6.98815 15.6588V17.2765C6.92344 17.6 6.72933 17.7941 6.4058 17.7941ZM6.4058 11.9706H4.85286C4.59403 11.9706 4.33521 11.7765 4.33521 11.453V9.8353C4.33521 9.57648 4.52933 9.31766 4.85286 9.31766H6.4705C6.72933 9.31766 6.98815 9.51178 6.98815 9.8353V11.453C6.92344 11.7765 6.72933 11.9706 6.4058 11.9706ZM11.5823 17.7941H9.96462C9.7058 17.7941 9.44697 17.6 9.44697 17.2765V15.6588C9.44697 15.4 9.64109 15.1412 9.96462 15.1412H11.5823C11.8411 15.1412 12.0999 15.3353 12.0999 15.6588V17.2765C12.0999 17.6 11.9058 17.7941 11.5823 17.7941ZM11.5823 11.9706H9.96462C9.7058 11.9706 9.44697 11.7765 9.44697 11.453V9.8353C9.44697 9.57648 9.64109 9.31766 9.96462 9.31766H11.5823C11.8411 9.31766 12.0999 9.51178 12.0999 9.8353V11.453C12.0999 11.7765 11.9058 11.9706 11.5823 11.9706ZM16.7587 17.7941H15.1411C14.8823 17.7941 14.6234 17.6 14.6234 17.2765V15.6588C14.6234 15.4 14.8176 15.1412 15.1411 15.1412H16.7587C17.0176 15.1412 17.2764 15.3353 17.2764 15.6588V17.2765C17.2764 17.6 17.0823 17.7941 16.7587 17.7941ZM16.7587 11.9706H15.1411C14.8823 11.9706 14.6234 11.7765 14.6234 11.453V9.8353C14.6234 9.57648 14.8176 9.31766 15.1411 9.31766H16.7587C17.0176 9.31766 17.2764 9.51178 17.2764 9.8353V11.453C17.2764 11.7765 17.0823 11.9706 16.7587 11.9706Z" fill="black"/>
</svg>
