<svg width="390" height="438" viewBox="0 0 390 438" fill="none" xmlns="http://www.w3.org/2000/svg">
<rect width="390" height="398" fill="#ED7D2B" fill-opacity="0.05"/>
<path d="M18.9418 -2.71561C13.81 24.7084 3.1053 69.6756 -17.3805 112.63C-19.0021 116.053 -20.6716 119.443 -22.3891 122.798C-29.5177 136.697 -37.8311 149.955 -47.2368 162.424C-56.4199 174.636 -67.0404 185.696 -78.8687 195.364V435.956L-98.3692 435.874L-181.821 435.566H-182.847C-186.608 432.315 -190.159 428.829 -193.48 425.13C-210.631 406.55 -242.026 363.75 -241 301.619C-240.364 264.458 -234.431 199.092 -189.683 152.852C-188.944 152.092 -188.184 151.331 -187.425 150.582L-186.86 150.027L-186.193 149.37L-185.906 149.103L-184.654 147.911L-183.535 146.884H-183.473C-183.289 146.709 -183.094 146.525 -182.888 146.35L-181.975 145.518L-181.185 144.82C-180.761 144.443 -180.34 144.073 -179.922 143.71L-179.122 143.032L-178.485 142.488L-178.075 142.139L-177.244 141.461L-176.843 141.132L-175.889 140.352L-175.725 140.218L-174.257 139.057L-173.015 138.092C-172.946 138.05 -172.881 138.002 -172.82 137.948C-172.451 137.661 -172.061 137.373 -171.681 137.096L-170.654 136.305L-170.306 136.048L-168.91 135.021L-167.883 134.312L-166.693 133.48L-165.831 132.895L-164.609 132.073L-163.583 131.395L-163.193 131.149L-162.167 130.471L-160.914 129.68L-159.683 128.92C-159.262 128.663 -158.841 128.396 -158.41 128.149L-158.215 128.026L-157.117 127.379L-155.814 126.619L-154.52 125.89L-153.196 125.161C-152.765 124.914 -152.334 124.688 -151.903 124.452L-151.718 124.349L-150.487 123.702L-149.255 123.055L-148.229 122.531C-146.703 121.751 -145.146 120.99 -143.559 120.251C-140.822 118.95 -137.979 117.704 -135.03 116.512L-133.768 115.999L-132.495 115.506L-131.222 115.013L-129.17 114.222L-127.805 113.729L-126.522 113.267L-124.982 112.732H-124.849L-123.545 112.291L-121.657 111.674L-119.974 111.14H-119.881L-118.414 110.688L-117.685 110.473L-116.207 110.031L-115.755 109.898L-113.99 109.394L-112.184 108.901L-111.527 108.727L-110.121 108.357L-109.844 108.285L-107.791 107.771L-106.015 107.34L-105.513 107.217L-103.573 106.775L-101.52 106.303H-101.448L-99.3134 105.851L-97.0862 105.368L-95.9778 105.111L-94.8899 104.854L-93.8635 104.608L-92.8372 104.351C-92.5088 104.279 -92.1906 104.187 -91.8724 104.105L-90.8461 103.838L-89.9737 103.591L-88.0031 103.016L-87.0692 102.728L-85.2525 102.153H-85.1909L-83.3948 101.557L-81.5885 100.921L-79.8129 100.263L-79.6384 100.191L-77.0726 99.1642L-76.3028 98.8458L-75.2765 98.4041L-73.7985 97.757L-72.8748 97.3462C-72.0127 96.9559 -71.1608 96.5553 -70.3192 96.1445L-68.8618 95.4255L-67.4865 94.727L-67.3736 94.6654C-66.881 94.4189 -66.4089 94.1621 -65.9265 93.8951L-65.7418 93.8026L-64.6025 93.1761L-64.0278 92.8577L-63.1759 92.3749L-62.519 91.9949L-61.1437 91.1732L-59.8608 90.3926L-58.4034 89.4785L-57.0178 88.5746H-56.9665L-55.9402 87.8864L-55.3346 87.4756L-54.5957 86.962L-53.8567 86.4485L-53.1075 85.9144C-52.8509 85.7398 -52.6046 85.5549 -52.3582 85.37L-51.7938 84.9592L-50.5929 84.0553L-50.3774 83.8909L-49.1869 82.9768L-47.4934 81.6416L-46.2413 80.6145L-45.646 80.1214L-45.102 79.6592L-44.907 79.4846L-44.3733 79.0327L-44.1167 78.8067L-43.6651 78.4164L-43.4599 78.2418C-43.4212 78.2016 -43.3801 78.1639 -43.3367 78.1288L-43.2546 78.0569L-42.5772 77.4509L-41.6432 76.619L-41.3148 76.3211L-40.4732 75.5405L-40.2064 75.294L-39.9806 75.0783L-39.0363 74.1847L-38.8824 74.0409L-38.3487 73.5273L-38.0202 73.2089L-37.7944 72.9932L-37.5173 72.7159L-37.2197 72.418L-36.9939 72.1921C-36.9015 72.1099 -36.8194 72.0175 -36.7271 71.925L-36.3165 71.5142L-35.4236 70.6103C-34.8283 70.0043 -34.233 69.3983 -33.648 68.7718L-33.5762 68.6896L-32.7038 67.7755C-32.6422 67.6933 -32.5704 67.6317 -32.5088 67.5495C-32.0572 67.077 -31.6159 66.5943 -31.1745 66.1013L-31.0514 65.978L-30.8564 65.7521L-29.5016 64.2422L-29.3579 64.0779L-29.2963 64.006L-27.8184 62.3112L-27.685 62.1571L-27.531 61.9723L-26.0326 60.2056C-25.5297 59.5996 -25.0062 58.9936 -24.5238 58.3773L-23.0254 56.5285C-22.5225 55.9123 -21.999 55.2857 -21.5372 54.6592L-20.3672 53.139C-19.7821 52.3893 -19.1971 51.6395 -18.6224 50.8794C-17.0281 48.7841 -15.5468 46.7709 -14.1783 44.8399L-13.9833 44.5832L-13.0391 43.2684L-12.5362 42.5597L-11.3867 40.9369C-11.2532 40.7623 -11.1301 40.5774 -10.9966 40.3925L-10.1653 39.1908L-9.31344 37.9788C-8.15368 36.3251 -6.99391 34.6817 -5.88546 33.0178C-5.77257 32.8637 -5.65968 32.6994 -5.55704 32.5351L-5.49545 32.4529L-5.20807 32.0318L-3.79173 29.9775L-2.11879 27.4714C0.221272 23.986 2.57159 20.5007 4.93218 17.0153L6.19459 15.1768L6.34854 15.0535L6.6667 14.5913L7.69304 13.0506L8.53465 11.8386L9.06834 11.058L9.98178 9.7536L10.2794 9.32221L10.4539 9.0757L11.4802 7.48367L11.7882 7.06255L13.184 5.09049L14.5901 3.11842L14.8261 2.81029C14.8533 2.76341 14.8842 2.71876 14.9185 2.67676L15.3598 2.07076C15.4317 1.96805 15.5138 1.8448 15.5959 1.74208L16.0783 1.08473C16.3041 0.766321 16.5401 0.458185 16.7762 0.139779C17.5254 -0.846254 18.2336 -1.78093 18.9418 -2.71561Z" fill="#F99746"/>
<path d="M622 226.701V228.694C622 234.805 621.815 241.338 621.487 248.281C621.21 254.023 620.84 260.042 620.327 266.204C619.301 279.906 617.607 294.501 615.431 309.128C615.062 311.675 614.641 314.263 614.22 316.728C613.8 319.193 613.348 322.008 612.835 324.647C610.525 337.651 607.703 350.479 604.46 362.651C603.536 365.944 602.612 369.173 601.689 372.336C599.698 378.91 597.583 385.206 595.254 391.133V391.184C592.523 398.279 589.306 405.177 585.626 411.829C585.308 412.435 584.939 413.082 584.6 413.688C583.492 415.629 582.342 417.437 581.182 419.152C580.351 420.354 579.52 421.515 578.678 422.624C578.032 423.456 577.385 424.247 576.738 425.027C575.907 426.003 575.117 426.928 574.285 427.811C573.967 428.181 573.639 428.499 573.259 428.838C572.612 429.485 571.966 430.132 571.319 430.738C569.291 432.539 567.091 434.135 564.751 435.504C564.699 435.555 564.658 435.555 564.607 435.597C564.513 435.677 564.405 435.739 564.289 435.781C564.053 435.925 563.827 436.059 563.642 436.151L562.246 436.85L508.764 437.219L416.865 437.825L231.497 437.127L165.432 436.839L99.3146 436.613H99.1709L94.6858 436.562L-27.9826 436.172L-37.5584 436.12H-40.0524L-78.92 435.987L-98.4205 435.894L-181.893 435.566H-182.919L-183.012 435.473C-183.484 435.103 -185.793 433.111 -189.262 429.639C-189.909 428.992 -190.607 428.294 -191.315 427.585C-192.023 426.876 -192.803 426.055 -193.583 425.182C-210.61 406.56 -242.026 363.729 -241 301.619C-240.394 264.438 -234.431 199.092 -189.683 152.831C-188.934 152.092 -188.195 151.311 -187.456 150.561C-187.241 150.394 -187.042 150.208 -186.86 150.006L-186.717 149.873C-186.481 149.637 -186.255 149.452 -185.978 149.175L-185.701 148.897C-185.511 148.7 -185.308 148.514 -185.095 148.343L-184.449 147.695C-184.123 147.439 -183.814 147.161 -183.525 146.864C-183.525 146.864 -183.525 146.864 -183.474 146.864C-183.276 146.71 -183.091 146.542 -182.919 146.36C-182.601 146.083 -182.273 145.806 -181.996 145.528C-181.723 145.31 -181.463 145.077 -181.216 144.83C-181.164 144.83 -181.164 144.83 -181.164 144.83C-180.751 144.466 -180.319 144.123 -179.871 143.803C-179.635 143.577 -179.358 143.34 -179.081 143.115C-178.804 142.889 -178.67 142.745 -178.485 142.56C-178.301 142.375 -178.208 142.324 -178.013 142.231C-177.818 142.139 -177.51 141.769 -177.233 141.533C-177.103 141.414 -176.962 141.307 -176.813 141.214C-176.494 140.937 -176.166 140.701 -175.848 140.423L-175.704 140.29C-175.191 139.92 -174.729 139.499 -174.226 139.129L-172.974 138.154C-172.974 138.154 -172.841 138.061 -172.789 138.02C-172.42 137.743 -172.05 137.465 -171.63 137.188C-171.305 136.903 -170.962 136.638 -170.603 136.397C-170.47 136.305 -170.377 136.212 -170.234 136.12C-169.772 135.791 -169.31 135.473 -168.848 135.093C-168.386 134.713 -168.15 134.631 -167.822 134.394C-167.493 134.158 -167.032 133.84 -166.611 133.562C-166.322 133.377 -166.044 133.175 -165.779 132.956C-165.369 132.679 -164.948 132.453 -164.537 132.176C-164.127 131.898 -163.84 131.714 -163.511 131.477C-163.399 131.382 -163.275 131.302 -163.142 131.241C-162.772 131.015 -162.454 130.779 -162.115 130.553C-161.777 130.327 -161.274 130.039 -160.863 129.762H-160.812C-160.401 129.526 -159.981 129.248 -159.611 129.022C-159.164 128.785 -158.732 128.521 -158.318 128.232C-158.248 128.22 -158.184 128.188 -158.133 128.139C-157.775 127.904 -157.405 127.688 -157.025 127.492C-156.604 127.215 -156.142 126.979 -155.721 126.753C-155.3 126.527 -154.849 126.239 -154.428 126.003C-154.007 125.767 -153.545 125.541 -153.125 125.263C-152.704 124.986 -152.252 124.801 -151.831 124.565C-151.739 124.565 -151.698 124.565 -151.647 124.472C-151.236 124.246 -150.815 124.062 -150.394 123.825C-149.974 123.589 -149.563 123.414 -149.153 123.178C-148.742 122.942 -148.455 122.808 -148.126 122.665C-146.597 121.884 -145.047 121.093 -143.446 120.354C-140.675 119.059 -137.853 117.806 -134.938 116.646C-134.512 116.456 -134.077 116.288 -133.634 116.142C-133.224 115.958 -132.803 115.814 -132.392 115.629C-131.982 115.444 -131.561 115.31 -131.089 115.126C-130.401 114.838 -129.703 114.612 -129.036 114.335C-128.564 114.191 -128.102 114.006 -127.64 113.872C-127.235 113.696 -126.821 113.542 -126.399 113.41L-124.818 112.856C-124.796 112.845 -124.771 112.839 -124.746 112.839C-124.721 112.839 -124.697 112.845 -124.674 112.856C-124.264 112.722 -123.843 112.537 -123.381 112.393C-122.919 112.25 -122.129 111.972 -121.482 111.787L-119.82 111.233H-119.727C-119.266 111.048 -118.701 110.914 -118.249 110.771C-118.013 110.678 -117.788 110.637 -117.552 110.545C-117.038 110.401 -116.525 110.267 -116.074 110.124C-115.889 110.124 -115.745 110.031 -115.612 109.99C-115.006 109.805 -114.401 109.661 -113.846 109.476C-113.292 109.292 -112.646 109.148 -112.05 108.963L-111.352 108.829C-110.897 108.682 -110.435 108.559 -109.967 108.46C-109.884 108.406 -109.788 108.374 -109.69 108.367C-109.033 108.182 -108.345 108.038 -107.699 107.854L-105.892 107.443C-105.749 107.443 -105.564 107.35 -105.379 107.299C-104.733 107.165 -104.137 107.022 -103.48 106.837C-102.824 106.652 -102.054 106.559 -101.356 106.375C-100.607 106.231 -99.919 106.046 -99.2211 105.912C-98.5231 105.779 -97.6918 105.584 -96.9529 105.45L-95.9265 105.173L-94.8078 104.895C-94.4817 104.836 -94.1596 104.757 -93.843 104.659C-93.5146 104.567 -93.1964 104.526 -92.8167 104.433L-91.893 104.156C-91.5748 104.053 -91.2464 104.012 -90.9282 103.92C-90.61 103.827 -90.3227 103.735 -90.0456 103.642L-88.0545 103.088L-87.1307 102.81C-86.5252 102.626 -85.9299 102.389 -85.3244 102.204H-84.996C-84.3904 102.02 -83.7951 101.794 -83.2409 101.609C-82.6867 101.424 -82.0401 101.188 -81.4345 100.951C-80.829 100.715 -80.2337 100.541 -79.6282 100.304C-79.6282 100.304 -79.5358 100.304 -79.4434 100.212L-76.8981 99.2464V99.195C-76.6253 99.1139 -76.3607 99.0073 -76.1078 98.8766L-75.0815 98.4555C-74.5786 98.2192 -74.0551 98.0343 -73.5625 97.8084C-73.2751 97.6646 -72.957 97.5311 -72.6798 97.3873C-71.7972 97.0175 -70.9659 96.6066 -70.0832 96.1855L-68.6566 95.4871L-67.2608 94.7989C-67.2608 94.7989 -67.1684 94.7989 -67.1684 94.7065C-66.6655 94.4703 -66.2036 94.1929 -65.6905 93.967C-65.6699 93.9373 -65.6421 93.9133 -65.6099 93.8971C-65.5776 93.881 -65.5418 93.8732 -65.5057 93.8745C-65.1362 93.6383 -64.7668 93.4534 -64.3973 93.2274C-64.2014 93.1072 -63.9993 92.9975 -63.7917 92.8988C-63.5146 92.755 -63.2375 92.5701 -62.9604 92.4366C-62.7565 92.294 -62.5401 92.1702 -62.3138 92.0668L-60.9282 91.2348C-60.5074 90.9575 -60.0456 90.7213 -59.635 90.4439C-59.2245 90.1666 -58.66 89.838 -58.1982 89.5195C-57.7363 89.2011 -57.2744 88.9135 -56.8023 88.6362C-56.4328 88.4 -56.1044 88.174 -55.776 87.9378C-55.5637 87.8131 -55.3612 87.6724 -55.1704 87.5167C-54.9066 87.3763 -54.6588 87.2076 -54.4315 87.0134C-54.1678 86.8686 -53.9202 86.6965 -53.6925 86.4998C-53.4154 86.3149 -53.1793 86.1814 -52.9535 85.9965L-52.1633 85.4419L-51.609 85.0208C-51.1882 84.7434 -50.8188 84.4148 -50.4082 84.0964C-50.3569 84.0964 -50.2645 84.0039 -50.2235 83.9526C-49.8018 83.6734 -49.4005 83.3644 -49.0226 83.0282C-48.4582 82.6173 -47.8629 82.1551 -47.3087 81.6826C-46.7544 81.2102 -46.4773 81.0356 -46.0565 80.6555L-45.8718 80.4706C-45.5412 80.2386 -45.232 79.9773 -44.9481 79.69L-44.712 79.5462C-44.559 79.3769 -44.3907 79.2222 -44.2091 79.084C-44.1167 78.9916 -44.0244 78.9402 -43.932 78.8478C-43.8396 78.7554 -43.6549 78.6218 -43.5112 78.478C-43.4466 78.4044 -43.3703 78.342 -43.2854 78.2931L-43.1828 78.2007L-43.0904 78.1083C-42.8646 77.9234 -42.6285 77.6974 -42.4027 77.5125C-42.1769 77.3277 -41.7972 76.9579 -41.479 76.6806C-41.362 76.5789 -41.2522 76.469 -41.1506 76.3519C-40.8735 76.1157 -40.5964 75.8383 -40.2679 75.561L-40.0422 75.3351C-39.9498 75.3351 -39.8985 75.1913 -39.8061 75.1502C-39.4879 74.8215 -39.1595 74.5442 -38.8824 74.2258C-38.8134 74.1883 -38.751 74.1397 -38.6976 74.082L-38.1947 73.5684C-38.0638 73.487 -37.9518 73.3784 -37.8663 73.25C-37.7834 73.1983 -37.7076 73.1362 -37.6405 73.0651C-37.5554 72.9622 -37.459 72.8691 -37.3531 72.7878C-37.2603 72.6661 -37.1535 72.5558 -37.035 72.4591L-36.7989 72.2332C-36.7066 72.1407 -36.6655 72.0483 -36.5731 71.9969L-36.1523 71.5861L-35.2286 70.6514C-34.6744 70.0557 -34.0688 69.4497 -33.4736 68.8539C-33.4713 68.8302 -33.4608 68.808 -33.444 68.7911C-33.4271 68.7742 -33.4049 68.7638 -33.3812 68.7615C-33.1041 68.4328 -32.827 68.1555 -32.5498 67.8268L-32.3138 67.6009L-31.0206 66.1629L-30.8769 66.0294C-30.8769 65.9369 -30.7435 65.8856 -30.6922 65.7931C-30.2303 65.2796 -29.7685 64.8174 -29.3477 64.3141L-29.1629 64.1292V64.0368C-28.6498 63.4821 -28.1366 62.9275 -27.685 62.3626L-27.5413 62.229C-27.5096 62.1591 -27.4642 62.0963 -27.4079 62.0442L-25.9197 60.2878C-25.4168 59.6304 -24.8933 59.0347 -24.4007 58.4287C-23.9081 57.8227 -23.3744 57.1756 -22.8714 56.5799C-22.8714 56.5285 -22.7791 56.4874 -22.7791 56.4361C-22.4096 55.9739 -22.0401 55.5117 -21.6706 55.0084L-21.3935 54.7311C-21.1575 54.4435 -20.9214 54.1251 -20.7367 53.8478C-20.5557 53.6428 -20.3877 53.4267 -20.2337 53.2007C-19.6282 52.4611 -19.074 51.6703 -18.4684 50.9307C-17.0418 49.0306 -15.646 47.0893 -14.2194 45.1378C-14.1681 45.1378 -14.127 45.0043 -14.0346 44.9118C-13.7062 44.4496 -13.4291 44.0285 -13.1109 43.5663C-12.9202 43.3486 -12.7485 43.115 -12.5978 42.8679C-12.177 42.3132 -11.8075 41.8408 -11.438 41.2553C-11.2983 41.0783 -11.1747 40.8893 -11.0685 40.6904C-10.7914 40.3206 -10.4732 39.9098 -10.1961 39.4887C-9.919 39.0675 -9.63163 38.708 -9.35452 38.2869C-8.17423 36.3354 -6.99393 34.6715 -5.90601 33.0075C-5.77259 32.8638 -5.68021 32.6789 -5.53653 32.5453C-5.39284 32.4118 -5.53653 32.5453 -5.53653 32.4529L-5.25941 32.0318C-4.78729 31.3333 -4.23307 30.6452 -3.82254 29.9775C-3.412 29.3099 -2.67303 28.2828 -2.1188 27.4919C0.241783 23.9792 2.56132 20.4973 4.92191 17.0256C5.33244 16.3785 5.75324 15.7828 6.21509 15.1768C6.21509 15.1768 6.2151 15.0843 6.30747 15.033C6.38936 14.861 6.50048 14.7046 6.6359 14.5708C6.95406 14.0675 7.32354 13.5437 7.66224 12.9993C7.93935 12.6295 8.21646 12.2084 8.49357 11.7976C8.67831 11.5613 8.86306 11.284 9.04781 11.0067C9.23255 10.7294 9.65334 10.1747 9.97151 9.71251L10.2486 9.2914C10.3003 9.20847 10.3624 9.13252 10.4334 9.06543C10.8028 8.51079 11.1723 8.03832 11.5418 7.49394L11.8189 7.07282C12.291 6.42574 12.7529 5.7273 13.2148 5.08022C13.6766 4.43314 14.1795 3.78605 14.6414 3.13897C14.7473 3.02127 14.8246 2.88066 14.8672 2.72812L15.0109 2.58432C15.1443 2.39944 15.288 2.21456 15.4214 1.98859C15.5548 1.76263 15.5651 1.75236 15.6574 1.65992C15.8225 1.45236 15.9766 1.23637 16.1193 1.01284C16.3451 0.684158 16.6222 0.365746 16.8583 0.0370688L18.911 -2.73615C19.5576 -3.56811 20.1528 -4.41035 20.8097 -5.24231C21.1792 -5.7456 21.5897 -6.26943 21.9592 -6.72136C22.3287 -7.17329 22.4724 -7.4198 22.7495 -7.74848C23.0266 -8.07716 23.3961 -8.53936 23.7245 -8.95021C24.0384 -9.37731 24.3813 -9.78227 24.7508 -10.1622L25.7156 -11.405C27.7683 -13.8633 29.8518 -16.2599 31.966 -18.5948C32.3355 -18.9646 32.705 -19.3754 33.0745 -19.7966C33.7211 -20.495 34.419 -21.2345 35.1272 -21.9227C35.4453 -22.2925 35.7738 -22.6211 36.0919 -22.9498L38.6886 -25.5382C39.0067 -25.8668 39.3762 -26.1955 39.7149 -26.5653C39.9345 -26.7946 40.1676 -27.0107 40.4128 -27.2124C40.6899 -27.4897 40.967 -27.767 41.2441 -28.0032C41.5213 -28.2395 41.9318 -28.6503 42.2705 -29.0304C42.2705 -29.0304 42.4039 -29.1228 42.4553 -29.2152L43.5637 -30.2424L44.8158 -31.3516C45.1853 -31.6803 45.5548 -32.0501 45.9653 -32.3788L46.1501 -32.5636C46.5709 -32.8923 46.9404 -33.2107 47.3098 -33.5394C47.6793 -33.8681 48.1001 -34.1865 48.4696 -34.4638C48.562 -34.5562 48.6543 -34.6076 48.6954 -34.7C49.1162 -35.0184 49.4857 -35.2958 49.8962 -35.6244C50.3068 -35.9531 50.7789 -36.3126 51.1997 -36.6516C51.6205 -36.9905 52.1234 -37.35 52.5339 -37.6787C52.77 -37.8636 53.0061 -37.9971 53.2318 -38.182C53.4665 -38.3275 53.6835 -38.4998 53.8785 -38.6955C54.1074 -38.8298 54.3238 -38.9845 54.525 -39.1577C55.2229 -39.6713 55.9106 -40.1849 56.6598 -40.6368C56.861 -40.81 57.0774 -40.9647 57.3064 -41.099C57.5412 -41.2862 57.7881 -41.4578 58.0454 -41.6125C58.2746 -41.7924 58.5224 -41.9474 58.7844 -42.0747L60.1699 -43.1019C60.6831 -43.3792 61.1963 -43.6976 61.6581 -44.0263C62.12 -44.3549 62.4381 -44.5296 62.8589 -44.7658C62.9842 -44.8605 63.1225 -44.9366 63.2695 -44.9918V-45.0431C63.68 -45.2794 64.0495 -45.5567 64.4703 -45.7826C64.8911 -46.0086 65.4966 -46.3886 66.0406 -46.707L66.8309 -47.1282C67.0991 -47.2978 67.3766 -47.4521 67.6622 -47.5904C67.8861 -47.7295 68.1193 -47.8531 68.3601 -47.9601C71.1826 -49.5316 74.1384 -51.0415 77.1969 -52.3562C77.3739 -52.4521 77.5594 -52.5312 77.7512 -52.5924L79.0033 -53.1471C79.4138 -53.332 79.7833 -53.5168 80.2041 -53.6606C80.34 -53.6925 80.4666 -53.7558 80.5736 -53.8455C80.902 -53.938 81.1792 -54.0715 81.4563 -54.1639C81.7334 -54.2564 82.2876 -54.5337 82.6981 -54.6775C83.1087 -54.8213 83.396 -54.9548 83.7245 -55.0883C83.8983 -55.1317 84.0669 -55.1937 84.2274 -55.2732C84.7405 -55.4581 85.2537 -55.643 85.7053 -55.7868C87.4193 -56.4338 89.2257 -57.0398 91.032 -57.6356L92.6536 -58.1491C93.3413 -58.334 93.9879 -58.56 94.7063 -58.7449C95.1682 -58.8887 95.6301 -58.9811 96.0509 -59.1249L96.5538 -59.2584C97.108 -59.4022 97.7135 -59.5871 98.3191 -59.7206C98.9246 -59.8542 99.5609 -60.0493 100.218 -60.1828C100.875 -60.3164 101.46 -60.5115 102.106 -60.645L103.964 -61.0661C104.007 -61.0838 104.055 -61.0838 104.097 -61.0661C104.703 -61.2099 105.391 -61.3435 106.047 -61.4873C123.352 -65.0103 143.612 -66.1196 167.72 -63.9832C171.466 -63.6648 175.131 -63.1512 178.692 -62.5041C212.325 -56.5776 236.762 -38.1512 260.081 -24.7678C278.309 -14.3426 295.849 -6.93706 316.622 -10.9223C318.936 -11.3514 321.225 -11.9069 323.478 -12.5862L325.366 -13.1408L327.265 -13.6955C329.811 -14.4864 332.397 -15.1848 334.901 -15.9243C336.061 -16.2427 337.221 -16.5714 338.37 -16.8487C338.476 -16.8921 338.586 -16.9231 338.699 -16.9412C339.294 -17.1261 339.858 -17.2596 340.413 -17.4034C340.967 -17.5472 341.614 -17.7321 342.168 -17.8656C344.22 -18.4202 346.191 -18.8927 348.182 -19.396L350.358 -19.9506C354.012 -20.834 357.666 -21.6659 361.278 -22.4465L363.126 -22.8676C363.865 -23.0012 364.563 -23.145 365.26 -23.3299C365.958 -23.5147 366.554 -23.5661 367.2 -23.6996C367.847 -23.8331 368.36 -23.9359 368.955 -24.0694C369.284 -24.0694 369.602 -24.2132 369.93 -24.2543L371.46 -24.5316C371.887 -24.6101 372.319 -24.665 372.753 -24.6959L374.138 -24.9732C375.298 -25.1581 376.407 -25.3841 377.515 -25.569C377.884 -25.6203 378.264 -25.7128 378.634 -25.7641L381.918 -26.3188C382.051 -26.3188 382.144 -26.3188 382.287 -26.3188C382.749 -26.4112 383.211 -26.4626 383.673 -26.555C384.32 -26.6474 384.966 -26.7399 385.613 -26.8734C387.05 -27.0583 388.435 -27.2945 389.831 -27.4794C390.385 -27.5718 390.94 -27.6129 391.494 -27.7054C392.325 -27.7978 393.115 -27.8903 393.947 -28.0341H394.08C398.524 -28.64 402.917 -29.0612 407.228 -29.4207L409.034 -29.5645C410.512 -29.698 411.99 -29.7904 413.468 -29.8829C413.604 -29.9223 413.746 -29.9396 413.889 -29.9342L416.249 -30.0677C417.081 -30.1191 417.871 -30.1191 418.651 -30.1602C419.677 -30.1602 420.703 -30.2526 421.658 -30.2526C422.222 -30.304 422.777 -30.3451 423.331 -30.3451C424.111 -30.3451 424.901 -30.3451 425.64 -30.3451C426.8 -30.3451 427.908 -30.3451 429.017 -30.3451C432.445 -30.3451 435.729 -30.3451 439.013 -30.1602L442.39 -30.0267C443.868 -29.9753 445.356 -29.8829 446.783 -29.7493C448.641 -29.6055 450.447 -29.472 452.202 -29.2871C453.957 -29.1022 455.445 -28.9585 457.015 -28.7736C457.662 -28.7736 458.268 -28.64 458.914 -28.5476L460.854 -28.26L462.753 -27.9827C465.431 -27.5718 468.069 -27.1096 470.707 -26.5961C473.858 -26.0004 476.957 -25.3019 479.944 -24.5418C481.33 -24.1721 482.674 -23.8434 484.049 -23.4326C484.973 -23.1963 485.897 -22.919 486.82 -22.6417C488.873 -22.0357 490.926 -21.3886 492.927 -20.7004L495.75 -19.6733C498.664 -18.6462 501.538 -17.4547 504.361 -16.2427L504.874 -16.0168C505.377 -15.7805 505.9 -15.5546 506.444 -15.3183C508.251 -14.4864 510.047 -13.6544 511.812 -12.7711C512.5 -12.4527 513.197 -12.0829 513.865 -11.744C515.62 -10.8093 517.282 -9.93624 518.996 -8.96048C520.289 -8.22095 521.583 -7.48143 522.835 -6.69055C523.759 -6.1359 524.682 -5.5299 525.606 -4.93418C527.043 -4.00977 528.48 -3.03401 529.917 -2.05825C530.748 -1.46252 531.62 -0.856521 532.462 -0.209437C533.981 0.81768 535.469 2.00914 536.947 3.16978C538.425 4.33042 540.047 5.54242 541.535 6.83659C543.023 8.13076 544.614 9.47628 546.02 10.8732C548.473 13.1431 550.833 15.4541 553.102 17.9089C553.933 18.7409 554.672 19.5728 555.462 20.4562C558.562 23.8799 561.521 27.444 564.34 31.1485C564.946 31.888 565.459 32.5864 565.962 33.2849C566.29 33.7471 566.608 34.1579 566.885 34.6201C567.912 35.8732 568.692 37.0749 569.482 38.2356L570.508 39.6735C600.354 83.8396 613.451 143.495 620.717 202.389C621.618 210.461 622.046 218.579 622 226.701Z" fill="#AEC3FF"/>
<path d="M463 -48.2305V400H-71V66.4812C-70.5594 66.1474 -70.1296 65.8029 -69.689 65.4045L-69.4955 65.2107C-69.1494 64.9675 -68.8257 64.6936 -68.5284 64.3924L-68.2812 64.2417C-68.121 64.0642 -67.9448 63.902 -67.7546 63.7572C-67.6579 63.6603 -67.5612 63.6064 -67.4645 63.5095C-67.3678 63.4126 -67.1744 63.2726 -67.0239 63.1219C-66.9562 63.0448 -66.8764 62.9793 -66.7875 62.9281L-66.68 62.8312L-66.5833 62.7343C-66.3469 62.5405 -66.0997 62.3036 -65.8633 62.1098C-65.6269 61.916 -65.2293 61.5284 -64.8962 61.2377C-64.7736 61.1311 -64.6587 61.0159 -64.5523 60.8931C-64.2621 60.6455 -63.972 60.3548 -63.6281 60.0641L-63.3917 59.8272C-63.295 59.8272 -63.2412 59.6765 -63.1445 59.6334C-62.8114 59.2888 -62.4675 58.9981 -62.1774 58.6644C-62.1051 58.625 -62.0398 58.5741 -61.9839 58.5136L-61.4574 57.9753C-61.3202 57.8899 -61.203 57.7761 -61.1135 57.6415C-61.0267 57.5873 -60.9473 57.5222 -60.8771 57.4477C-60.788 57.3398 -60.6871 57.2423 -60.5762 57.157C-60.479 57.0294 -60.3672 56.9138 -60.2431 56.8124L-59.9959 56.5756C-59.8992 56.4787 -59.8562 56.3818 -59.7595 56.3279L-59.3189 55.8972L-58.3517 54.9175C-57.7714 54.293 -57.1374 53.6577 -56.5141 53.0332C-56.5117 53.0083 -56.5008 52.985 -56.4831 52.9674C-56.4655 52.9497 -56.4423 52.9387 -56.4174 52.9363C-56.1273 52.5918 -55.8371 52.3011 -55.547 51.9565L-55.2998 51.7196L-53.9458 50.2123L-53.7953 50.0723C-53.7953 49.9754 -53.6556 49.9216 -53.6019 49.8247C-53.1183 49.2863 -52.6348 48.8018 -52.1942 48.2742L-52.0007 48.0804V47.9835C-51.4634 47.4021 -50.9261 46.8207 -50.4533 46.2285L-50.3028 46.0885C-50.2696 46.0152 -50.2221 45.9493 -50.1631 45.8947L-48.6049 44.0535C-48.0784 43.3644 -47.5303 42.74 -47.0145 42.1047C-46.4987 41.4695 -45.9399 40.7911 -45.4133 40.1666C-45.4133 40.1128 -45.3166 40.0697 -45.3166 40.0159C-44.9297 39.5314 -44.5429 39.0469 -44.156 38.5193C-43.7691 37.9917 -43.4682 37.6902 -43.1781 37.3026C-42.9886 37.0878 -42.8127 36.8612 -42.6515 36.6243C-42.0175 35.8491 -41.4372 35.02 -40.8032 34.2448C-39.3095 32.2529 -37.848 30.2179 -36.3543 28.1722C-36.3005 28.1722 -36.2575 28.0322 -36.1608 27.9353C-35.817 27.4508 -35.5268 27.0094 -35.1937 26.5249C-34.994 26.2967 -34.8142 26.0517 -34.6564 25.7927C-34.2158 25.2113 -33.8289 24.716 -33.442 24.1023C-33.2958 23.9168 -33.1663 23.7186 -33.0552 23.5101C-32.765 23.1225 -32.4319 22.6918 -32.1418 22.2503C-31.8516 21.8089 -31.5507 21.4321 -31.2606 20.9906C-30.057 19.3002 -28.8212 17.5559 -27.6821 15.8117C-27.5424 15.6609 -27.4457 15.4671 -27.2952 15.3272C-27.1448 15.1872 -27.2952 15.3272 -27.2952 15.2303L-27.0051 14.7888C-26.5107 14.0567 -25.9305 13.3353 -25.5006 12.6354C-25.0708 11.9356 -24.297 10.8589 -23.7167 10.0298C-21.2451 6.34748 -18.8165 2.69746 -16.3448 -0.941786C-15.915 -1.62011 -15.4744 -2.24459 -14.9908 -2.87984C-14.9908 -2.87984 -14.9908 -2.97675 -14.8941 -3.03059C-14.8084 -3.21084 -14.692 -3.37478 -14.5502 -3.5151C-14.2171 -4.04268 -13.8302 -4.5918 -13.4756 -5.16245C-13.1855 -5.55006 -12.8953 -5.99151 -12.6052 -6.42219C-12.4117 -6.66983 -12.2183 -6.96054 -12.0249 -7.25125C-11.8314 -7.54196 -11.3908 -8.12338 -11.0577 -8.6079L-10.7676 -9.04934C-10.7135 -9.13628 -10.6485 -9.21589 -10.5741 -9.28622C-10.1873 -9.86764 -9.80041 -10.3629 -9.41355 -10.9336L-9.1234 -11.375C-8.62907 -12.0533 -8.1455 -12.7855 -7.66192 -13.4638C-7.17834 -14.1421 -6.65177 -14.8205 -6.16819 -15.4988C-6.0573 -15.6222 -5.97639 -15.7696 -5.93178 -15.9295L-5.78133 -16.0802C-5.64163 -16.274 -5.49119 -16.4678 -5.35149 -16.7047C-5.21178 -16.9416 -5.20104 -16.9523 -5.10432 -17.0492C-4.93154 -17.2668 -4.77013 -17.4932 -4.62074 -17.7275C-4.38433 -18.0721 -4.09418 -18.4059 -3.84702 -18.7504L-1.69778 -21.6575C-1.02077 -22.5296 -0.397493 -23.4125 0.290264 -24.2847C0.677127 -24.8122 1.10698 -25.3614 1.49384 -25.8351C1.8807 -26.3089 2.03115 -26.5673 2.32129 -26.9118C2.61144 -27.2563 2.99831 -27.7409 3.34219 -28.1715C3.67085 -28.6193 4.02991 -29.0438 4.41681 -29.4421L5.42695 -30.7449C7.57619 -33.3218 9.75767 -35.8341 11.9714 -38.2818C12.3582 -38.6694 12.7451 -39.1001 13.132 -39.5415C13.809 -40.2737 14.5397 -41.0489 15.2812 -41.7703C15.6143 -42.1579 15.9582 -42.5024 16.2913 -42.847L19.0101 -45.5603C19.3433 -45.9048 19.7301 -46.2493 20.0848 -46.637C20.3147 -46.8774 20.5587 -47.1039 20.8155 -47.3153C21.1057 -47.606 21.3958 -47.8967 21.6859 -48.1443C21.9761 -48.392 22.4059 -48.8227 22.7606 -49.221C22.7606 -49.221 22.9003 -49.3179 22.954 -49.4148L24.1146 -50.4915L25.4256 -51.6544C25.8125 -51.9989 26.1993 -52.3865 26.6292 -52.7311L26.8226 -52.9249C27.2632 -53.2694 27.6501 -53.6032 28.037 -53.9478C28.4238 -54.2923 28.8644 -54.6261 29.2513 -54.9168C29.348 -55.0137 29.4447 -55.0675 29.4877 -55.1644C29.9283 -55.4982 30.3151 -55.7889 30.745 -56.1335C31.1748 -56.478 31.6692 -56.8549 32.1098 -57.2102C32.5503 -57.5655 33.0769 -57.9423 33.5068 -58.2869C33.7539 -58.4807 34.0011 -58.6206 34.2375 -58.8144C34.4832 -58.967 34.7104 -59.1477 34.9145 -59.3528C35.1543 -59.4936 35.3809 -59.6557 35.5915 -59.8373C36.3223 -60.3757 37.0423 -60.914 37.8267 -61.3878C38.0374 -61.5693 38.264 -61.7315 38.5037 -61.8723C38.7496 -62.0686 39.008 -62.2484 39.2775 -62.4106C39.5175 -62.5992 39.7769 -62.7616 40.0512 -62.8951L41.5019 -63.9718C42.0392 -64.2626 42.5766 -64.5963 43.0601 -64.9409C43.5437 -65.2854 43.8768 -65.4685 44.3174 -65.7161C44.4486 -65.8154 44.5934 -65.8951 44.7473 -65.953V-66.0068C45.1771 -66.2545 45.564 -66.5452 46.0046 -66.782C46.4452 -67.0189 47.0792 -67.4173 47.6488 -67.7511L48.4762 -68.1925C48.757 -68.3703 49.0476 -68.5321 49.3467 -68.677C49.5811 -68.8229 49.8252 -68.9524 50.0774 -69.0646C53.0326 -70.712 56.1275 -72.2947 59.3299 -73.6729C59.5151 -73.7735 59.7094 -73.8564 59.9102 -73.9206L61.2212 -74.502C61.6511 -74.6958 62.0379 -74.8896 62.4785 -75.0403C62.6208 -75.0737 62.7533 -75.1401 62.8654 -75.2341C63.2092 -75.331 63.4994 -75.471 63.7895 -75.5679C64.0797 -75.6648 64.66 -75.9555 65.0898 -76.1063C65.5197 -76.257 65.8206 -76.397 66.1645 -76.5369C66.3464 -76.5824 66.523 -76.6474 66.691 -76.7307C67.2283 -76.9246 67.7656 -77.1184 68.2385 -77.2691C70.0331 -77.9474 71.9244 -78.5827 73.8158 -79.2072L75.5136 -79.7455C76.2336 -79.9393 76.9106 -80.1762 77.6629 -80.37C78.1465 -80.5207 78.63 -80.6176 79.0706 -80.7684L79.5972 -80.9083C80.1775 -81.0591 80.8115 -81.2529 81.4455 -81.3929C82.0796 -81.5328 82.7458 -81.7374 83.4336 -81.8774C84.1213 -82.0173 84.7339 -82.2219 85.4109 -82.3619L87.356 -82.8033C87.4007 -82.8219 87.4509 -82.8219 87.4956 -82.8033C88.1297 -82.9541 88.8497 -83.094 89.5374 -83.2448C107.656 -86.9379 128.869 -88.1007 154.111 -85.8612C158.034 -85.5274 161.87 -84.989 165.599 -84.3107C200.814 -78.0982 226.401 -58.7821 250.816 -44.7527C269.902 -33.8242 288.267 -26.0612 310.017 -30.2388C312.44 -30.6887 314.836 -31.2709 317.196 -31.9831L319.173 -32.5645L321.161 -33.1459C323.826 -33.975 326.534 -34.7071 329.156 -35.4823C330.37 -35.8161 331.585 -36.1607 332.788 -36.4514C332.899 -36.4968 333.014 -36.5293 333.132 -36.5483C333.755 -36.7421 334.347 -36.8821 334.927 -37.0328C335.507 -37.1835 336.184 -37.3773 336.764 -37.5173C338.914 -38.0987 340.977 -38.594 343.062 -39.1216L345.34 -39.703C349.166 -40.629 352.991 -41.5011 356.774 -42.3194L358.708 -42.7608C359.482 -42.9008 360.213 -43.0515 360.943 -43.2454C361.674 -43.4392 362.297 -43.493 362.974 -43.633C363.651 -43.7729 364.189 -43.8806 364.812 -44.0206C365.156 -44.0206 365.489 -44.1713 365.833 -44.2144L367.434 -44.5051C367.882 -44.5874 368.334 -44.6449 368.788 -44.6774L370.239 -44.9681C371.453 -45.1619 372.614 -45.3988 373.774 -45.5926C374.161 -45.6464 374.559 -45.7433 374.946 -45.7971L378.384 -46.3786C378.524 -46.3786 378.621 -46.3786 378.771 -46.3786C379.255 -46.4755 379.738 -46.5293 380.222 -46.6262C380.899 -46.7231 381.576 -46.82 382.253 -46.96C383.758 -47.1538 385.208 -47.4014 386.67 -47.5952C387.25 -47.6921 387.83 -47.7352 388.411 -47.8321C389.281 -47.929 390.109 -48.0259 390.979 -48.1766H391.119C395.772 -48.8119 400.371 -49.2533 404.885 -49.6302L406.776 -49.7809C408.323 -49.9209 409.871 -50.0178 411.418 -50.1147C411.561 -50.1561 411.71 -50.1742 411.859 -50.1685L414.33 -50.3085C415.201 -50.3623 416.028 -50.3623 416.845 -50.4054C417.92 -50.4054 418.994 -50.5023 419.994 -50.5023C420.585 -50.5562 421.165 -50.5992 421.745 -50.5992C422.562 -50.5992 423.39 -50.5992 424.163 -50.5992C425.378 -50.5992 426.538 -50.5992 427.699 -50.5992C431.288 -50.5992 434.727 -50.5992 438.166 -50.4054L441.701 -50.2654C443.248 -50.2116 444.807 -50.1147 446.3 -49.9747C448.245 -49.824 450.137 -49.684 451.974 -49.4902C453.812 -49.2964 455.37 -49.1457 457.014 -48.9519C457.691 -48.9519 458.325 -48.8119 459.002 -48.715L461.033 -48.4135L463 -48.2305Z" fill="#AEC3FF"/>
<path opacity="0.3" d="M224.528 326.496H18.2952L20.3479 309.128L24.2787 276.856L63.2798 -44.8787V-44.9301C63.6903 -45.1663 64.0598 -45.4437 64.4806 -45.6696C64.9014 -45.8956 65.5069 -46.2756 66.0509 -46.594L66.8412 -47.0152C67.1093 -47.1848 67.3869 -47.3391 67.6725 -47.4774C67.8964 -47.6165 68.1296 -47.7401 68.3704 -47.8471C71.1929 -49.4186 74.1487 -50.9285 77.2072 -52.2432C77.3842 -52.3391 77.5697 -52.4182 77.7614 -52.4794L79.0136 -53.0341C79.4241 -53.2189 79.7936 -53.4038 80.2144 -53.5476C80.3503 -53.5795 80.4769 -53.6428 80.5839 -53.7325C80.9123 -53.8249 81.1894 -53.9585 81.4665 -54.0509C81.7437 -54.1433 82.2979 -54.4207 82.7084 -54.5645C83.119 -54.7083 83.4063 -54.8418 83.7348 -54.9753C83.9085 -55.0187 84.0771 -55.0807 84.2377 -55.1602C84.7508 -55.3451 85.264 -55.53 85.7156 -55.6738C87.4296 -56.3208 89.2359 -56.9268 91.0423 -57.5226L92.6639 -58.0361C93.3516 -58.221 93.9982 -58.447 94.7166 -58.6319C95.1785 -58.7756 95.6403 -58.8681 96.0611 -59.0119L96.564 -59.1454C97.1183 -59.2892 97.7238 -59.4741 98.3293 -59.6076C98.9349 -59.7411 99.5712 -59.9363 100.228 -60.0698C100.885 -60.2033 101.47 -60.3985 102.117 -60.532L103.974 -60.9531C104.017 -60.9708 104.065 -60.9708 104.108 -60.9531C104.713 -61.0969 105.401 -61.2305 106.058 -61.3743C123.362 -64.8973 143.622 -66.0066 167.731 -63.8701C171.477 -63.5517 175.141 -63.0382 178.702 -62.3911L219.51 284.353L220.156 290.095L220.577 293.659L221.039 297.316V297.367L222.199 307.268L222.424 309.169L223.451 318.105L224.528 326.496Z" fill="white"/>
<path opacity="0.3" d="M423.772 326.496H217.539L217.765 324.74L219.664 309.128L220.362 303.068L221.1 297.275L221.891 290.65V290.331L223.512 276.804L226.283 253.982L228.552 235.36L241.381 130.204L242.346 122.1L260.153 -24.6959C278.381 -14.2707 295.921 -6.86515 316.694 -10.8504C319.008 -11.2795 321.297 -11.835 323.55 -12.5143L325.438 -13.0689L327.337 -13.6236C329.882 -14.4145 332.469 -15.1129 334.973 -15.8524C336.133 -16.1708 337.293 -16.4995 338.442 -16.7768C338.548 -16.8201 338.658 -16.8512 338.771 -16.8693C339.366 -17.0542 339.93 -17.1877 340.485 -17.3315C341.039 -17.4753 341.685 -17.6602 342.24 -17.7937C344.292 -18.3483 346.263 -18.8208 348.254 -19.3241L350.43 -19.8787C354.084 -20.762 357.737 -21.594 361.35 -22.3746L363.198 -22.7957C363.937 -22.9293 364.634 -23.0731 365.332 -23.2579C366.03 -23.4428 366.626 -23.4942 367.272 -23.6277C367.919 -23.7612 368.432 -23.8639 369.027 -23.9975C369.356 -23.9975 369.674 -24.1413 370.002 -24.1824L371.531 -24.4597C371.934 -24.5598 372.342 -24.6387 372.753 -24.6959L374.138 -24.9732C375.298 -25.1581 376.407 -25.3841 377.515 -25.569C377.885 -25.6203 378.264 -25.7128 378.634 -25.7641L381.918 -26.3188C382.051 -26.3188 382.144 -26.3188 382.288 -26.3188L421.75 309.169V309.446L423.772 326.496Z" fill="white"/>
<path d="M213.259 162.383C212.145 161.511 210.941 160.76 209.667 160.144C208.548 159.785 206.393 158.09 206.106 158.809C205.818 159.528 207.563 160.555 207.471 161.346C207.378 162.137 201.959 163.4 201.99 164.232C202.134 165.001 202.553 165.69 203.169 166.17C203.786 166.651 204.556 166.889 205.336 166.841C207.388 166.615 212.643 165.372 213.711 165.906C214.778 166.44 213.259 162.383 213.259 162.383Z" fill="#FFB27D"/>
<path d="M268.712 150.756C265.851 154.598 262.384 157.949 258.449 160.678C251.157 165.643 242.813 168.846 234.073 170.035C229.003 170.241 221.696 168.043 216.174 167.149C215.007 166.983 213.849 166.757 212.705 166.471C212.705 166.471 211.791 165.629 212.048 163.297C212.201 162.815 212.448 162.368 212.777 161.983C212.777 161.983 232.37 160.196 235.716 158.634C240.699 154.197 245.075 149.12 248.73 143.536C251.295 139.622 252.835 137.219 253.605 136.921C260.358 134.322 278.206 138 268.712 150.756Z" fill="#22407A"/>
<path d="M246.205 310.083H268.589C270.19 309.004 268.158 298.363 268.158 298.363C268.158 298.363 262.051 296.042 260.974 300.757C259.896 305.471 253.194 306.919 249.633 307.546C247.221 307.936 246.451 309.282 246.205 310.083Z" fill="#233862"/>
<path d="M279.356 310.083H301.74C303.351 309.004 301.309 298.363 301.309 298.363C301.309 298.363 295.202 296.042 294.125 300.757C293.047 305.471 286.345 306.919 282.784 307.546C280.382 307.936 279.643 309.282 279.356 310.083Z" fill="#233862"/>
<path d="M252.229 201.537C252.229 201.537 253.256 214.099 254.415 229.197C256.027 249.74 260.358 300.561 260.358 300.561C260.358 300.561 263.201 302.985 269.492 301.66C273.011 289.389 275.341 276.807 276.451 264.088C276.451 263.76 276.502 263.431 276.533 263.061C278.021 242.673 280.341 199.75 280.341 199.75L252.229 201.537Z" fill="#233862"/>
<path d="M258.305 197.192C258.305 197.192 274.296 237.014 279.356 252.102C282.999 262.856 293.263 300.572 293.263 300.572C294.645 300.939 296.088 301.016 297.501 300.797C298.915 300.578 300.267 300.067 301.473 299.298C301.473 299.298 305.291 260.771 297.573 249.904C293.468 244.142 296.547 189.982 279.961 189.52C263.375 189.058 258.305 197.192 258.305 197.192Z" fill="#2B478B"/>
<path d="M265.449 138.493C267.558 139.619 270.002 139.951 272.335 139.427C273.994 139.053 275.572 138.385 276.995 137.455C277.663 137.037 278.295 136.563 278.884 136.038L278.658 135.678C277.939 134.446 275.753 130.009 276.728 122.88C276.127 122.875 275.529 122.976 274.963 123.178C271.791 123.928 265.418 125.736 265.141 125.818C265.141 125.818 265.059 127.317 264.792 129.998C264.792 130.234 264.792 130.481 264.72 130.738C264.648 130.995 264.658 131.395 264.617 131.765C264.547 134.037 264.827 136.306 265.449 138.493Z" fill="#FFB27D"/>
<path d="M264.781 129.998C269.523 131.087 276.584 124.092 276.584 124.092C276.085 123.719 275.54 123.412 274.963 123.178C271.791 123.928 265.418 125.736 265.141 125.818C265.141 125.818 265.048 127.317 264.781 129.998Z" fill="#ED975D"/>
<path d="M263.18 125.438C264.619 125.921 266.1 126.265 267.604 126.465C271.237 126.958 276.01 126.67 277.508 122.274C280.033 114.879 283.256 110.442 275.825 107.422C271.853 105.81 269.308 105.717 267.614 106.333C266.314 106.836 265.226 107.772 264.535 108.983C263.078 111.253 260.173 124.144 263.18 125.438Z" fill="#FFB27D"/>
<path d="M258.665 109.548C262.975 112.63 268.928 109.548 270.775 110.421C272.623 111.294 272.951 114.345 272.992 115.331C273.033 116.317 273.146 117.149 275.661 116.564C275.961 116.464 276.287 116.482 276.574 116.615C277.601 117.231 276.287 120.23 275.887 120.877C275.887 120.877 275.302 123.024 276.584 124.072C276.738 124.195 279.263 125.294 285.329 116.009C286.019 114.817 286.414 113.477 286.482 112.102C286.549 110.726 286.288 109.354 285.719 108.1C284.251 104.937 278.093 101.876 272.879 100.253C271.428 99.6915 269.831 99.6336 268.343 100.089C266.454 100.777 265.449 102.564 264.443 104.361C262.77 107.402 258.665 109.548 258.665 109.548Z" fill="#163560"/>
<path d="M290.768 195.487C291.107 198.065 288.613 199.452 286.355 199.976C286.355 199.976 284.303 200.428 281.644 200.869C279.043 201.357 276.407 201.642 273.762 201.722C266.763 201.611 259.818 200.465 253.153 198.322C251.039 198.322 250.074 195.046 249.725 190.485C249.529 187.009 249.529 183.525 249.725 180.05C249.725 178.858 249.848 177.677 249.92 176.516C250.064 174.205 250.238 171.987 250.392 170.035C250.546 168.084 250.68 166.584 250.762 165.331C251.7 159.338 252.29 153.295 252.527 147.233C252.609 141.718 253.759 138.359 254.58 137.537C256.827 135.165 263.334 133.655 264.638 133.429H264.792C270.139 136.438 277.354 132.402 277.354 132.402L277.837 132.504C278.549 132.498 279.26 132.557 279.961 132.679C282.794 133.09 287.659 134.168 289.701 136.295C290.727 137.322 290.943 140.701 290.851 144.224C290.707 149.144 289.947 154.413 289.947 154.413C290.112 158.367 290.163 163.071 290.183 167.899C290.183 175.767 290.183 183.994 290.42 189.951C290.45 192.129 290.584 194.029 290.768 195.487Z" fill="#E9F3FE"/>
<path d="M306.102 203.088C306.102 203.088 309.961 209.148 310.207 211.469C310.361 213.051 310.002 219.275 309.181 219.296C308.073 219.296 306.964 215.454 306.533 214.448C306.102 213.441 305.599 212.661 305.168 212.661C304.737 212.661 306.102 216.533 305.168 216.102C304.234 215.67 302.664 212.086 302.52 211.223C302.376 210.36 303.362 207.597 302.879 206.519C302.397 205.44 306.102 203.088 306.102 203.088Z" fill="#FFB27D"/>
<path d="M260.317 189.232C260.433 191.018 261.129 192.716 262.298 194.07L264.063 196.124C264.156 196.24 264.277 196.332 264.414 196.39C264.55 196.449 264.7 196.473 264.848 196.459C264.996 196.446 265.139 196.396 265.264 196.315C265.388 196.233 265.49 196.122 265.562 195.991L267.696 192.642C268.279 191.688 268.535 190.571 268.425 189.458C268.199 186.901 267.778 181.981 267.399 177.225C267.111 173.373 266.886 169.635 266.844 167.365C266.721 160.103 267.676 136.972 267.676 136.972L266.259 137.044C263.833 143.9 262.114 150.987 261.128 158.193C260.697 161.192 260.379 164.355 260.235 167.714C260.235 167.663 259.629 180.871 260.317 189.232Z" fill="#22407A"/>
<path d="M278.771 132.741C278.771 132.124 276.348 131.364 276.348 131.364C276.348 131.364 273.013 135.986 267.522 136.069C267.522 136.069 269.092 139.15 270.929 139.91C270.929 139.91 278.699 137.281 278.771 132.741Z" fill="#D9E9F9"/>
<path d="M267.522 135.966C267.522 135.966 264.617 134.24 264.607 132.361C263.679 132.514 262.812 132.923 262.103 133.542C262.103 133.542 261.22 136.243 262.103 138.112C262.134 138.112 266.321 137.476 267.522 135.966Z" fill="#D9E9F9"/>
<path d="M269.492 135.688L265.551 134.744C265.474 134.755 265.399 134.781 265.332 134.822C265.265 134.862 265.206 134.915 265.159 134.978C265.112 135.041 265.079 135.113 265.06 135.189C265.041 135.265 265.037 135.344 265.048 135.421C265.291 136.46 265.851 137.397 266.649 138.102C267.132 138.246 270.426 136.983 269.492 135.688Z" fill="#233862"/>
<path d="M278.771 132.515C278.771 131.898 276.831 130.635 276.831 130.635C276.831 130.635 273.013 135.093 267.522 135.175C267.522 135.175 269.092 138.256 270.929 139.006C270.929 139.006 278.586 136.171 278.771 132.515Z" fill="#E9F3FE"/>
<path d="M267.522 135.226C267.522 135.226 264.576 133.665 264.566 131.796C263.615 132.211 262.741 132.784 261.98 133.49C261.547 134.759 261.602 136.143 262.134 137.373C262.134 137.373 266.321 136.685 267.522 135.226Z" fill="#E9F3FE"/>
<path d="M294.802 205.337C294.802 205.337 290.348 208.203 282.424 208.511C279.345 208.624 270.047 207.813 270.047 207.813L270.201 183.891L277.067 134.815L280.567 134.661C280.331 133.973 280.105 133.285 279.9 132.607C282.732 133.018 287.597 134.096 289.64 136.223C290.532 137.137 290.81 139.756 290.81 142.714L292.698 172.408L293.991 192.673L294.802 205.337Z" fill="#22407A"/>
<path d="M258.305 180.676V205.943L248.678 204.608C248.678 204.608 248.073 165.896 248.052 156.672C248.032 147.449 253.553 136.921 253.553 136.921C255.882 135.474 258.377 134.315 260.984 133.47L258.305 180.676Z" fill="#22407A"/>
<path d="M294.104 194.46C294.104 194.46 283.194 162.989 283.122 161.377L290.173 164.242L292.698 172.408L294.104 194.46Z" fill="#233862"/>
<path d="M262.78 132.823C260.505 143.85 259.282 155.069 259.126 166.327C259.065 170.641 258.47 179.382 258.305 181.929C258.305 181.929 253.902 160.76 253.81 154.629C253.81 154.629 256.653 152.574 256.653 151.845C256.653 151.116 253.574 149.329 253.574 149.329C253.574 149.329 255.914 137.332 257.238 135.822C258.829 133.983 262.78 132.823 262.78 132.823Z" fill="#233862"/>
<path d="M288.593 135.421C288.593 135.421 294.104 137.887 298.476 156.138C301.802 169.902 308.093 205.07 308.093 205.07L302.746 207.268C302.746 207.268 283.245 162.352 280.402 156.036C277.559 149.719 288.593 135.421 288.593 135.421Z" fill="#22407A"/>
<path d="M277.857 131.364C277.857 131.364 268.753 169.522 270.201 183.891C270.201 183.891 273.557 168.536 281.603 155.954C281.603 155.954 278.668 153.365 278.822 152.41C280.224 152.031 281.691 151.961 283.122 152.205C283.122 152.205 282.435 134.908 281.511 132.926C280.957 131.744 277.857 131.364 277.857 131.364Z" fill="#233862"/>
<path d="M265.356 121.432C265.233 122.038 264.782 122.459 264.33 122.367C263.878 122.274 263.653 121.709 263.776 121.114C263.899 120.518 264.35 120.087 264.802 120.179C265.254 120.271 265.49 120.847 265.356 121.432Z" fill="white"/>
<path d="M118.949 130.789C118.949 130.789 132.394 130.666 135.627 135.216C138.86 139.766 143.16 168.567 142.257 172.316C140.143 180.995 131.624 168.947 127.775 163.975C123.926 159.004 118.949 130.789 118.949 130.789Z" fill="#22407A"/>
<path d="M141.939 164.427L145.562 193.464H135.196L132.373 170.816L141.939 164.427Z" fill="#22407A"/>
<path d="M109.937 310.268C109.661 308.149 109.105 306.077 108.285 304.105C107.135 301.804 99.8278 303.263 99.8278 303.263C99.8278 303.263 98.3602 304.516 98.042 310.37L109.937 310.268Z" fill="#233862"/>
<path d="M134.857 310.216C133.143 309.189 134.118 301.332 134.118 301.332C134.118 301.332 142.123 294.923 143.232 299.832C144.34 304.742 150.837 306.95 154.522 307.546C157.077 307.967 157.867 309.384 158.114 310.216H134.857Z" fill="#233862"/>
<path d="M118.271 253.252C118.549 254.681 118.745 256.125 118.856 257.577C119.595 272.11 131.08 305.348 133.133 306.118C136.314 307.32 141.343 304.773 143.93 303.93C144.461 303.777 144.917 303.431 145.209 302.961C145.501 302.49 145.608 301.928 145.51 301.383C139.824 275.222 137.731 237.558 136.971 215.259C136.797 208.869 136.017 202.51 134.641 196.268C134.641 196.268 106.643 188.79 106.478 198.25C106.345 206.621 115.767 239.448 118.271 253.252Z" fill="#233862"/>
<path d="M118.271 253.252L136.971 215.249C136.797 208.862 136.016 202.507 134.641 196.268C134.641 196.268 106.643 188.79 106.478 198.25C106.345 206.621 115.767 239.448 118.271 253.252Z" fill="#233862"/>
<path d="M124.501 198.281L109.691 305.646C109.691 305.646 103.194 307.217 98.1343 305.964C98.1343 305.964 93.8031 248.867 94.1624 235.093C94.5216 221.319 91.0833 198.117 94.9629 195.611C98.8425 193.104 124.501 198.281 124.501 198.281Z" fill="#233862"/>
<path d="M93.9161 170.723L92.0686 196.494C92.0359 196.97 92.1695 197.442 92.4467 197.83C92.7238 198.218 93.1272 198.497 93.5876 198.62C95.6403 199.216 98.0317 199.647 102.619 200.592C108.296 201.734 114.072 202.312 119.862 202.318C131.203 202.39 135.493 198.486 135.493 198.486C135.986 198.486 135.237 196.114 134.569 184.826C134.344 181.005 134.118 176.157 133.964 170.025C133.82 164.509 133.718 157.956 133.718 150.191C133.718 140.845 119.246 130.789 118.979 130.789C118.979 132.135 116.865 134.62 113.601 134.836C109.722 135.083 104.877 132.289 104.877 130.05C104.533 130.386 104.22 130.754 103.943 131.149C100.1 138.387 97.2515 146.113 95.4761 154.115C95.1579 155.625 94.9116 157.196 94.7166 158.912V158.994L94.614 159.877C94.614 159.939 94.614 159.99 94.614 160.041C94.614 160.329 94.5524 160.617 94.5319 160.904C94.5319 160.986 94.5934 161.13 94.5319 161.151C93.7518 161.346 91.6273 168.464 94.0905 168.392C94.8398 168.392 94.029 169.902 93.9982 170.682L93.9161 170.723Z" fill="#E9F3FE"/>
<path d="M119.082 128.735V130.091C119.082 130.091 119.462 134.446 114.114 135.072C108.767 135.699 104.703 133.377 104.877 130.019C105.405 127.875 105.748 125.689 105.904 123.486C105.919 122.616 105.857 121.747 105.719 120.888L116.085 120.682L119.164 121.175L119.082 128.735Z" fill="#FFB27D"/>
<path d="M111.22 181.364L111.374 204.803L90.6625 202.379L92.1507 145.929L102.599 142.714L107.3 155.635L111.22 181.364Z" fill="#22407A"/>
<path d="M119.123 121.206V126.588C117.61 127.085 115.993 127.177 114.433 126.855C109.742 126.013 107.495 124.411 105.883 121.874C105.883 121.073 105.883 121.874 105.74 120.919L116.106 120.713L119.123 121.206Z" fill="#E2915A"/>
<path d="M104.877 119.244C106.088 125.725 114.443 125.51 118.056 125.109C119.082 124.996 119.708 124.863 119.708 124.863C120.858 124.555 121.494 122.747 121.761 120.384C122.346 115.701 121.607 108.829 120.816 107.032C119.626 104.382 117.378 101.527 108.972 103.591C100.567 105.656 103.358 110.945 104.877 119.244Z" fill="#FFB27D"/>
<path d="M123.444 100.9C120.66 100.581 117.941 99.8435 115.377 98.7122C111.826 97.1716 107.351 98.8766 105.904 99.6367C105.957 99.3242 106.076 99.0266 106.253 98.7636C105.882 99.0352 105.617 99.4274 105.503 99.8729C105.442 99.8729 105.411 99.9551 105.432 99.9653C105.024 99.892 104.604 99.9203 104.21 100.048C104.21 100.048 104.549 100.048 104.662 100.212C104.68 100.235 104.7 100.256 104.723 100.273C99.1914 102.944 98.6783 111.695 100.454 113.718C102.3 116.056 103.964 118.532 105.432 121.124C105.432 121.124 106.099 120.343 105.709 118.197C105.319 116.05 107.176 116.06 109.506 115.115C111.836 114.17 109.896 111.407 111.939 109.754C113.981 108.1 121.484 109.076 121.381 107.813C124.162 106.765 123.444 101.188 123.444 100.9Z" fill="#233862"/>
<path d="M103.143 129.711C103.143 129.022 105.863 128.17 105.863 128.17C105.863 128.17 109.599 133.357 115.757 133.449C115.757 133.449 114.002 136.859 111.939 137.743C111.939 137.743 103.225 134.744 103.143 129.711Z" fill="#D9E9F9"/>
<path d="M115.757 133.326C115.757 133.326 119.02 131.385 119.031 129.29C120.071 129.456 121.043 129.916 121.833 130.615C121.833 130.615 122.859 133.645 121.833 135.75C121.812 135.73 117.111 135.021 115.757 133.326Z" fill="#D9E9F9"/>
<path d="M113.54 133.008L117.963 131.981C118.051 131.993 118.136 132.023 118.212 132.069C118.289 132.115 118.355 132.175 118.408 132.247C118.46 132.319 118.498 132.4 118.519 132.487C118.539 132.573 118.542 132.663 118.528 132.751C118.267 133.916 117.641 134.966 116.742 135.75C116.167 135.884 112.503 134.466 113.54 133.008Z" fill="#BA4C43"/>
<path d="M103.143 129.454C103.143 128.766 105.319 127.4 105.319 127.4C105.319 127.4 109.599 132.402 115.757 132.535C115.757 132.535 114.002 135.956 111.939 136.839C111.939 136.736 103.348 133.552 103.143 129.454Z" fill="#E9F3FE"/>
<path d="M115.757 132.433C115.757 132.433 119.061 130.686 119.072 128.591C120.142 129.058 121.127 129.7 121.986 130.491C122.471 131.914 122.409 133.467 121.812 134.846C121.812 134.846 117.111 134.127 115.757 132.433Z" fill="#E9F3FE"/>
<path d="M123.844 193.063C123.703 195.067 122.922 196.971 121.617 198.497L119.636 200.736C119.53 200.862 119.396 200.961 119.244 201.024C119.091 201.087 118.926 201.113 118.762 201.099C118.598 201.085 118.44 201.031 118.301 200.943C118.162 200.855 118.046 200.734 117.963 200.592L115.572 196.853C114.916 195.783 114.624 194.529 114.741 193.279C114.997 190.413 115.48 184.898 115.87 179.567C116.188 175.243 116.444 171.052 116.485 168.505C116.619 160.36 115.551 134.415 115.551 134.415L117.142 134.497C119.87 142.186 121.81 150.132 122.931 158.213C123.452 161.754 123.794 165.32 123.957 168.895C123.957 168.895 124.614 183.686 123.844 193.063Z" fill="#C65447"/>
<path d="M130.885 179.002L132.373 207.813H140.255L135.575 143.926L122.058 133.84L126.862 154.166L130.885 179.002Z" fill="#22407A"/>
<path d="M121.094 129.813C121.094 129.813 126.359 153.026 129.109 168.68C129.859 172.922 130.721 176.465 130.885 179.002C130.885 179.002 129.971 157.741 130.064 151.619C130.064 151.619 126.277 149.616 126.277 148.907C126.277 148.199 130.31 146.309 130.31 146.309C130.31 146.309 127.765 133.213 126.369 131.775C124.973 130.337 121.094 129.813 121.094 129.813Z" fill="#233862"/>
<path d="M94.5524 160.083C94.5524 160.083 97.9086 171.473 107.413 174.544L88.107 172.336C88.107 172.336 87.3065 160.976 88.107 160.791C88.9076 160.606 94.5524 160.083 94.5524 160.083Z" fill="#233862"/>
<path d="M102.732 130.789C102.732 130.789 93.1155 130.05 89.1949 134.117C83.8579 139.643 77.9051 172.716 80.1733 179.187C81.5897 183.152 98.6475 180.399 108.223 180.666V174.329C108.223 174.329 93.0847 170.826 93.0847 166.184C93.0847 163.082 102.732 130.789 102.732 130.789Z" fill="#22407A"/>
<path d="M103.564 128.848C103.564 128.848 112.667 166.995 111.22 181.375C111.22 181.375 107.874 165.968 99.8175 153.427C99.8175 153.427 102.753 150.849 102.599 149.894C101.197 149.514 99.7309 149.441 98.2985 149.678C98.2985 149.678 98.5346 133.244 99.8483 131.498C100.858 130.33 102.132 129.422 103.564 128.848Z" fill="#233862"/>
<path d="M108.223 175.602C108.223 175.602 114.823 174.226 115.839 174.575C119.636 175.767 121.997 179.053 121.997 179.762C121.997 180.471 108.172 179.762 108.172 179.762L108.223 175.602Z" fill="#FFB27D"/>
<path d="M310.864 211.192H240.94V310.093H310.864V211.192Z" fill="#F99746"/>
<path d="M316.889 179.187H234.915V213.842H316.889V179.187Z" fill="#F99746"/>
<path d="M234.915 213.842L240.94 222.531H310.864L316.889 213.842H234.915Z" fill="#ED7D2B"/>
<path d="M237.44 310.083L239.41 303.93H312.383L313.995 310.083H237.44Z" fill="#ED7D2B"/>
<path d="M246.841 179.187H240.94C240.984 178.434 241.314 177.726 241.863 177.209C242.411 176.691 243.137 176.403 243.89 176.403C244.644 176.403 245.369 176.691 245.918 177.209C246.466 177.726 246.797 178.434 246.841 179.187Z" fill="#ED7D2B"/>
<path d="M244.162 177.102H243.618C244.451 170.614 247.29 164.548 251.737 159.754L252.137 160.113C247.769 164.802 244.98 170.744 244.162 177.102Z" fill="#ED7D2B"/>
<path d="M250.69 161.151C250.609 161.071 250.546 160.975 250.502 160.87C250.459 160.766 250.436 160.653 250.436 160.54C250.436 160.426 250.459 160.314 250.502 160.209C250.546 160.104 250.609 160.009 250.69 159.928L251.973 158.645C252.135 158.488 252.352 158.4 252.578 158.4C252.804 158.4 253.021 158.488 253.184 158.645C253.264 158.725 253.328 158.82 253.372 158.925C253.415 159.03 253.437 159.142 253.437 159.256C253.437 159.369 253.415 159.482 253.372 159.587C253.328 159.691 253.264 159.787 253.184 159.867L251.911 161.151C251.831 161.231 251.736 161.295 251.631 161.339C251.526 161.382 251.414 161.404 251.301 161.404C251.187 161.404 251.075 161.382 250.97 161.339C250.865 161.295 250.77 161.231 250.69 161.151Z" fill="#ED7D2B"/>
<path d="M162.178 211.192H92.2534V310.093H162.178V211.192Z" fill="#F99746"/>
<path d="M168.203 179.187H86.2288V213.842H168.203V179.187Z" fill="#F99746"/>
<path d="M86.2288 213.842L92.2431 222.531H162.178L168.192 213.842H86.2288Z" fill="#ED7D2B"/>
<path d="M88.7433 310.083L90.7139 303.93H163.697L165.298 310.083H88.7433Z" fill="#ED7D2B"/>
<path d="M159.818 179.187H165.719C165.675 178.434 165.344 177.726 164.796 177.209C164.247 176.691 163.522 176.403 162.768 176.403C162.014 176.403 161.289 176.691 160.741 177.209C160.192 177.726 159.862 178.434 159.818 179.187Z" fill="#2B478B"/>
<path d="M162.496 177.102C161.681 170.734 158.892 164.782 154.522 160.083L154.912 159.723C159.368 164.511 162.208 170.58 163.03 177.071L162.496 177.102Z" fill="#2B478B"/>
<path d="M155.969 161.151C156.126 160.986 156.214 160.767 156.214 160.54C156.214 160.312 156.126 160.093 155.969 159.928L154.686 158.645C154.521 158.487 154.303 158.399 154.075 158.399C153.848 158.399 153.629 158.487 153.464 158.645C153.307 158.809 153.219 159.028 153.219 159.256C153.219 159.483 153.307 159.702 153.464 159.867L154.747 161.151C154.827 161.231 154.923 161.295 155.027 161.339C155.132 161.382 155.245 161.405 155.358 161.405C155.472 161.405 155.584 161.382 155.689 161.339C155.793 161.295 155.889 161.231 155.969 161.151Z" fill="#2B478B"/>
<path d="M156.441 189.499H109.301V199.791H156.441V189.499Z" fill="#EBF3FA"/>
<path d="M139.137 192.201H125.558V193.464H139.137V192.201Z" fill="#22407A"/>
<path d="M145.572 195.251H119.133V196.514H145.572V195.251Z" fill="#22407A"/>
<path d="M301.186 189.499H254.046V199.791H301.186V189.499Z" fill="#EBF3FA"/>
<path d="M283.882 192.201H270.303V193.464H283.882V192.201Z" fill="#22407A"/>
<path d="M290.307 195.251H263.868V196.514H290.307V195.251Z" fill="#22407A"/>
<path d="M462.866 309.138H-27.9929V436.839H462.866V309.138Z" fill="#ED7D2B"/>
<path d="M248.945 276.996L247.69 277.757L249.396 280.577L250.651 279.817L248.945 276.996Z" fill="#2B478B"/>
<path d="M94.614 436.839C94.614 436.839 112.842 387.137 116.567 371.587C119.759 358.234 125.261 344.317 135.113 340.352C140.8 338.12 146.707 336.498 152.736 335.514C154.227 333.894 156.066 332.633 158.114 331.827C158.234 329.712 158.158 327.591 157.888 325.49C154.195 322.635 151.506 318.678 150.211 314.191C148.61 312.435 147.224 309.641 147.645 308.439C147.738 308.124 147.92 307.843 148.169 307.628C147.916 307.22 147.693 306.794 147.501 306.354C145.777 304.957 146.034 301.476 145.007 299.945C143.755 298.086 142.236 293.3 143.488 291.78C144.741 290.259 145.295 288.287 145.623 284.128C145.952 279.968 148.959 281.858 151.473 281.303C153.988 280.748 153.526 279.957 154.758 276.938C155.989 273.918 158.791 274.154 163.081 275.038C167.371 275.921 166.479 273.148 170.892 272.521C175.305 271.895 177.05 276.054 180.96 276.085C184.871 276.116 185.527 280.471 189.058 282.741C192.589 285.011 189.058 292.55 189.058 292.55C189.222 294.234 189.058 292.55 190.803 295.487C192.548 298.425 189.561 300.192 190.628 303.982C191.696 307.772 187.744 307.381 187.744 307.381C187.744 307.433 187.744 307.484 187.744 307.536C187.927 307.432 188.132 307.374 188.342 307.366C188.551 307.358 188.76 307.399 188.951 307.488C189.141 307.576 189.308 307.708 189.437 307.874C189.567 308.039 189.655 308.233 189.694 308.439C190.331 310.257 186.851 315.711 184.706 315.711C183.239 320.662 181.145 323.723 178.846 325.685C178.669 327.487 178.587 329.297 178.6 331.108C180.803 331.801 182.882 332.841 184.758 334.189C191.429 331.169 209.595 321.792 215.312 307.104C222.353 288.986 230.009 272.408 230.009 272.408C230.009 272.408 227.012 261.664 228.767 257.453L224.313 251.085L222.342 252.318L221.09 250.263L222.619 249.339C221.923 248.778 221.329 248.101 220.864 247.336C220.321 246.453 219.957 245.471 219.794 244.447C219.632 243.422 219.674 242.376 219.917 241.368C220.161 240.359 220.601 239.409 221.213 238.573C221.826 237.736 222.597 237.028 223.484 236.491C224.371 235.954 225.355 235.599 226.38 235.444C227.405 235.29 228.45 235.34 229.456 235.592C230.461 235.844 231.407 236.293 232.238 236.912C233.069 237.532 233.77 238.31 234.299 239.201C234.764 239.963 235.091 240.801 235.264 241.677L236.793 240.752L238.045 242.807L236.085 243.998L239.534 250.53C240.786 250.048 241.75 249.924 242.182 250.53C245.209 254.444 245.599 258.008 245.014 260.956L252.414 274.914L244.398 279.773L239.954 273.435C239.688 274.575 239.554 275.376 239.554 275.376C239.554 275.376 248.073 308.583 233.478 330.522C227.125 340.075 217.477 352.698 208.61 363.904C209.349 391.543 206.557 435.597 206.557 435.597H129.51C129.51 435.597 129.602 426.681 129.859 414.304L120.273 435.566L94.614 436.839Z" fill="#2B478B"/>
<path d="M3.74222 277.002L2.48669 277.763L4.19287 280.583L5.44839 279.823L3.74222 277.002Z" fill="#2B478B"/>
<path d="M-110.069 340.352C-104.383 338.12 -98.4758 336.498 -92.4472 335.514C-90.9469 333.893 -89.102 332.629 -87.0486 331.817C-86.9307 329.702 -87.0028 327.581 -87.2642 325.479C-90.9603 322.625 -93.6527 318.668 -94.9515 314.181C-96.5525 312.425 -97.9279 309.631 -97.5071 308.429C-97.4172 308.115 -97.2391 307.833 -96.9939 307.618C-97.2467 307.21 -97.4696 306.784 -97.661 306.344C-99.3853 304.947 -99.1184 301.465 -100.155 299.935C-101.397 298.076 -102.926 293.289 -101.664 291.769C-100.401 290.249 -99.8574 288.277 -99.5289 284.117C-99.2005 279.957 -96.2036 281.847 -93.6788 281.293C-91.154 280.738 -91.6261 279.947 -90.4048 276.927C-89.1834 273.908 -86.3712 274.144 -82.0811 275.027C-77.791 275.911 -78.6737 273.137 -74.2604 272.511C-69.8471 271.884 -68.1023 276.044 -64.2022 276.075C-60.3021 276.106 -59.635 280.461 -56.1044 282.731C-52.5738 285.001 -56.1044 292.54 -56.1044 292.54C-55.9299 294.224 -56.1044 292.54 -54.3494 295.477C-52.5943 298.415 -55.6015 300.181 -54.5341 303.971C-53.4667 307.761 -57.4079 307.371 -57.4079 307.371V307.525C-57.2242 307.422 -57.0188 307.364 -56.8085 307.356C-56.5982 307.348 -56.3889 307.389 -56.1977 307.478C-56.0065 307.566 -55.8389 307.698 -55.7085 307.863C-55.5781 308.029 -55.4887 308.223 -55.4475 308.429C-54.8112 310.247 -58.3008 315.701 -60.4356 315.701C-61.9135 320.652 -64.0072 323.713 -66.296 325.674C-66.4725 327.477 -66.5547 329.287 -66.5423 331.098C-64.3374 331.787 -62.258 332.827 -60.3842 334.179C-53.7028 331.159 -35.5365 321.782 -29.83 307.094C-22.892 288.955 -15.2047 272.377 -15.2047 272.377C-15.2047 272.377 -18.1605 261.664 -16.4055 257.453L-20.8701 251.085L-22.8406 252.318L-24.0928 250.263L-22.5635 249.339C-23.2598 248.781 -23.8507 248.103 -24.3083 247.336C-25.3855 245.553 -25.7116 243.414 -25.2152 241.391C-24.7188 239.367 -23.4403 237.623 -21.6604 236.541C-20.7777 236.006 -19.7984 235.651 -18.7784 235.495C-17.7584 235.34 -16.7178 235.387 -15.716 235.634C-14.7142 235.881 -13.7709 236.323 -12.9399 236.935C-12.109 237.547 -11.4068 238.317 -10.8735 239.201C-10.4129 239.965 -10.0866 240.803 -9.90873 241.677L-8.37948 240.752L-7.12734 242.807L-9.0466 243.947L-5.59809 250.479C-4.35622 249.996 -3.39145 249.873 -2.96039 250.479C0.118636 254.392 0.457334 257.957 -0.117418 260.904L7.24145 274.914L-0.784542 279.742L-5.21834 273.404C-5.49545 274.544 -5.62888 275.346 -5.62888 275.346C-5.62888 275.346 2.90003 308.552 -11.7048 330.492C-18.0579 340.044 -27.7055 352.667 -36.5731 363.873C-35.8239 391.513 -38.6258 435.566 -38.6258 435.566H-115.684C-115.684 435.566 -115.591 426.65 -115.324 414.274C-115.324 414.274 -119.892 344.317 -110.069 340.352Z" fill="#2B478B"/>
<path d="M382.271 277.004L381.015 277.765L382.721 280.585L383.977 279.825L382.271 277.004Z" fill="#2B478B"/>
<path d="M268.435 340.352C274.122 338.12 280.029 336.498 286.058 335.514C287.553 333.899 289.391 332.639 291.436 331.827C291.554 329.712 291.481 327.591 291.22 325.49C287.524 322.636 284.832 318.679 283.533 314.191C281.932 312.435 280.556 309.641 280.977 308.439C281.067 308.125 281.245 307.844 281.49 307.628C281.238 307.22 281.015 306.794 280.823 306.354C279.099 304.957 279.366 301.476 278.329 299.945C277.087 298.086 275.558 293.3 276.821 291.78C278.083 290.259 278.627 288.287 278.955 284.128C279.284 279.968 282.281 281.858 284.805 281.303C287.33 280.748 286.858 279.957 288.079 276.938C289.301 273.918 292.113 274.154 296.403 275.038C300.693 275.921 299.811 273.148 304.224 272.521C308.637 271.895 310.382 276.054 314.282 276.085C318.182 276.116 318.849 280.471 322.38 282.741C325.91 285.011 322.38 292.55 322.38 292.55C322.554 294.234 322.38 292.55 324.135 295.487C325.89 298.425 322.883 300.192 323.95 303.982C325.018 307.772 321.076 307.381 321.076 307.381V307.536C321.26 307.433 321.465 307.375 321.676 307.366C321.886 307.358 322.095 307.4 322.287 307.488C322.478 307.576 322.645 307.708 322.776 307.874C322.906 308.039 322.996 308.233 323.037 308.439C323.673 310.257 320.184 315.711 318.049 315.711C316.571 320.662 314.477 323.723 312.188 325.685C312.012 327.487 311.93 329.297 311.942 331.108C314.147 331.797 316.226 332.837 318.1 334.189C324.782 331.17 342.948 321.792 348.654 307.104C355.695 288.986 363.362 272.408 363.362 272.408C363.362 272.408 360.426 261.695 362.181 257.474L357.717 251.106L355.664 252.318L354.412 250.263L355.941 249.339C355.245 248.781 354.654 248.103 354.196 247.336C353.587 246.358 353.2 245.258 353.063 244.113C352.926 242.968 353.042 241.808 353.403 240.713C353.764 239.618 354.362 238.617 355.154 237.779C355.945 236.942 356.911 236.288 357.983 235.866C359.055 235.444 360.206 235.263 361.356 235.336C362.506 235.409 363.625 235.735 364.635 236.289C365.645 236.844 366.521 237.614 367.2 238.545C367.879 239.476 368.345 240.545 368.565 241.677L370.095 240.752L371.347 242.807L369.386 243.998L372.835 250.53C374.077 250.048 375.041 249.924 375.473 250.53C378.5 254.444 378.89 258.008 378.316 260.956L385.746 274.914L377.72 279.773L373.286 273.435C373.009 274.575 372.876 275.376 372.876 275.376C372.876 275.376 381.405 308.583 366.8 330.522C360.447 340.075 350.799 352.698 341.932 363.904C342.681 391.543 339.879 435.597 339.879 435.597H262.821C262.821 435.597 262.914 426.681 263.18 414.304C263.18 414.274 258.582 344.317 268.435 340.352Z" fill="#2B478B"/>
<path d="M288.192 334.487C288.192 334.487 269.277 317.427 269.185 299.668C269.092 281.909 267.963 265.259 267.963 265.259L258.829 264.643C258.829 264.643 240.724 290.198 246.02 313.678C251.316 337.158 266.136 380.122 266.136 380.122L288.192 334.487Z" fill="#2B478B"/>
<path d="M267.963 265.29C267.963 265.29 275.917 254.444 273.331 251.352C270.745 248.261 271.566 237.055 267.255 237.414C263.15 237.743 259.044 249.164 259.445 252.092C259.845 255.019 258.829 264.643 258.829 264.643L267.963 265.29Z" fill="#2B478B"/>
<path d="M273.588 254.824C273.588 254.824 277.365 245.025 276.195 244.768C275.024 244.512 273.834 246.412 273.31 247.449C272.99 248.226 272.452 248.893 271.761 249.37C270.632 250.541 273.588 254.824 273.588 254.824Z" fill="#2B478B"/>
<path d="M485.107 342.92C488.996 333.491 471.364 323.548 468.685 316.215C466.006 308.881 484.08 297.09 469.362 276.404C465.555 271.042 457.549 271.268 452.623 272.059C450.109 272.473 447.551 272.549 445.018 272.285C431.757 270.806 423.762 283.244 422.017 292.437C420.991 297.716 421.237 303.232 427.067 306.693C427.412 307.175 427.866 307.569 428.391 307.844C430.125 329.105 437.402 326.065 437.402 326.065C437.776 329.385 437.776 332.738 437.402 336.059C431.861 336.626 426.372 337.615 420.981 339.017C420.981 339.017 372.301 328.191 359.626 315.763C346.951 303.335 334.327 292.427 334.327 292.427C334.327 292.427 332.736 282.412 329.688 279.557L331.001 272.572L333.054 272.829L333.321 270.631L331.709 270.436C332.07 269.703 332.306 268.915 332.407 268.104C332.525 266.27 331.936 264.459 330.761 263.046C329.586 261.632 327.915 260.723 326.091 260.505C324.267 260.286 322.428 260.776 320.953 261.872C319.479 262.969 318.48 264.589 318.162 266.399C318.063 267.209 318.104 268.029 318.285 268.823L316.673 268.628L316.407 270.826L318.459 271.073L318.049 277.821C316.827 277.883 315.996 278.15 315.832 278.776C314.806 283.183 315.832 286.284 317.392 288.524L316.509 302.975L325.018 304.002L326.321 297.059C326.978 297.901 327.347 298.517 327.347 298.517C327.347 298.517 332.756 329.331 353.16 342.119C369.581 352.39 399.15 367.067 410.194 372.46C410.004 374.3 409.661 376.121 409.167 377.903C404.487 393.31 424.234 435.484 427.939 435.679H495.401C495.401 435.679 491.809 348.127 485.107 342.92Z" fill="#2B478B"/>
<path d="M320.165 303.397L319.807 306.385L321.132 306.544L321.49 303.556L320.165 303.397Z" fill="#2B478B"/>
<path d="M131.131 353.345C123.947 339.992 112.041 339.017 112.041 339.017C106.65 337.616 101.161 336.627 95.6198 336.059C95.2455 332.738 95.2455 329.385 95.6198 326.065C95.6198 326.065 102.897 329.146 104.631 307.844C105.156 307.569 105.609 307.175 105.955 306.693C111.785 303.232 112.031 297.716 111.005 292.437C109.209 283.244 101.213 270.867 87.9736 272.275C85.4398 272.539 82.8821 272.463 80.3684 272.049C75.4419 271.289 67.4365 271.022 63.6287 276.393C48.9418 297.079 67.0157 308.871 64.3061 316.204C61.5966 323.538 43.9743 333.491 47.8846 342.909C41.1518 348.117 37.6212 435.668 37.6212 435.668H140.738C140.738 435.668 138.747 367.499 131.131 353.345Z" fill="#1F3B63"/>
<path d="M47.8333 342.92C47.8333 342.92 17.4638 380.574 20.8097 392.221C24.1556 403.869 46.2117 418.988 52.0003 416.307C57.7888 413.626 47.8333 342.92 47.8333 342.92Z" fill="#1F3B63"/>
<path d="M57.9531 289.736C56.9965 292.39 55.3364 294.734 53.1505 296.516C50.9647 298.298 48.3354 299.452 45.5446 299.853C35.5172 301.64 40.4129 309.662 38.8528 315.013C37.2928 320.364 29.0513 321.33 30.6421 329.29C32.2329 337.25 19.9476 344.224 39.3352 360.103C58.7228 375.983 76.2835 314.386 76.2835 314.386L69.602 291.646L57.9531 289.736Z" fill="#1F3B63"/>
<path d="M291.374 353.345C284.19 339.992 272.284 339.017 272.284 339.017C266.893 337.615 261.403 336.626 255.863 336.059C255.488 332.738 255.488 329.385 255.863 326.065C255.863 326.065 263.139 329.146 264.874 307.844C265.399 307.569 265.852 307.175 266.198 306.693C272.038 303.232 272.274 297.716 271.247 292.437C269.451 283.244 261.456 270.867 248.216 272.275C245.683 272.538 243.125 272.462 240.611 272.049C235.695 271.289 227.679 271.022 223.872 276.393C209.185 297.079 227.258 308.871 224.559 316.204C221.86 323.538 204.217 333.491 208.138 342.909C201.415 348.117 197.874 435.668 197.874 435.668H300.981C300.981 435.668 299.02 367.499 291.374 353.345Z" fill="#1F3B63"/>
<path d="M208.076 342.92C208.076 342.92 177.707 380.574 181.053 392.221C184.398 403.869 206.454 418.988 212.253 416.307C218.052 413.626 208.076 342.92 208.076 342.92Z" fill="#1F3B63"/>
<path d="M218.196 289.736C217.239 292.39 215.579 294.734 213.393 296.516C211.207 298.298 208.578 299.452 205.787 299.853C195.76 301.64 200.656 309.662 199.106 315.013C197.556 320.364 189.294 321.33 190.895 329.29C192.496 337.25 180.201 344.224 199.588 360.103C218.976 375.983 236.537 314.386 236.537 314.386L229.855 291.646L218.196 289.736Z" fill="#1F3B63"/>
<path d="M-29.4708 343.341C-33.3607 333.922 -15.7281 323.969 -13.0493 316.636C-10.3706 309.302 -28.4445 297.521 -13.7267 276.825C-9.91901 271.463 -1.91353 271.689 3.01291 272.49C5.52755 272.896 8.08456 272.968 10.6181 272.706C23.8579 271.268 31.8531 283.676 33.6492 292.868C34.6756 298.148 34.4293 303.663 28.5996 307.125C28.2569 307.609 27.8028 308.003 27.2756 308.275C25.5411 329.536 18.2644 326.496 18.2644 326.496C17.89 329.817 17.89 333.169 18.2644 336.49C23.8062 337.056 29.2962 338.049 34.6858 339.458C34.6858 339.458 83.3653 328.622 96.0406 316.194C108.716 303.766 121.34 292.858 121.34 292.858C121.34 292.858 122.931 282.844 125.979 279.988L124.665 273.014L122.613 273.261L122.346 271.063L123.957 270.867C123.48 269.928 123.216 268.895 123.182 267.842C123.149 266.79 123.346 265.742 123.762 264.774C124.178 263.806 124.801 262.941 125.587 262.241C126.373 261.541 127.304 261.022 128.313 260.721C129.322 260.421 130.384 260.346 131.426 260.501C132.467 260.657 133.461 261.04 134.338 261.623C135.215 262.206 135.953 262.974 136.5 263.874C137.047 264.774 137.39 265.784 137.505 266.831C137.604 267.64 137.562 268.46 137.382 269.255L138.993 269.07L139.26 271.258L137.207 271.515L137.618 278.252C138.839 278.314 139.67 278.581 139.835 279.208C140.861 283.614 139.835 286.726 138.275 288.965L139.157 303.417L130.649 304.444L129.335 297.511C128.678 298.353 128.309 298.969 128.309 298.969C128.309 298.969 122.9 329.783 102.496 342.581C86.0748 352.852 44.2616 367.427 46.499 378.355C49.732 394.122 43.7074 436.131 43.7074 436.131H-39.7343C-39.7343 436.131 -36.2036 348.559 -29.4708 343.341Z" fill="#1D3356"/>
<path d="M135.44 303.855L134.115 304.014L134.473 307.002L135.798 306.844L135.44 303.855Z" fill="#1D3356"/>
<path d="M554.415 343.341C558.305 333.922 540.673 323.969 537.994 316.636C535.315 309.302 553.389 297.521 538.682 276.825C534.874 271.463 526.858 271.689 521.942 272.49C519.424 272.896 516.863 272.968 514.326 272.706C501.087 271.268 493.102 283.676 491.306 292.868C490.279 298.148 490.515 303.663 496.355 307.125C496.692 307.611 497.143 308.006 497.669 308.275C499.414 329.536 506.69 326.496 506.69 326.496C507.065 329.817 507.065 333.169 506.69 336.49C501.149 337.058 495.659 338.05 490.269 339.458C490.269 339.458 441.518 328.612 428.791 316.184C416.064 303.756 403.543 292.848 403.543 292.848C403.543 292.848 401.942 282.833 398.894 279.978L400.218 273.004L402.27 273.25L402.537 271.052L400.926 270.857C401.289 270.126 401.522 269.337 401.613 268.526C401.782 267.563 401.754 266.576 401.529 265.625C401.304 264.674 400.887 263.779 400.305 262.994C399.722 262.209 398.986 261.552 398.141 261.062C397.296 260.571 396.36 260.259 395.391 260.142C394.421 260.026 393.438 260.109 392.501 260.386C391.564 260.664 390.694 261.129 389.943 261.754C389.192 262.379 388.577 263.15 388.134 264.022C387.691 264.893 387.43 265.845 387.368 266.821C387.279 267.63 387.321 268.448 387.491 269.245L385.88 269.06L385.623 271.247L387.676 271.504L387.265 278.242C386.054 278.304 385.213 278.571 385.048 279.197C384.022 283.604 385.048 286.716 386.619 288.955L385.736 303.407L394.234 304.434L395.548 297.49C396.205 298.333 396.574 298.949 396.574 298.949C396.574 298.949 401.983 329.762 422.387 342.56C438.808 352.831 480.611 367.406 478.374 378.335C475.151 394.101 481.176 436.11 481.176 436.11H564.679C564.679 436.11 561.087 348.559 554.415 343.341Z" fill="#1D3356"/>
<path d="M389.414 303.822L389.057 306.81L390.382 306.969L390.739 303.981L389.414 303.822Z" fill="#1D3356"/>
<path d="M276.886 276.975L275.18 279.795L276.436 280.556L278.142 277.735L276.886 276.975Z" fill="#233862"/>
<path d="M431.254 436.839C431.254 436.839 415.12 386.264 411.395 370.714C408.203 357.361 400.608 344.317 390.755 340.352C385.052 338.116 379.127 336.494 373.081 335.514C371.59 333.894 369.751 332.633 367.703 331.827C367.585 329.712 367.657 327.591 367.919 325.49C371.618 322.639 374.311 318.68 375.606 314.191C377.207 312.435 378.593 309.641 378.172 308.439C378.075 308.126 377.894 307.845 377.648 307.628C377.901 307.22 378.124 306.794 378.316 306.354C380.04 304.957 379.783 301.476 380.81 299.945C382.051 298.086 383.581 293.3 382.318 291.78C381.056 290.259 380.512 288.287 380.183 284.128C379.855 279.968 376.858 281.858 374.333 281.303C371.809 280.748 372.281 279.957 371.059 276.938C369.838 273.918 367.026 274.154 362.736 275.038C358.446 275.921 359.328 273.148 354.915 272.521C350.502 271.895 348.757 276.054 344.857 276.085C340.957 276.116 340.29 280.471 336.759 282.741C333.228 285.011 336.759 292.55 336.759 292.55C336.595 294.234 336.759 292.55 335.004 295.487C333.249 298.425 336.256 300.192 335.189 303.982C334.121 307.772 338.073 307.381 338.073 307.381C338.068 307.433 338.068 307.484 338.073 307.536C337.889 307.433 337.684 307.375 337.473 307.366C337.263 307.358 337.054 307.4 336.862 307.488C336.671 307.576 336.504 307.708 336.373 307.874C336.243 308.039 336.154 308.233 336.112 308.439C335.476 310.257 338.966 315.711 341.111 315.711C342.578 320.662 344.672 323.723 346.961 325.685C347.147 327.486 347.232 329.297 347.217 331.108C345.014 331.801 342.935 332.841 341.059 334.189C334.388 331.169 316.212 321.792 310.505 307.104C303.464 288.986 295.808 272.408 295.808 272.408C295.808 272.408 298.733 261.695 296.978 257.474L301.442 251.106L303.475 252.318L304.727 250.263L303.198 249.339C303.894 248.778 304.488 248.101 304.953 247.336C305.562 246.358 305.949 245.258 306.086 244.113C306.224 242.968 306.107 241.808 305.746 240.713C305.385 239.618 304.787 238.617 303.995 237.779C303.204 236.942 302.238 236.288 301.166 235.866C300.094 235.444 298.943 235.263 297.793 235.336C296.643 235.409 295.524 235.735 294.514 236.289C293.504 236.844 292.628 237.614 291.949 238.545C291.27 239.476 290.804 240.545 290.584 241.677L289.065 240.752L287.813 242.807L289.773 243.998L286.314 250.53C285.072 250.048 284.108 249.924 283.676 250.53C280.649 254.444 280.259 258.008 280.834 260.956L273.403 274.914L281.408 279.742L285.852 273.404C286.119 274.545 286.253 275.346 286.253 275.346C286.253 275.346 277.734 308.552 292.329 330.492C298.682 340.044 308.329 352.667 317.197 363.873C316.458 391.513 319.25 435.566 319.25 435.566L431.254 436.839Z" fill="#233862"/>
<path d="M31.1039 99.9653L30.4368 100.921L28.8049 101.331L-34.9001 115.177C-34.6025 114.869 -34.3049 114.561 -33.997 114.263L28.9281 100.428L31.1039 99.9653Z" fill="#1F3B63"/>
<path d="M49.9989 101.444H50.0912L48.9315 107.402H48.8494C49.227 107.668 49.6576 107.85 50.1118 107.936C50.5435 108.03 50.9897 108.037 51.4242 107.957C51.8587 107.876 52.2727 107.709 52.6418 107.466C53.011 107.223 53.3279 106.908 53.5738 106.541C53.8197 106.174 53.9898 105.761 54.0739 105.327C54.1581 104.892 54.1547 104.446 54.0639 104.013C53.9731 103.58 53.7967 103.17 53.5452 102.806C53.2937 102.443 52.972 102.133 52.5992 101.896C52.2263 101.658 51.8098 101.498 51.3742 101.424C50.919 101.338 50.4512 101.345 49.9989 101.444Z" fill="#22407A"/>
<path d="M50.0912 101.455L46.7967 100.962L46.0475 100.849L34.2445 99.0512L29.3797 98.3117L28.6202 102.215L33.4029 103.437L44.9801 106.405L45.7088 106.601L48.9417 107.422L50.0912 101.455Z" fill="#22407A"/>
<path d="M34.2445 99.0512L29.3797 98.3117L28.6202 102.215L33.4029 103.437L34.2445 99.0512Z" fill="#1F3B63"/>
<path d="M46.7967 100.962L46.0475 100.849L44.9801 106.405L45.7088 106.601L46.7967 100.962Z" fill="#F99746"/>
<path d="M50.3888 100.695L49.3933 100.541L47.9769 107.915L48.9417 108.162L50.3888 100.695Z" fill="#233862"/>
<path d="M418.487 140.988L365.117 107.094L363.906 106.313L363.659 105.347L365.24 106.375L418.528 140.341L418.487 140.988Z" fill="#1F3B63"/>
<path d="M347.926 100.931H347.854L347.022 106.066H347.094C346.709 106.149 346.31 106.149 345.924 106.066C345.5 106.004 345.096 105.848 344.741 105.608C344.386 105.368 344.09 105.052 343.874 104.682C343.657 104.312 343.527 103.898 343.493 103.471C343.459 103.044 343.521 102.614 343.675 102.214C343.829 101.814 344.07 101.454 344.382 101.161C344.694 100.867 345.068 100.648 345.477 100.519C345.885 100.389 346.317 100.354 346.741 100.414C347.165 100.475 347.57 100.631 347.926 100.869V100.931Z" fill="#22407A"/>
<path d="M347.854 100.91L350.666 101.475L351.302 101.609L361.35 103.653L365.497 104.495L364.953 107.864L360.745 107.443L350.522 106.416L349.876 106.344L347.022 106.066L347.854 100.91Z" fill="#22407A"/>
<path d="M361.35 103.653L365.497 104.495L364.953 107.864L360.745 107.443L361.35 103.653Z" fill="#1F3B63"/>
<path d="M350.666 101.475L351.302 101.609L350.522 106.416L349.876 106.344L350.666 101.475Z" fill="#ED7D2B"/>
<path d="M347.843 100.202L348.685 100.376L347.659 106.744L346.807 106.652L347.843 100.202Z" fill="#233862"/>
<path d="M342.65 65.5056L342.548 65.5569L346.119 72.8597L346.222 72.8084C345.827 73.2853 345.333 73.6707 344.775 73.9382C344.251 74.1945 343.682 74.345 343.1 74.3813C342.519 74.4175 341.935 74.3387 341.384 74.1494C340.833 73.9601 340.324 73.6639 339.887 73.2779C339.45 72.8918 339.093 72.4234 338.837 71.8994C338.581 71.3753 338.431 70.806 338.395 70.2238C338.358 69.6416 338.437 69.0579 338.626 68.5062C338.815 67.9544 339.111 67.4454 339.497 67.008C339.883 66.5707 340.351 66.2138 340.875 65.9575C341.43 65.6889 342.034 65.5352 342.65 65.5056Z" fill="#22407A"/>
<path d="M342.548 65.5569L346.622 63.7492L347.556 63.3486L362.181 56.888L368.216 54.2278L370.556 59.0142L364.819 62.2701L350.892 70.1584L350.009 70.6617L346.119 72.8597L342.548 65.5569Z" fill="#22407A"/>
<path d="M346.622 63.7492L347.556 63.3486L350.892 70.1584L350.009 70.6617L346.622 63.7492Z" fill="#ED7D2B"/>
<path d="M341.901 64.6633L343.122 64.1292L347.546 73.1473L346.376 73.8149L341.901 64.6633Z" fill="#233862"/>
</svg>
