<svg width="29" height="29" viewBox="0 0 29 29" fill="none" xmlns="http://www.w3.org/2000/svg">
<g clip-path="url(#clip0_34_103)">
<path d="M2.05417 19.1521C2.05417 17.4001 3.41505 15.7687 5.55833 15.7687C7.424 15.7687 8.94167 17.2864 8.94167 19.1521C8.94167 20.904 7.58078 22.5354 5.4375 22.5354C3.57183 22.5354 2.05417 21.0177 2.05417 19.1521ZM5.92083 23.4417H5.075C2.2765 23.4417 0 25.7182 0 28.5167C0 28.7837 0.216292 29 0.483333 29H10.5125C10.7795 29 10.9958 28.7837 10.9958 28.5167C10.9958 25.7182 8.71933 23.4417 5.92083 23.4417ZM23.5625 22.5354C25.4282 22.5354 26.9458 21.0177 26.9458 19.1521C26.9458 17.4001 25.5849 15.7687 23.4417 15.7687C21.576 15.7687 20.0583 17.2864 20.0583 19.1521C20.0583 20.904 21.4192 22.5354 23.5625 22.5354ZM23.925 23.4417H23.0792C20.2807 23.4417 18.0042 25.7182 18.0042 28.5167C18.0042 28.7837 18.2205 29 18.4875 29H28.5167C28.7837 29 29 28.7837 29 28.5167C29 25.7182 26.7235 23.4417 23.925 23.4417ZM24.7708 3.14167H15.5271C14.1943 3.14167 13.1104 4.22554 13.1104 5.55833V11.4187C13.1104 12.7515 14.1943 13.8354 15.5271 13.8354H16.6049C17.2514 15.0986 18.531 15.8379 19.9194 15.889C20.2409 15.9212 20.5464 15.5431 20.3701 15.1906C20.1554 14.7609 19.9968 14.3055 19.8982 13.8354H24.7708C26.1036 13.8354 27.1875 12.7515 27.1875 11.4187V5.55833C27.1875 4.22554 26.1036 3.14167 24.7708 3.14167ZM19.1596 1.51664C18.8021 0.628333 17.9315 0 16.9167 0H2.41667C1.082 0 0 1.082 0 2.41667V9.38271C0 10.7149 1.08388 11.7994 2.41667 11.7994H6.23742C6.17857 12.4812 5.98542 13.1691 5.6695 13.801C5.50964 14.1207 5.74345 14.5 6.10208 14.5C7.58682 14.5 9.17457 13.5168 9.69567 11.7994H11.6612C11.9294 11.7994 12.1464 11.5814 12.1445 11.3131C12.1406 10.7515 12.1438 9.35806 12.1438 5.55876C12.1438 3.69019 13.6585 2.175 15.5271 2.175H18.7087C19.0485 2.175 19.2864 1.83189 19.1596 1.51664Z" fill="#ED7D2B"/>
</g>
<defs>
<clipPath id="clip0_34_103">
<rect width="29" height="29" fill="white"/>
</clipPath>
</defs>
</svg>
