<svg width="19" height="19" viewBox="0 0 19 19" fill="none" xmlns="http://www.w3.org/2000/svg">
<path fill-rule="evenodd" clip-rule="evenodd" d="M14.5396 4.11388C14.6853 4.25964 14.7671 4.45729 14.7671 4.66339C14.7671 4.86948 14.6853 5.06714 14.5396 5.21289L5.99002 13.7624C5.84426 13.9081 5.64661 13.99 5.44051 13.99C5.23442 13.99 5.03677 13.9081 4.89101 13.7624L1.00486 9.87628C0.930624 9.80458 0.871413 9.71881 0.830679 9.62399C0.789945 9.52916 0.768504 9.42718 0.767607 9.32398C0.766711 9.22078 0.786376 9.11843 0.825456 9.02291C0.864536 8.92739 0.922247 8.84061 0.995224 8.76764C1.0682 8.69466 1.15498 8.63695 1.2505 8.59787C1.34602 8.55879 1.44836 8.53912 1.55156 8.54002C1.65476 8.54092 1.75675 8.56236 1.85158 8.60309C1.9464 8.64383 2.03217 8.70304 2.10386 8.77727L5.44051 12.1139L13.4406 4.11388C13.5863 3.96818 13.784 3.88632 13.9901 3.88632C14.1961 3.88632 14.3938 3.96818 14.5396 4.11388ZM17.6485 7.22281C17.7942 7.36856 17.876 7.56622 17.876 7.77231C17.876 7.9784 17.7942 8.17606 17.6485 8.32181L11.8192 14.151C11.6735 14.2968 11.4758 14.3786 11.2697 14.3786C11.0637 14.3786 10.866 14.2968 10.7202 14.151L9.5544 12.9852C9.41282 12.8386 9.33448 12.6423 9.33625 12.4385C9.33802 12.2347 9.41976 12.0398 9.56387 11.8957C9.70797 11.7516 9.90291 11.6698 10.1067 11.668C10.3105 11.6663 10.5068 11.7446 10.6534 11.8862L11.2697 12.5025L16.5495 7.22281C16.6952 7.0771 16.8929 6.99525 17.099 6.99525C17.3051 6.99525 17.5027 7.0771 17.6485 7.22281Z" fill="black"/>
</svg>
