<svg width="29" height="29" viewBox="0 0 29 29" fill="none" xmlns="http://www.w3.org/2000/svg">
<g clip-path="url(#clip0_37_163)">
<path d="M24.6953 25.3747C24.6953 25.4873 24.7216 25.5983 24.7717 25.6991L26.2219 28.599C26.2821 28.7195 26.3746 28.8208 26.4891 28.8916C26.6036 28.9624 26.7356 28.9999 26.8703 28.9999C27.005 28.9999 27.137 28.9625 27.2516 28.8917C27.3661 28.8208 27.4587 28.7195 27.5189 28.599L28.9688 25.6991C29.0191 25.5984 29.0453 25.4873 29.0452 25.3747V7.25003H24.6953V25.3747ZM26.8703 1.4499C25.6697 1.45126 24.6966 2.42429 24.6953 3.62488V5.79986H29.0452V3.62488C29.0439 2.42429 28.0711 1.45126 26.8703 1.4499ZM21.0704 1.4499H18.1703V3.62488C18.1703 4.02521 17.8459 4.34997 17.4455 4.34997C17.0452 4.34997 16.7204 4.02528 16.7204 3.62488V0.725085C16.7204 0.324752 16.3958 0 15.9953 0C15.5949 0 15.2705 0.324684 15.2705 0.725085V1.4499H12.3705V3.62488C12.3705 4.02521 12.0458 4.34997 11.6454 4.34997C11.245 4.34997 10.9206 4.02528 10.9206 3.62488V0.725085C10.9206 0.324752 10.5959 0 10.1955 0C9.79508 0 9.4704 0.324684 9.4704 0.725085V1.4499H6.5706V3.62488C6.5706 4.02521 6.24592 4.34997 5.84552 4.34997C5.44512 4.34997 5.12043 4.02528 5.12043 3.62488V0.725085C5.12043 0.324752 4.79602 0 4.39562 0C3.99529 0 3.67054 0.324684 3.67054 0.725085V1.4499H0.770468C0.675244 1.44986 0.580947 1.4686 0.492974 1.50504C0.405001 1.54149 0.32508 1.59493 0.257784 1.6623C0.121847 1.79824 0.0453831 1.98277 0.045655 2.17498V28.2748C0.0455601 28.37 0.064248 28.4643 0.100648 28.5523C0.137049 28.6402 0.190447 28.7202 0.257784 28.7875C0.39372 28.9237 0.578254 28.9999 0.770468 28.9999H21.0704C21.2626 28.9999 21.4471 28.9237 21.5831 28.7875C21.7193 28.6515 21.7955 28.467 21.7955 28.2748V2.17498C21.7955 1.98277 21.7193 1.79824 21.5831 1.6623C21.5158 1.59493 21.4359 1.54149 21.3479 1.50504C21.2599 1.4686 21.1656 1.44986 21.0704 1.4499ZM16.7204 23.1997H5.12043C4.7201 23.1997 4.39562 22.8753 4.39562 22.4749C4.39562 22.0745 4.72003 21.7498 5.12043 21.7498H16.7204C17.1208 21.7498 17.4455 22.0745 17.4455 22.4749C17.4455 22.8753 17.1208 23.1997 16.7204 23.1997ZM16.7204 18.8498H5.12043C4.7201 18.8498 4.39562 18.5254 4.39562 18.1249C4.39562 17.7245 4.72003 17.3999 5.12043 17.3999H16.7204C17.1208 17.3999 17.4455 17.7245 17.4455 18.1249C17.4455 18.5254 17.1208 18.8498 16.7204 18.8498ZM16.7204 14.4998H5.12043C4.7201 14.4998 4.39562 14.1754 4.39562 13.775C4.39562 13.3746 4.72003 13.0499 5.12043 13.0499H16.7204C17.1208 13.0499 17.4455 13.3746 17.4455 13.775C17.4455 14.1754 17.1208 14.4998 16.7204 14.4998ZM16.7204 10.1498H5.12043C4.7201 10.1498 4.39562 9.82542 4.39562 9.42502C4.39562 9.02462 4.72003 8.69993 5.12043 8.69993H16.7204C17.1208 8.69993 17.4455 9.02462 17.4455 9.42502C17.4455 9.82542 17.1208 10.1498 16.7204 10.1498Z" fill="#22407A"/>
</g>
<defs>
<clipPath id="clip0_37_163">
<rect width="29" height="29" fill="white"/>
</clipPath>
</defs>
</svg>
