<svg width="41" height="41" viewBox="0 0 41 41" fill="none" xmlns="http://www.w3.org/2000/svg">
<circle cx="20.5" cy="20.5" r="19.5" fill="white" stroke="#ED7D2B" stroke-width="2"/>
<g clip-path="url(#clip0_56_110)">
<path d="M28.8158 24.0942C28.1942 23.5697 27.6946 22.9157 27.3522 22.178C27.0097 21.4403 26.8327 20.6367 26.8333 19.8233V17.5C26.8333 14.5675 24.655 12.14 21.8333 11.7333V10.8333C21.8333 10.6123 21.7455 10.4004 21.5892 10.2441C21.433 10.0878 21.221 10 21 10C20.779 10 20.567 10.0878 20.4107 10.2441C20.2545 10.4004 20.1667 10.6123 20.1667 10.8333V11.7333C17.3442 12.14 15.1667 14.5675 15.1667 17.5V19.8233C15.167 20.6383 14.989 21.4435 14.6453 22.1824C14.3015 22.9213 13.8002 23.5761 13.1767 24.1008C12.9513 24.2951 12.7907 24.5536 12.7163 24.8417C12.6419 25.1298 12.6573 25.4337 12.7605 25.7128C12.8636 25.9919 13.0496 26.2328 13.2934 26.4033C13.5373 26.5738 13.8274 26.6657 14.125 26.6667H27.875C28.6792 26.6667 29.3333 26.0125 29.3333 25.2083C29.3333 24.7817 29.1475 24.3783 28.8158 24.0942ZM21 30C21.72 29.999 22.4177 29.7498 22.9754 29.2944C23.5331 28.839 23.9167 28.2053 24.0617 27.5H17.9383C18.0832 28.2053 18.4669 28.839 19.0246 29.2944C19.5823 29.7498 20.28 29.999 21 30Z" fill="#ED7D2B"/>
</g>
<defs>
<clipPath id="clip0_56_110">
<rect width="20" height="20" fill="white" transform="translate(11 10)"/>
</clipPath>
</defs>
</svg>
