<svg width="33" height="33" viewBox="0 0 33 33" fill="none" xmlns="http://www.w3.org/2000/svg">
<path fill-rule="evenodd" clip-rule="evenodd" d="M13.0314 25.015L16.1629 28.1465C16.5394 28.523 16.5394 29.1372 16.1629 29.5137L14.8709 30.8057C14.4944 31.1822 13.8802 31.1822 13.5037 30.8057L9.63727 26.9393L12.6112 25.2222C12.7508 25.1522 12.8908 25.0831 13.0314 25.015ZM31.8213 13.1487C32.2269 13.2806 32.4488 13.7163 32.317 14.1219C32.185 14.5275 31.7493 14.7495 31.3437 14.6176L28.5312 13.7038C28.1256 13.5719 27.9037 13.1361 28.0355 12.7305C28.1674 12.3249 28.6032 12.103 29.0088 12.2349L31.8213 13.1487ZM28.6361 9.01158C28.2662 9.22517 27.7931 9.09839 27.5796 8.72843C27.366 8.35854 27.4928 7.88545 27.8627 7.67192L30.4031 6.20516C30.7731 5.99156 31.2461 6.11834 31.4596 6.48824C31.6732 6.8582 31.5464 7.33122 31.1765 7.54482L28.6361 9.01158ZM24.3615 2.52398C24.4501 2.10678 24.8601 1.84039 25.2774 1.92895C25.6946 2.01751 25.961 2.42756 25.8724 2.84483L25.2575 5.73749C25.1689 6.15469 24.7589 6.42108 24.3417 6.33252C23.9245 6.24396 23.6581 5.83391 23.7466 5.4167L24.3615 2.52398ZM16.2771 3.41092C15.5383 3.83747 15.2827 4.79112 15.7093 5.52995L24.1877 20.2149C24.6143 20.9538 25.5679 21.2093 26.3068 20.7827C27.0456 20.3562 27.3011 19.4025 26.8745 18.6637L23.9902 13.6679L24.3672 13.4503C25.6812 12.6916 26.1356 10.9958 25.377 9.68176C24.6183 8.36775 22.9225 7.91336 21.6085 8.67197L21.2315 8.88963L18.3961 3.97863C17.9696 3.23993 17.016 2.98437 16.2771 3.41092ZM1.87711 23.2495L2.55277 24.4198C3.70152 26.4095 6.26927 27.0975 8.259 25.9488L11.2097 24.2452L5.68107 14.6694L2.7304 16.373C0.740736 17.5217 0.0526987 20.0895 1.20145 22.0791L1.87711 23.2495ZM6.98876 13.854C10.1898 11.6555 12.654 9.21003 14.5656 6.6428L22.6031 20.5642C19.424 20.936 16.074 21.8475 12.5696 23.5204L6.98876 13.854Z" fill="#ED7D2B"/>
</svg>
