<svg width="126" height="126" viewBox="0 0 126 126" fill="none" xmlns="http://www.w3.org/2000/svg">
<path fill-rule="evenodd" clip-rule="evenodd" d="M64.9557 99.4116C65.3336 98.1669 65.319 97.2955 64.056 96.8875C62.1269 96.2317 59.2859 96.7168 60.193 99.4116C60.4 100.141 60.6943 99.2474 62.5749 99.2833C64.5573 99.2884 64.7523 100.129 64.9557 99.4116Z" fill="#ED7D2B"/>
<path fill-rule="evenodd" clip-rule="evenodd" d="M60.8614 110.554C60.8614 111.137 55.2497 108.258 57.0868 102.905C55.5246 102.408 54.8501 103.379 54.6915 102.874C54.1235 101.071 55.9557 100.928 57.1304 101.274C58.1246 101.607 57.3084 102.014 58.0883 101.104C58.9735 99.5412 53.4623 98.8188 53.2831 102.013C53.2262 103.141 53.8414 103.776 53.5435 104.09C53.1339 104.611 52.8695 105.243 52.7798 105.914C52.6902 106.586 52.7789 107.27 53.0361 107.891C52.5497 106.981 52.3996 105.911 52.6146 104.89C39.9623 94.3402 60.4473 96.8259 0 96.8259L42.4666 103.875C47.2214 110.614 54.0975 115.325 61.8484 117.154C64.8225 117.896 76.0422 113.287 82.6687 103.874L125.15 96.8246C65.0599 96.8246 85.0519 94.5083 72.5195 104.889C72.7468 105.908 72.6014 106.98 72.1126 107.89C72.3697 107.269 72.4585 106.585 72.3688 105.913C72.2792 105.242 72.0148 104.61 71.6052 104.089C71.3013 103.767 71.9237 103.168 71.8668 102.011C71.6876 98.8444 66.1607 99.5143 67.0604 101.103C67.8294 102.001 67.035 101.602 68.0195 101.272C69.239 100.913 71.0131 101.108 70.4584 102.873C70.2865 103.418 69.6677 102.389 68.0486 102.903C69.4775 106.825 66.3423 110.391 64.2873 110.568V110.553C67.9347 109.29 69.2305 104.504 66.771 101.365C66.2769 100.777 67.2784 99.9198 67.1912 98.0411C66.9199 92.9953 55.7935 92.7553 58.4661 100.688C58.8124 101.579 57.1159 102.044 57.1159 105.052C57.1159 108.536 60.021 110.554 60.8614 110.554Z" fill="#ED7D2B"/>
<path fill-rule="evenodd" clip-rule="evenodd" d="M62.0082 118.951C54.0273 117.47 46.7869 113.077 41.5427 106.532C38.6799 102.98 33.6265 107.559 36.4747 111.087C42.7246 118.888 51.3539 124.126 60.8663 125.892C65.9064 126.746 79.4633 122.612 88.6837 111.087C91.5343 107.55 86.4761 102.983 83.6169 106.532C76.7301 115.125 66.7746 118.951 62.0082 118.951Z" fill="#ED7D2B"/>
<path d="M0.0726558 74.202H3.75403V81.3767L9.98089 74.202H14.5342L7.97672 81.9272C8.54184 82.7613 9.58773 84.3154 11.1144 86.5893C12.641 88.8632 13.7809 90.5593 14.5342 91.6774H10.2413L5.4046 84.7773L3.75403 86.7266V91.6774H0.0726558V74.202Z" fill="#ED7D2B"/>
<path d="M38.0308 74.202H41.711V91.6774H38.0308L30.1752 80.7274V91.6774H26.495V74.202H29.9403L38.0308 85.4575V74.202Z" fill="#ED7D2B"/>
<path d="M69.3116 89.2649C67.6445 90.9896 65.5923 91.852 63.155 91.852C60.7177 91.852 58.6651 90.9896 56.9972 89.2649C55.3301 87.5393 54.4965 85.3933 54.4965 82.8268C54.4965 80.2603 55.3301 78.1147 56.9972 76.39C58.6643 74.6653 60.7169 73.8029 63.155 73.8029C65.5931 73.8029 67.6453 74.6653 69.3116 76.39C70.9787 78.1147 71.8123 80.2603 71.8123 82.8268C71.8123 85.3933 70.9787 87.5393 69.3116 89.2649ZM68.0619 82.8396C68.0619 81.2817 67.59 79.9527 66.6463 78.8525C65.7025 77.7524 64.5428 77.2023 63.1671 77.2023C61.7906 77.2023 60.6305 77.7524 59.6868 78.8525C58.743 79.9527 58.2731 81.2817 58.2772 82.8396C58.2772 84.3992 58.7491 85.7252 59.6928 86.8177C60.1326 87.3332 60.6696 87.7452 61.2689 88.0272C61.8683 88.3092 62.5168 88.4549 63.1726 88.4549C63.8283 88.4549 64.4768 88.3092 65.0762 88.0272C65.6756 87.7452 66.2125 87.3332 66.6523 86.8177C67.5912 85.7244 68.0611 84.3984 68.0619 82.8396Z" fill="#ED7D2B"/>
<path d="M92.1713 88.2267C93.9797 88.2267 95.4579 87.4683 96.6059 85.9515L98.9661 88.527C97.0947 90.7582 94.8887 91.8738 92.3481 91.8738C89.8075 91.8738 87.7157 91.0238 86.0728 89.3239C84.4299 87.6266 83.608 85.4823 83.6072 82.891C83.6064 80.2996 84.444 78.1373 86.12 76.4041C87.7952 74.67 89.8438 73.8033 92.2657 73.8042C94.9703 73.8042 97.2348 74.8958 99.0593 77.0791L96.7718 79.8291C95.6068 78.2943 94.1585 77.5269 92.4268 77.5269C91.1118 77.4992 89.8383 78.0151 88.8762 78.9655C87.8929 79.9228 87.4016 81.2142 87.4025 82.8396C87.4033 84.4651 87.8671 85.7693 88.7939 86.7523C89.2318 87.2297 89.7574 87.6069 90.3384 87.8605C90.9193 88.1141 91.5431 88.2387 92.1713 88.2267Z" fill="#ED7D2B"/>
<path d="M111.54 74.202H115.219V81.3767L121.447 74.202H126L119.443 81.9272C120.008 82.7613 121.054 84.3154 122.58 86.5893C124.107 88.8632 125.247 90.5593 126 91.6774H121.707L116.87 84.7773L115.219 86.7266V91.6774H111.54V74.202Z" fill="#ED7D2B"/>
<path d="M0.0726558 74.202H3.75403V81.3767L9.98089 74.202H14.5342L7.97672 81.9272C8.54184 82.7613 9.58773 84.3154 11.1144 86.5893C12.641 88.8632 13.7809 90.5593 14.5342 91.6774H10.2413L5.4046 84.7773L3.75403 86.7266V91.6774H0.0726558V74.202Z" fill="#ED7D2B"/>
<path d="M38.0308 74.202H41.711V91.6774H38.0308L30.1752 80.7274V91.6774H26.495V74.202H29.9403L38.0308 85.4575V74.202Z" fill="#ED7D2B"/>
<path d="M69.3116 89.2649C67.6445 90.9896 65.5923 91.852 63.155 91.852C60.7177 91.852 58.6651 90.9896 56.9972 89.2649C55.3301 87.5393 54.4965 85.3933 54.4965 82.8268C54.4965 80.2603 55.3301 78.1147 56.9972 76.39C58.6643 74.6653 60.7169 73.8029 63.155 73.8029C65.5931 73.8029 67.6453 74.6653 69.3116 76.39C70.9787 78.1147 71.8123 80.2603 71.8123 82.8268C71.8123 85.3933 70.9787 87.5393 69.3116 89.2649ZM68.0619 82.8396C68.0619 81.2817 67.59 79.9527 66.6463 78.8525C65.7025 77.7524 64.5428 77.2023 63.1671 77.2023C61.7906 77.2023 60.6305 77.7524 59.6868 78.8525C58.743 79.9527 58.2731 81.2817 58.2772 82.8396C58.2772 84.3992 58.7491 85.7252 59.6928 86.8177C60.1326 87.3332 60.6696 87.7452 61.2689 88.0272C61.8683 88.3092 62.5168 88.4549 63.1726 88.4549C63.8283 88.4549 64.4768 88.3092 65.0762 88.0272C65.6756 87.7452 66.2125 87.3332 66.6523 86.8177C67.5912 85.7244 68.0611 84.3984 68.0619 82.8396Z" fill="#ED7D2B"/>
<path d="M92.1713 88.2267C93.9797 88.2267 95.4579 87.4683 96.6059 85.9515L98.9661 88.527C97.0947 90.7582 94.8887 91.8738 92.3481 91.8738C89.8075 91.8738 87.7157 91.0238 86.0728 89.3239C84.4299 87.6266 83.608 85.4823 83.6072 82.891C83.6064 80.2996 84.444 78.1373 86.12 76.4041C87.7952 74.67 89.8438 73.8033 92.2657 73.8042C94.9703 73.8042 97.2348 74.8958 99.0593 77.0791L96.7718 79.8291C95.6068 78.2943 94.1585 77.5269 92.4268 77.5269C91.1118 77.4992 89.8383 78.0151 88.8762 78.9655C87.8929 79.9228 87.4016 81.2142 87.4025 82.8396C87.4033 84.4651 87.8671 85.7693 88.7939 86.7523C89.2318 87.2297 89.7574 87.6069 90.3384 87.8605C90.9193 88.1141 91.5431 88.2387 92.1713 88.2267Z" fill="#ED7D2B"/>
<path d="M111.54 74.202H115.219V81.3767L121.447 74.202H126L119.443 81.9272C120.008 82.7613 121.054 84.3154 122.58 86.5893C124.107 88.8632 125.247 90.5593 126 91.6774H121.707L116.87 84.7773L115.219 86.7266V91.6774H111.54V74.202Z" fill="#ED7D2B"/>
<path d="M65.4341 22.3019C65.4341 24.06 65.4704 25.818 65.4244 27.5748C65.3747 29.4638 64.188 30.67 62.4587 30.6867C60.7294 30.7034 59.4603 29.5189 59.4312 27.6467C59.3731 24.0296 59.3731 20.4112 59.4312 16.7916C59.4603 14.9578 60.7936 13.6938 62.4587 13.7118C64.1238 13.7297 65.3432 15.0143 65.4268 16.8737C65.468 17.8015 65.4377 18.7344 65.4389 19.6648C65.4389 20.5425 65.4389 21.4211 65.4389 22.3006L65.4341 22.3019Z" fill="#ED7D2B"/>
<path fill-rule="evenodd" clip-rule="evenodd" d="M0 68.2913L33.8275 61.2424L33.773 53.9278C33.773 53.9278 33.1191 50.3129 39.9115 48.1891L42.5248 54.6837L40.4758 55.6102C40.4758 55.6102 40.7604 63.6947 40.4758 64.5583C40.4697 64.6045 40.2905 68.4415 37.148 68.2913H0Z" fill="#ED7D2B"/>
<path fill-rule="evenodd" clip-rule="evenodd" d="M125.431 68.2913L91.6021 61.2424L91.6578 53.9278C91.6578 53.9278 92.3118 50.3129 85.5194 48.1891L82.9061 54.6837L84.9526 55.6063C84.9526 55.6063 84.6693 63.6908 84.9526 64.5545C84.9526 64.6007 85.1367 68.4376 88.2804 68.2875L125.431 68.2913Z" fill="#ED7D2B"/>
<path d="M42.4376 25.7859C42.4376 25.7859 47.5418 18.0351 55.9182 16.2308C55.9182 16.2308 58.0519 16.2744 58.9129 14.5125C58.9129 14.4933 59.5269 12.5658 62.3776 12.1218C62.4175 12.1218 64.7571 12.2129 65.8422 14.4086C66.1493 14.9709 66.5925 15.4362 67.1259 15.7565C67.6594 16.0769 68.2638 16.2406 68.8769 16.2308C68.8769 16.2308 76.4419 17.5192 82.3563 25.7859C82.3563 25.7859 86.4446 18.7126 78.8287 13.8837C78.8287 13.8837 75.5191 13.1792 76.6586 9.69002C76.6586 9.69002 77.8139 2.9234 70.6316 0.422328C70.6316 0.422328 68.2096 -0.455421 65.342 0.90355C65.3663 0.890718 64.4193 1.49385 64.1444 1.74409C64.1444 1.74409 62.8801 3.11589 62.4175 2.94778H62.3776C62.3776 2.94778 61.5674 2.81946 60.6507 1.74409C60.6507 1.74409 57.0384 -1.03417 54.1635 0.422328C54.1635 0.422328 47.5467 1.95197 48.1364 9.69002C48.1364 9.69002 49.0241 13.0047 45.9664 13.8837C45.9664 13.8799 38.7441 17.935 42.4376 25.7859Z" fill="#ED7D2B"/>
<path d="M56.1216 17.7104C56.1216 17.7104 57.1812 17.2112 57.065 18.4598L57.0723 24.0458C57.0723 24.0458 57.2006 25.0391 56.29 25.3111C56.29 25.3111 54.8489 25.6024 51.3165 28.21C49.4266 29.9539 47.844 32.0395 46.6421 34.3697C46.6421 34.3697 43.0322 42.032 46.0233 49.217C45.9676 49.3581 47.6339 53.3401 50.3356 56.1247C50.3356 56.1247 52.3688 58.2537 54.2264 59.2046C54.2264 59.2046 56.7913 60.8343 58.3232 60.8189C58.3232 60.8189 59.826 61.1102 60.0961 61.1346C60.3661 61.159 65.9923 62.0418 72.1223 58.2845C72.1223 58.2845 76.6913 55.5344 78.8299 49.2362C78.8299 49.2362 79.5819 46.5863 79.7551 45.2337C79.7551 45.2337 79.8992 41.0092 79.7636 39.9531C79.7636 39.9531 79.2029 32.9247 73.2582 28.0073C73.2582 28.0073 69.974 25.6281 68.6565 25.374C68.6565 25.374 67.747 25.1584 67.7688 24.0292L67.7761 18.4662C67.7761 18.4662 67.5714 17.3241 68.7195 17.7078C68.7195 17.7078 73.0075 18.8384 75.9248 21.2714C75.9248 21.2714 80.1329 23.838 82.6276 28.4577L83.4631 29.7178C83.4631 29.7178 88.3071 38.1489 86.1842 48.4303C86.2387 48.4778 84.7976 55.6756 79.1266 61.3656C79.1266 61.3656 71.1341 70.3189 59.4349 68.2682C59.4349 68.2682 47.5188 67.6176 40.7785 54.2319C40.7785 54.2319 34.2949 41.6932 41.2629 29.9873C41.2629 29.9719 45.3197 21.4318 56.1216 17.7104Z" fill="#ED7D2B"/>
<path d="M57.1703 28.6681C57.1703 28.6681 57.3084 32.3306 61.5565 33.1493C61.5565 33.1493 62.9843 33.7229 64.7281 32.7643C64.7281 32.7643 67.4019 31.3527 67.6247 28.8324C67.615 28.8786 67.4394 27.4683 68.7667 28.2228C68.7667 28.2228 74.3057 30.8741 76.2166 36.1855C76.2166 36.1855 76.9686 39.1601 72.7048 40.895C72.7048 40.895 68.4107 42.9226 64.7232 39.6516C64.7232 39.6516 62.8607 37.6715 60.6216 39.9416C60.6216 39.9416 58.0931 42.544 54.8089 41.7689C54.8089 41.7689 53.2565 41.8498 52.0297 40.9592C52.0297 40.9592 47.273 38.2977 48.8473 35.3732C48.8473 35.3732 51.8953 29.7371 56.0466 28.0791C56.049 28.083 57.1292 27.3682 57.1703 28.6681Z" fill="#ED7D2B"/>
</svg>
