<svg width="26" height="26" viewBox="0 0 26 26" fill="none" xmlns="http://www.w3.org/2000/svg">
<path d="M21.8209 20.2908L18.3077 16.7776C19.379 15.3809 19.9587 13.6693 19.9565 11.9091C19.9565 9.75867 19.1191 7.73771 17.5986 6.21725C16.8529 5.46739 15.9659 4.87289 14.9889 4.46816C14.0119 4.06343 12.9643 3.85651 11.9068 3.85937C9.75694 3.85937 7.73598 4.69679 6.21498 6.21725C3.0771 9.35567 3.0771 14.4625 6.21498 17.6009C6.96066 18.3508 7.84768 18.9453 8.82469 19.35C9.8017 19.7548 10.8493 19.9617 11.9068 19.9588C13.6911 19.9588 15.3816 19.3743 16.7759 18.3094L20.2891 21.8232C20.5004 22.0345 20.7777 22.1406 21.055 22.1406C21.3324 22.1406 21.6097 22.0345 21.8209 21.8232C21.9216 21.7226 22.0014 21.6032 22.0559 21.4717C22.1104 21.3402 22.1384 21.1993 22.1384 21.057C22.1384 20.9147 22.1104 20.7738 22.0559 20.6423C22.0014 20.5109 21.9216 20.3914 21.8209 20.2908ZM7.74735 16.0691C5.4534 13.7751 5.45394 10.043 7.74735 7.74908C8.29247 7.20123 8.94081 6.76691 9.65486 6.47125C10.3689 6.17558 11.1345 6.02445 11.9074 6.02658C12.6801 6.02446 13.4456 6.1756 14.1596 6.47127C14.8736 6.76693 15.5218 7.20125 16.0668 7.74908C16.6148 8.29412 17.0493 8.94243 17.345 9.65649C17.6408 10.3706 17.792 11.1362 17.7899 11.9091C17.7899 13.4805 17.1778 14.9576 16.0668 16.0691C14.9559 17.1806 13.4787 17.7916 11.9068 17.7916C10.336 17.7916 8.85831 17.1795 7.74681 16.0691H7.74735Z" fill="black" fill-opacity="0.3"/>
</svg>
