<svg width="20" height="20" viewBox="0 0 20 20" fill="none" xmlns="http://www.w3.org/2000/svg">
<path d="M14.1668 15.8333C14.1668 16.3278 14.3135 16.8111 14.5882 17.2223C14.8629 17.6334 15.2533 17.9538 15.7101 18.143C16.1669 18.3323 16.6696 18.3818 17.1546 18.2853C17.6395 18.1888 18.085 17.9507 18.4346 17.6011C18.7842 17.2515 19.0223 16.806 19.1188 16.3211C19.2153 15.8361 19.1657 15.3334 18.9765 14.8766C18.7873 14.4198 18.4669 14.0294 18.0558 13.7547C17.6446 13.48 17.1613 13.3333 16.6668 13.3333C16.0038 13.3333 15.3679 13.5967 14.8991 14.0656C14.4302 14.5344 14.1668 15.1703 14.1668 15.8333ZM1.66683 15H11.6668C11.8878 15 12.0998 15.0878 12.2561 15.2441C12.4124 15.4004 12.5002 15.6123 12.5002 15.8333C12.5002 16.0544 12.4124 16.2663 12.2561 16.4226C12.0998 16.5789 11.8878 16.6667 11.6668 16.6667H1.66683C1.44582 16.6667 1.23385 16.5789 1.07757 16.4226C0.921293 16.2663 0.833496 16.0544 0.833496 15.8333C0.833496 15.6123 0.921293 15.4004 1.07757 15.2441C1.23385 15.0878 1.44582 15 1.66683 15ZM6.66683 12.5C6.15104 12.4986 5.64833 12.3376 5.22761 12.0392C4.80689 11.7408 4.48876 11.3196 4.31683 10.8333H1.66683C1.44582 10.8333 1.23385 10.7455 1.07757 10.5893C0.921293 10.433 0.833496 10.221 0.833496 10C0.833496 9.779 0.921293 9.56703 1.07757 9.41075C1.23385 9.25447 1.44582 9.16668 1.66683 9.16668H4.31683C4.46971 8.73428 4.73858 8.35227 5.09403 8.06245C5.44948 7.77263 5.87781 7.58617 6.33213 7.52348C6.78645 7.46079 7.24927 7.52429 7.66992 7.70702C8.09057 7.88975 8.45286 8.18467 8.71712 8.55951C8.98138 8.93435 9.13744 9.37467 9.16821 9.83226C9.19899 10.2899 9.1033 10.7471 8.89161 11.1539C8.67992 11.5608 8.36039 11.9016 7.96799 12.139C7.5756 12.3764 7.12546 12.5013 6.66683 12.5ZM18.3335 10.8333H11.6668C11.4458 10.8333 11.2339 10.7455 11.0776 10.5893C10.9213 10.433 10.8335 10.221 10.8335 10C10.8335 9.779 10.9213 9.56703 11.0776 9.41075C11.2339 9.25447 11.4458 9.16668 11.6668 9.16668H18.3335C18.5545 9.16668 18.7665 9.25447 18.9228 9.41075C19.079 9.56703 19.1668 9.779 19.1668 10C19.1668 10.221 19.079 10.433 18.9228 10.5893C18.7665 10.7455 18.5545 10.8333 18.3335 10.8333ZM8.3335 5.00001H1.66683C1.44582 5.00001 1.23385 4.91221 1.07757 4.75593C0.921293 4.59965 0.833496 4.38769 0.833496 4.16667C0.833496 3.94566 0.921293 3.7337 1.07757 3.57742C1.23385 3.42114 1.44582 3.33334 1.66683 3.33334H8.3335C8.55451 3.33334 8.76647 3.42114 8.92275 3.57742C9.07903 3.7337 9.16683 3.94566 9.16683 4.16667C9.16683 4.38769 9.07903 4.59965 8.92275 4.75593C8.76647 4.91221 8.55451 5.00001 8.3335 5.00001ZM18.3335 5.00001H15.6835C15.4869 5.55602 15.1001 6.02464 14.5914 6.32304C14.0828 6.62143 13.485 6.7304 12.9037 6.63067C12.3225 6.53094 11.7952 6.22895 11.4151 5.77806C11.035 5.32717 10.8265 4.75641 10.8265 4.16667C10.8265 3.57693 11.035 3.00618 11.4151 2.55529C11.7952 2.1044 12.3225 1.8024 12.9037 1.70268C13.485 1.60295 14.0828 1.71192 14.5914 2.01031C15.1001 2.30871 15.4869 2.77733 15.6835 3.33334H18.3335C18.5545 3.33334 18.7665 3.42114 18.9228 3.57742C19.079 3.7337 19.1668 3.94566 19.1668 4.16667C19.1668 4.38769 19.079 4.59965 18.9228 4.75593C18.7665 4.91221 18.5545 5.00001 18.3335 5.00001Z" fill="black"/>
</svg>
