<svg width="29" height="29" viewBox="0 0 29 29" fill="none" xmlns="http://www.w3.org/2000/svg">
<g clip-path="url(#clip0_34_122)">
<path d="M28.7511 19.416L26.0034 16.668L20.3191 22.3523C19.3045 23.3669 18.031 24.0285 16.6477 24.2761L20.2694 27.8977C20.601 28.2296 21.1391 28.2296 21.4708 27.8977L28.7511 20.6177C29.083 20.2857 29.083 19.7477 28.7511 19.416ZM24.884 15.3843C25.8418 14.4268 25.8421 12.8685 24.8853 11.9102L24.8821 11.9069C24.6496 11.6739 24.3726 11.49 24.0676 11.3662C24.3287 10.7058 24.3838 9.58887 23.5189 8.7238C23.5167 8.72154 23.5145 8.7191 23.5121 8.71689C23.2805 8.48621 23.0053 8.30405 22.7025 8.18107C22.9636 7.52104 23.0189 6.40391 22.1545 5.5393L22.1529 5.53777C21.916 5.30078 21.6392 5.11806 21.3376 4.99611C21.5987 4.33568 21.6538 3.21856 20.7889 2.35349C20.7886 2.35349 20.7886 2.35326 20.7884 2.35326L20.7878 2.35258C19.8295 1.39433 18.2706 1.39433 17.3123 2.35258L15.7014 3.96333L16.5251 4.78705C17.8978 6.15968 17.8978 8.39302 16.5254 9.76565C16.0634 10.2274 15.4959 10.5447 14.8772 10.6958C14.7247 11.3189 14.4039 11.888 13.9497 12.341C13.4885 12.8023 12.9218 13.1194 12.3039 13.2707C12.1528 13.8885 11.8355 14.4553 11.3744 14.9164C10.9131 15.3777 10.3464 15.6948 9.72842 15.8461C9.57736 16.4639 9.26006 17.0307 8.79895 17.492C8.1341 18.1567 7.25 18.523 6.30965 18.523C5.36936 18.523 4.48526 18.1568 3.82035 17.4918L2.99663 16.668L0.248936 19.416C-0.0829785 19.7479 -0.0829785 20.2857 0.248936 20.6177L7.52896 27.8977C7.86087 28.2296 8.39873 28.2294 8.73064 27.8977L13.942 22.6866H15.4102C16.8108 22.6866 18.1274 22.1409 19.1177 21.1509L24.884 15.3843Z" fill="#22407A"/>
<path d="M5.02193 16.2904C5.73305 17.0017 6.8862 17.0017 7.59732 16.2904C8.30861 15.5793 8.30861 14.4264 7.59732 13.715C8.30861 14.4264 9.46159 14.4264 10.1729 13.715C10.884 13.0039 10.884 11.8508 10.1729 11.1396C10.884 11.8508 12.0372 11.8508 12.7483 11.1396C13.4594 10.4285 13.4594 9.27536 12.7483 8.56424C13.4594 9.27536 14.6125 9.27536 15.3237 8.56424C16.035 7.85295 16.035 6.69997 15.3237 5.98862L11.6924 2.35745C10.9814 1.64632 9.82822 1.64632 9.1171 2.35745C8.40598 3.06857 8.40598 4.22171 9.1171 4.93284L9.57198 5.38795C8.86086 4.6766 7.70771 4.6766 6.99659 5.38795C6.28552 6.09907 6.28552 7.25221 6.99659 7.96334L7.90663 8.87333C7.19551 8.1622 6.04236 8.1622 5.33124 8.87333C4.61989 9.58445 4.61989 10.7376 5.33124 11.4487L6.24123 12.3589C5.52994 11.6476 4.37696 11.6476 3.66567 12.3589C2.95454 13.0701 2.95454 14.223 3.66567 14.9343L5.02193 16.2904ZM16.1107 1.15094C16.2356 1.0266 16.3681 0.910216 16.5076 0.80249L16.0107 0.305582C15.8846 0.179507 15.722 0.0962813 15.5461 0.0676868C15.3701 0.0390923 15.1895 0.0665776 15.03 0.146252L12.933 1.19478L14.4999 2.76192L16.1107 1.15094Z" fill="#22407A"/>
</g>
<defs>
<clipPath id="clip0_34_122">
<rect width="29" height="29" fill="white"/>
</clipPath>
</defs>
</svg>
