<svg width="33" height="33" viewBox="0 0 33 33" fill="none" xmlns="http://www.w3.org/2000/svg">
<path d="M24.4941 8.60269L17.2754 0.352688C17.0794 0.129937 16.7969 0 16.4999 0C16.2029 0 15.9203 0.129937 15.7244 0.352688L8.50563 8.60269C8.23957 8.90794 8.17357 9.339 8.34269 9.70819C8.42472 9.88828 8.55679 10.041 8.72317 10.1481C8.88956 10.2553 9.08324 10.3123 9.28113 10.3125H13.4061V23.7188C13.4061 24.288 13.8681 24.75 14.4374 24.75H18.5624C19.1316 24.75 19.5936 24.288 19.5936 23.7188V10.3125H23.7186C23.9166 10.3128 24.1105 10.2559 24.2769 10.1487C24.4434 10.0415 24.5754 9.88854 24.6571 9.70819C24.8241 9.339 24.7623 8.90588 24.4941 8.60269Z" fill="#ED7D2B"/>
<path d="M27.8438 22.6875V28.875H5.15625V22.6875H1.03125V30.9375C1.03125 32.0781 1.95525 33 3.09375 33H29.9062C31.0468 33 31.9688 32.0781 31.9688 30.9375V22.6875H27.8438Z" fill="#ED7D2B"/>
</svg>
