<svg width="192" height="181" viewBox="0 0 192 181" fill="none" xmlns="http://www.w3.org/2000/svg">
<path fill-rule="evenodd" clip-rule="evenodd" d="M98.7327 142.595C99.307 140.809 99.2849 139.559 97.3651 138.974C94.4329 138.033 90.1146 138.729 91.4933 142.595C91.8081 143.64 92.2553 142.359 95.1139 142.411C98.1271 142.418 98.4235 143.624 98.7327 142.595Z" fill="white"/>
<path fill-rule="evenodd" clip-rule="evenodd" d="M92.5094 158.577C92.5094 159.413 83.9796 155.284 86.7719 147.605C84.3974 146.893 83.3722 148.286 83.1311 147.561C82.2678 144.975 85.0527 144.77 86.8382 145.266C88.3494 145.744 87.1088 146.328 88.2942 145.023C89.6397 142.781 81.2627 141.744 80.9903 146.326C80.9038 147.944 81.8389 148.855 81.3861 149.306C80.7635 150.053 80.3616 150.959 80.2254 151.922C80.0891 152.885 80.224 153.867 80.6148 154.758C79.8756 153.452 79.6474 151.918 79.9743 150.453C60.7427 135.32 91.8798 138.886 0 138.886L64.5493 148.997C71.7766 158.663 82.2282 165.421 94.0095 168.044C98.5303 169.108 115.584 162.498 125.656 148.995L190.228 138.884C98.891 138.884 129.279 135.561 110.23 150.451C110.575 151.912 110.354 153.451 109.611 154.756C110.002 153.865 110.137 152.883 110.001 151.92C109.864 150.957 109.462 150.051 108.84 149.304C108.378 148.842 109.324 147.982 109.238 146.324C108.965 141.781 100.564 142.742 101.932 145.021C103.101 146.309 101.893 145.737 103.39 145.264C105.243 144.748 107.94 145.028 107.097 147.559C106.835 148.341 105.895 146.865 103.434 147.603C105.606 153.228 100.84 158.344 97.7167 158.598V158.576C103.261 156.764 105.23 149.899 101.492 145.396C100.741 144.553 102.263 143.324 102.131 140.629C101.718 133.391 84.8061 133.047 88.8685 144.426C89.3949 145.704 86.8161 146.37 86.8161 150.685C86.8161 155.682 91.2319 158.577 92.5094 158.577Z" fill="white"/>
<path fill-rule="evenodd" clip-rule="evenodd" d="M94.2525 170.621C82.1215 168.498 71.1161 162.196 63.1448 152.809C58.7934 147.714 51.1123 154.281 55.4416 159.341C64.9413 170.532 78.0579 178.045 92.5167 180.577C100.178 181.803 120.784 175.873 134.799 159.341C139.132 154.268 131.444 147.717 127.098 152.809C116.63 165.134 101.497 170.621 94.2525 170.621Z" fill="white"/>
<path d="M0.110437 106.434H5.70613V116.726L15.171 106.434H22.0919L12.1246 117.515C12.9836 118.712 14.5733 120.941 16.8938 124.203C19.2143 127.464 20.947 129.897 22.0919 131.501H15.5667L8.21499 121.603L5.70613 124.399V131.501H0.110437V106.434Z" fill="white"/>
<path d="M57.8068 106.434H63.4007V131.501H57.8068L45.8663 115.794V131.501H40.2724V106.434H45.5092L57.8068 122.579V106.434Z" fill="white"/>
<path d="M105.354 128.04C102.82 130.514 99.7003 131.751 95.9956 131.751C92.2909 131.751 89.171 130.514 86.6357 128.04C84.1017 125.565 82.8347 122.487 82.8347 118.806C82.8347 115.124 84.1017 112.047 86.6357 109.573C89.1697 107.099 92.2897 105.862 95.9956 105.862C99.7016 105.862 102.821 107.099 105.354 109.573C107.888 112.047 109.155 115.124 109.155 118.806C109.155 122.487 107.888 125.565 105.354 128.04ZM103.454 118.824C103.454 116.589 102.737 114.683 101.302 113.105C99.8678 111.527 98.1051 110.738 96.014 110.738C93.9218 110.738 92.1584 111.527 90.7239 113.105C89.2894 114.683 88.5752 116.589 88.5813 118.824C88.5813 121.061 89.2986 122.963 90.7331 124.53C91.4016 125.27 92.2177 125.861 93.1288 126.265C94.0398 126.669 95.0255 126.878 96.0223 126.878C97.0191 126.878 98.0048 126.669 98.9158 126.265C99.8269 125.861 100.643 125.27 101.312 124.53C102.739 122.962 103.453 121.06 103.454 118.824Z" fill="white"/>
<path d="M140.1 126.551C142.849 126.551 145.096 125.463 146.841 123.288L150.428 126.982C147.584 130.182 144.231 131.782 140.369 131.782C136.507 131.782 133.328 130.563 130.831 128.125C128.333 125.69 127.084 122.615 127.083 118.898C127.082 115.181 128.355 112.079 130.902 109.593C133.449 107.106 136.563 105.863 140.244 105.864C144.355 105.864 147.797 107.43 150.57 110.561L147.093 114.506C145.322 112.304 143.121 111.204 140.489 111.204C138.49 111.164 136.554 111.904 135.092 113.267C133.597 114.64 132.851 116.492 132.852 118.824C132.853 121.156 133.558 123.026 134.967 124.436C135.632 125.121 136.431 125.662 137.314 126.026C138.197 126.39 139.146 126.568 140.1 126.551Z" fill="white"/>
<path d="M169.54 106.434H175.132V116.726L184.599 106.434H191.52L181.553 117.515C182.412 118.712 184.001 120.941 186.322 124.203C188.642 127.464 190.375 129.897 191.52 131.501H184.995L177.643 121.603L175.132 124.399V131.501H169.54V106.434Z" fill="white"/>
<path d="M0.110437 106.434H5.70613V116.726L15.171 106.434H22.0919L12.1246 117.515C12.9836 118.712 14.5733 120.941 16.8938 124.203C19.2143 127.464 20.947 129.897 22.0919 131.501H15.5667L8.21499 121.603L5.70613 124.399V131.501H0.110437V106.434Z" fill="white"/>
<path d="M57.8068 106.434H63.4007V131.501H57.8068L45.8663 115.794V131.501H40.2724V106.434H45.5092L57.8068 122.579V106.434Z" fill="white"/>
<path d="M105.354 128.04C102.82 130.514 99.7003 131.751 95.9956 131.751C92.2909 131.751 89.171 130.514 86.6357 128.04C84.1017 125.565 82.8347 122.487 82.8347 118.806C82.8347 115.124 84.1017 112.047 86.6357 109.573C89.1697 107.099 92.2897 105.862 95.9956 105.862C99.7016 105.862 102.821 107.099 105.354 109.573C107.888 112.047 109.155 115.124 109.155 118.806C109.155 122.487 107.888 125.565 105.354 128.04ZM103.454 118.824C103.454 116.589 102.737 114.683 101.302 113.105C99.8678 111.527 98.1051 110.738 96.014 110.738C93.9218 110.738 92.1584 111.527 90.7239 113.105C89.2894 114.683 88.5752 116.589 88.5813 118.824C88.5813 121.061 89.2986 122.963 90.7331 124.53C91.4016 125.27 92.2177 125.861 93.1288 126.265C94.0398 126.669 95.0255 126.878 96.0223 126.878C97.0191 126.878 98.0048 126.669 98.9158 126.265C99.8269 125.861 100.643 125.27 101.312 124.53C102.739 122.962 103.453 121.06 103.454 118.824Z" fill="white"/>
<path d="M140.1 126.551C142.849 126.551 145.096 125.463 146.841 123.288L150.428 126.982C147.584 130.182 144.231 131.782 140.369 131.782C136.507 131.782 133.328 130.563 130.831 128.125C128.333 125.69 127.084 122.615 127.083 118.898C127.082 115.181 128.355 112.079 130.902 109.593C133.449 107.106 136.563 105.863 140.244 105.864C144.355 105.864 147.797 107.43 150.57 110.561L147.093 114.506C145.322 112.304 143.121 111.204 140.489 111.204C138.49 111.164 136.554 111.904 135.092 113.267C133.597 114.64 132.851 116.492 132.852 118.824C132.853 121.156 133.558 123.026 134.967 124.436C135.632 125.121 136.431 125.662 137.314 126.026C138.197 126.39 139.146 126.568 140.1 126.551Z" fill="white"/>
<path d="M169.54 106.434H175.132V116.726L184.599 106.434H191.52L181.553 117.515C182.412 118.712 184.001 120.941 186.322 124.203C188.642 127.464 190.375 129.897 191.52 131.501H184.995L177.643 121.603L175.132 124.399V131.501H169.54V106.434Z" fill="white"/>
<path d="M99.4598 31.9895C99.4598 34.5113 99.515 37.033 99.4451 39.5529C99.3696 42.2624 97.5657 43.9927 94.9372 44.0166C92.3087 44.0405 90.3797 42.3416 90.3355 39.656C90.2471 34.4677 90.2471 29.2776 90.3355 24.0856C90.3797 21.4553 92.4063 19.6422 94.9372 19.668C97.4682 19.6937 99.3217 21.5363 99.4487 24.2034C99.5113 25.5342 99.4653 26.8724 99.4672 28.2069C99.4672 29.466 99.4672 30.7262 99.4672 31.9877L99.4598 31.9895Z" fill="white"/>
<path fill-rule="evenodd" clip-rule="evenodd" d="M0 97.9562L51.4178 87.8452L51.335 77.3533C51.335 77.3533 50.341 72.1681 60.6654 69.1218L64.6376 78.4375L61.5232 79.7665C61.5232 79.7665 61.9558 91.3628 61.5232 92.6016C61.514 92.6679 61.2416 98.1715 56.465 97.9562H0Z" fill="white"/>
<path fill-rule="evenodd" clip-rule="evenodd" d="M190.655 97.9562L139.235 87.8452L139.32 77.3533C139.32 77.3533 140.314 72.1681 129.989 69.1218L126.017 78.4375L129.128 79.7609C129.128 79.7609 128.697 91.3573 129.128 92.5961C129.128 92.6623 129.408 98.166 134.186 97.9506L190.655 97.9562Z" fill="white"/>
<path d="M64.5051 36.987C64.5051 36.987 72.2636 25.8692 84.9957 23.2812C84.9957 23.2812 88.239 23.3438 89.5477 20.8165C89.5477 20.7889 90.4809 18.0242 94.8139 17.3873C94.8746 17.3873 98.4308 17.518 100.08 20.6675C100.547 21.4741 101.221 22.1415 102.031 22.601C102.842 23.0604 103.761 23.2953 104.693 23.2812C104.693 23.2812 116.192 25.1293 125.182 36.987C125.182 36.987 131.396 26.8411 119.82 19.9146C119.82 19.9146 114.789 18.9041 116.521 13.8992C116.521 13.8992 118.277 4.19328 107.36 0.605782C107.36 0.605782 103.679 -0.653249 99.3199 1.29604C99.3567 1.27763 97.9173 2.14276 97.4995 2.50169C97.4995 2.50169 95.5778 4.46939 94.8746 4.22826H94.8139C94.8139 4.22826 93.5825 4.04419 92.1891 2.50169C92.1891 2.50169 86.6983 -1.4834 82.3285 0.605782C82.3285 0.605782 72.271 2.79988 73.1674 13.8992C73.1674 13.8992 74.5166 18.6537 69.8689 19.9146C69.8689 19.9091 58.891 25.7257 64.5051 36.987Z" fill="white"/>
<path d="M85.3049 25.4035C85.3049 25.4035 86.9155 24.6875 86.7388 26.4785L86.7498 34.491C86.7498 34.491 86.9449 35.9157 85.5607 36.3059C85.5607 36.3059 83.3703 36.7238 78.001 40.4641C75.1285 42.9655 72.7228 45.957 70.896 49.2994C70.896 49.2994 65.4089 60.2901 69.9554 70.5961C69.8707 70.7986 72.4035 76.5103 76.5101 80.5046C76.5101 80.5046 79.6006 83.5583 82.4242 84.9222C82.4242 84.9222 86.3228 87.2599 88.6513 87.2378C88.6513 87.2378 90.9356 87.6557 91.346 87.6906C91.7565 87.7256 100.308 88.992 109.626 83.6025C109.626 83.6025 116.571 79.6579 119.821 70.6238C119.821 70.6238 120.965 66.8227 121.228 64.8826C121.228 64.8826 121.447 58.8231 121.241 57.3082C121.241 57.3082 120.388 47.2268 111.352 40.1732C111.352 40.1732 106.361 36.7606 104.358 36.3961C104.358 36.3961 102.976 36.0869 103.009 34.4671L103.02 26.4877C103.02 26.4877 102.709 24.8495 104.454 25.3999C104.454 25.3999 110.971 27.0215 115.406 30.5115C115.406 30.5115 121.802 34.1928 125.594 40.8193L126.864 42.6269C126.864 42.6269 134.227 54.7202 131 69.4678C131.083 69.5359 128.892 79.8603 120.272 88.0219C120.272 88.0219 108.124 100.864 90.341 97.923C90.341 97.923 72.2286 96.9898 61.9834 77.7896C61.9834 77.7896 52.1283 59.8042 62.7196 43.0134C62.7196 42.9913 68.8859 30.7415 85.3049 25.4035Z" fill="white"/>
<path d="M86.8989 41.1212C86.8989 41.1212 87.1088 46.3745 93.5659 47.5489C93.5659 47.5489 95.7361 48.3717 98.3867 46.9967C98.3867 46.9967 102.451 44.9719 102.79 41.3568C102.775 41.4231 102.508 39.4001 104.525 40.4825C104.525 40.4825 112.945 44.2853 115.849 51.904C115.849 51.904 116.992 56.1707 110.511 58.6593C110.511 58.6593 103.984 61.5676 98.3793 56.8757C98.3793 56.8757 95.5483 54.0355 92.1449 57.2916C92.1449 57.2916 88.3015 61.0246 83.3096 59.9128C83.3096 59.9128 80.9498 60.0288 79.0852 58.7513C79.0852 58.7513 71.855 54.9337 74.2479 50.7388C74.2479 50.7388 78.8809 42.6545 85.1908 40.2763C85.1944 40.2818 86.8363 39.2566 86.8989 41.1212Z" fill="white"/>
</svg>
